SplineFontDB: 3.0
FontName: Latte-Italic
FullName: Latte Italic
FamilyName: Latte
Weight: Book
Copyright: Copyright (c) 2016 by Guillaume Litaudon (www.guillaumelitaudon.com) with Reserved Font Name "Latte".\nThis Font Software is licensed under the SIL Open Font License, Version 1.1.\n\nLatte is a variation of Carlito.\nCarlito is Copyright (c) 2010-2013 by tyPoland Lukasz Dziedzic with Reserved Font Name "Carlito". Licensed under the SIL Open Font License, Version 1.1.
FontLog: "# FONTLOG for the Latte Italic font+AAoACgAA-This file provides detailed information on the Latte Italic font Software.+AAoACgAA-This information should be distributed along with the Latte fonts and any derivative works.+AAoACgAA## Basic Font Information+AAoACgAA-Latte is a modification of Google's Carlito fonts. +AAoACgAA-Carlito is based on Lato fonts by +AUEA-ukasz Dziedzic (http://www.lukaszdziedzic.eu/), changing the metrics to match Microsoft's Calibri.+AAoACgAA## Source files+AAoA-- Latte-Italic.sfd (Italic weight)+AAoACgAA## ChangeLog+AAoACgAKAAoACgAA-If you make modifications be sure to add your name (N), +AAoA-email (E), web-address (if you have one) (W) and description (D). +AAoA-This list is in alphabetical order.+AAoACgAA-N: Guillaume Litaudon+AAoA-E: guillaume.litaudon@gmail.com+AAoA-W: www.guillaumelitaudon.fr+AAoA-D: Fonts Original Author+AAoACgAA-N: +AUEA-ukasz Dziedzic+AAoA-W: www.lukaszdziedzic.eu+AAoA-D: Typeface Original Author"
Version: 0.1
ItalicAngle: -7
UnderlinePosition: -200
UnderlineWidth: 194
Ascent: 1536
Descent: 512
InvalidEm: 0
sfntRevision: 0x00010000
LayerCount: 2
Layer: 0 1 "Arri+AOgA-re" 1
Layer: 1 1 "Avant" 0
XUID: [1021 871 2113692927 15987]
StyleMap: 0x0001
FSType: 0
OS2Version: 3
OS2_WeightWidthSlopeOnly: 0
OS2_UseTypoMetrics: 0
CreationTime: -835835226
ModificationTime: 1477727233
PfmFamily: 33
TTFWeight: 400
TTFWidth: 5
LineGap: 452
VLineGap: 0
Panose: 2 15 5 2 2 2 4 3 2 4
OS2TypoAscent: 1536
OS2TypoAOffset: 0
OS2TypoDescent: -512

StartChar: .notdef
Encoding: 65536 -1 0
Width: 1038
GlyphClass: 2
Flags: W
LayerCount: 2
Fore
SplineSet
241 1101 m 1,0,1
 265 1122 265 1122 293 1140.5 c 128,-1,2
 321 1159 321 1159 354 1173.5 c 128,-1,3
 387 1188 387 1188 425 1196 c 128,-1,4
 463 1204 463 1204 507 1204 c 0,5,6
 568 1204 568 1204 618 1187 c 128,-1,7
 668 1170 668 1170 704 1139 c 128,-1,8
 740 1108 740 1108 759.5 1063.5 c 128,-1,9
 779 1019 779 1019 779 965 c 0,10,11
 779 912 779 912 764.5 874 c 128,-1,12
 750 836 750 836 728.5 807.5 c 128,-1,13
 707 779 707 779 681 758 c 128,-1,14
 655 737 655 737 631.5 718.5 c 128,-1,15
 608 700 608 700 591.5 682 c 128,-1,16
 575 664 575 664 571 642 c 2,17,-1
 554 542 l 1,18,-1
 435 542 l 1,19,-1
 422 655 l 2,20,21
 418 688 418 688 431 712.5 c 128,-1,22
 444 737 444 737 465.5 757.5 c 128,-1,23
 487 778 487 778 513.5 797 c 128,-1,24
 540 816 540 816 562.5 838.5 c 128,-1,25
 585 861 585 861 600.5 888.5 c 128,-1,26
 616 916 616 916 616 955 c 0,27,28
 616 1003 616 1003 581.5 1031.5 c 128,-1,29
 547 1060 547 1060 493 1060 c 0,30,31
 454 1060 454 1060 427 1051.5 c 128,-1,32
 400 1043 400 1043 380.5 1032.5 c 128,-1,33
 361 1022 361 1022 348 1013.5 c 128,-1,34
 335 1005 335 1005 324 1005 c 0,35,36
 299 1005 299 1005 287 1026 c 2,37,-1
 241 1101 l 1,0,1
382 283 m 0,38,39
 382 305 382 305 390 325 c 128,-1,40
 398 345 398 345 412.5 359.5 c 128,-1,41
 427 374 427 374 446.5 382.5 c 128,-1,42
 466 391 466 391 489 391 c 0,43,44
 511 391 511 391 530.5 382.5 c 128,-1,45
 550 374 550 374 564 359.5 c 128,-1,46
 578 345 578 345 586.5 325 c 128,-1,47
 595 305 595 305 595 283 c 0,48,49
 595 260 595 260 586.5 240.5 c 128,-1,50
 578 221 578 221 564 207 c 128,-1,51
 550 193 550 193 530.5 184.5 c 128,-1,52
 511 176 511 176 489 176 c 0,53,54
 466 176 466 176 446.5 184.5 c 128,-1,55
 427 193 427 193 412.5 207 c 128,-1,56
 398 221 398 221 390 240.5 c 128,-1,57
 382 260 382 260 382 283 c 0,38,39
43 1383 m 1,58,-1
 985 1383 l 1,59,-1
 985 0 l 1,60,-1
 43 0 l 1,61,-1
 43 1383 l 1,58,-1
93 53 m 1,62,-1
 930 53 l 1,63,-1
 930 1330 l 1,64,-1
 93 1330 l 1,65,-1
 93 53 l 1,62,-1
EndSplineSet
EndChar

StartChar: glyph1
Encoding: 0 -1 1
AltUni2: 000000.ffffffff.0
Width: 0
Flags: W
LayerCount: 2
Fore
SplineSet
-57 -333 m 0,0,1
 -57 -325 -57 -325 -51.5 -319.5 c 128,-1,2
 -46 -314 -46 -314 -39 -314 c 0,3,4
 -33 -314 -33 -314 -29 -318.5 c 128,-1,5
 -25 -323 -25 -323 -25 -329 c 0,6,7
 -25 -337 -25 -337 -30 -343 c 128,-1,8
 -35 -349 -35 -349 -42 -349 c 256,9,10
 -49 -349 -49 -349 -53 -344 c 128,-1,11
 -57 -339 -57 -339 -57 -333 c 0,0,1
EndSplineSet
EndChar

StartChar: A
Encoding: 65 65 3
Width: 1185
GlyphClass: 2
Flags: W
LayerCount: 2
Fore
SplineSet
1131 0 m 1,0,-1
 995 0 l 2,1,2
 971 0 971 0 958 11 c 128,-1,3
 945 22 945 22 940 42 c 2,4,-1
 862 361 l 1,5,-1
 298 361 l 1,6,-1
 141 42 l 2,7,8
 133 25 133 25 116 12.5 c 128,-1,9
 99 0 99 0 77 0 c 2,10,-1
 -60 0 l 1,11,-1
 607 1314 l 1,12,-1
 786 1314 l 1,13,-1
 1131 0 l 1,0,-1
361 488 m 1,14,-1
 831 488 l 1,15,-1
 700 1026 l 2,16,17
 695 1050 695 1050 688.5 1081.5 c 128,-1,18
 682 1113 682 1113 677 1149 c 1,19,20
 663 1113 663 1113 650 1081 c 128,-1,21
 637 1049 637 1049 626 1025 c 2,22,-1
 361 488 l 1,14,-1
EndSplineSet
Substitution2: "sous-table 'sups' Exposant lookups25" A.superior
Position2: "sous-table 'cpsp' Chasses pour composition en capitales lookups0" dx=40 dy=0 dh=80 dv=0
EndChar

StartChar: Aogonek
Encoding: 260 260 4
Width: 1185
GlyphClass: 2
Flags: W
LayerCount: 2
Fore
SplineSet
1191 -202 m 0,0,1
 1205 -202 1205 -202 1208 -214 c 2,2,-1
 1226 -277 l 1,3,4
 1196 -299 1196 -299 1153 -313 c 128,-1,5
 1110 -327 1110 -327 1064 -327 c 0,6,7
 990 -327 990 -327 950 -293.5 c 128,-1,8
 910 -260 910 -260 910 -204 c 0,9,10
 910 -144 910 -144 949.5 -91.5 c 128,-1,11
 989 -39 989 -39 1052 0 c 1,12,-1
 995 0 l 2,13,14
 971 0 971 0 958 11 c 128,-1,15
 945 22 945 22 940 42 c 2,16,-1
 862 361 l 1,17,-1
 298 361 l 1,18,-1
 141 42 l 2,19,20
 133 25 133 25 116 12.5 c 128,-1,21
 99 0 99 0 77 0 c 2,22,-1
 -60 0 l 1,23,-1
 607 1314 l 1,24,-1
 786 1314 l 1,25,-1
 1129 8 l 1,26,-1
 1164 3 l 1,27,28
 1144 -8 1144 -8 1122.5 -24 c 128,-1,29
 1101 -40 1101 -40 1083 -60.5 c 128,-1,30
 1065 -81 1065 -81 1053.5 -105 c 128,-1,31
 1042 -129 1042 -129 1042 -157 c 0,32,33
 1042 -188 1042 -188 1060.5 -206.5 c 128,-1,34
 1079 -225 1079 -225 1110 -225 c 0,35,36
 1130 -225 1130 -225 1144 -221.5 c 128,-1,37
 1158 -218 1158 -218 1167 -213.5 c 128,-1,38
 1176 -209 1176 -209 1181.5 -205.5 c 128,-1,39
 1187 -202 1187 -202 1191 -202 c 0,0,1
361 488 m 1,40,-1
 831 488 l 1,41,-1
 700 1026 l 2,42,43
 695 1050 695 1050 688.5 1081.5 c 128,-1,44
 682 1113 682 1113 677 1149 c 1,45,46
 663 1113 663 1113 650 1081 c 128,-1,47
 637 1049 637 1049 626 1025 c 2,48,-1
 361 488 l 1,40,-1
EndSplineSet
Position2: "sous-table 'cpsp' Chasses pour composition en capitales lookups0" dx=40 dy=0 dh=80 dv=0
EndChar

StartChar: AE
Encoding: 198 198 5
Width: 1563
GlyphClass: 2
Flags: W
LayerCount: 2
Fore
SplineSet
1566 1172 m 1,0,-1
 935 1172 l 1,1,-1
 935 731 l 1,2,-1
 1401 731 l 1,3,-1
 1384 593 l 1,4,-1
 935 593 l 1,5,-1
 935 142 l 1,6,-1
 1440 142 l 1,7,-1
 1421 0 l 1,8,-1
 768 0 l 1,9,-1
 768 361 l 1,10,-1
 310 361 l 1,11,-1
 124 42 l 2,12,13
 114 25 114 25 96 12.5 c 128,-1,14
 78 0 78 0 55 0 c 2,15,-1
 -82 0 l 1,16,-1
 705 1314 l 1,17,-1
 1583 1314 l 1,18,-1
 1566 1172 l 1,0,-1
384 488 m 1,19,-1
 768 488 l 1,20,-1
 768 1166 l 1,21,22
 743 1103 743 1103 712 1050 c 2,23,-1
 384 488 l 1,19,-1
EndSplineSet
Position2: "sous-table 'cpsp' Chasses pour composition en capitales lookups0" dx=40 dy=0 dh=80 dv=0
EndChar

StartChar: B
Encoding: 66 66 6
Width: 1114
GlyphClass: 2
Flags: W
LayerCount: 2
Fore
SplineSet
90 0 m 1,0,-1
 252 1314 l 1,1,-1
 649 1314 l 2,2,3
 754 1314 754 1314 830 1293.5 c 128,-1,4
 906 1273 906 1273 954.5 1234.5 c 128,-1,5
 1003 1196 1003 1196 1026.5 1141.5 c 128,-1,6
 1050 1087 1050 1087 1050 1019 c 0,7,8
 1050 961 1050 961 1032.5 907.5 c 128,-1,9
 1015 854 1015 854 980.5 809.5 c 128,-1,10
 946 765 946 765 894 730.5 c 128,-1,11
 842 696 842 696 773 675 c 1,12,13
 894 649 894 649 955.5 582.5 c 128,-1,14
 1017 516 1017 516 1017 412 c 0,15,16
 1017 322 1017 322 983.5 246 c 128,-1,17
 950 170 950 170 887.5 115.5 c 128,-1,18
 825 61 825 61 735 30.5 c 128,-1,19
 645 0 645 0 532 0 c 2,20,-1
 90 0 l 1,0,-1
340 600 m 1,21,-1
 284 138 l 1,22,-1
 546 138 l 2,23,24
 620 138 620 138 675.5 157 c 128,-1,25
 731 176 731 176 768.5 211.5 c 128,-1,26
 806 247 806 247 824.5 297.5 c 128,-1,27
 843 348 843 348 843 410 c 0,28,29
 843 498 843 498 783 549 c 128,-1,30
 723 600 723 600 602 600 c 2,31,-1
 340 600 l 1,21,-1
355 723 m 1,32,-1
 570 723 l 2,33,34
 645 723 645 723 702 742.5 c 128,-1,35
 759 762 759 762 796.5 797 c 128,-1,36
 834 832 834 832 853 881 c 128,-1,37
 872 930 872 930 872 989 c 0,38,39
 872 1084 872 1084 813.5 1130.5 c 128,-1,40
 755 1177 755 1177 633 1177 c 2,41,-1
 411 1177 l 1,42,-1
 355 723 l 1,32,-1
EndSplineSet
Substitution2: "sous-table 'sups' Exposant lookups25" B.superior
Position2: "sous-table 'cpsp' Chasses pour composition en capitales lookups0" dx=40 dy=0 dh=80 dv=0
EndChar

StartChar: C
Encoding: 67 67 7
Width: 1070
GlyphClass: 2
Flags: W
LayerCount: 2
Fore
SplineSet
592 137 m 0,0,1
 677 137 677 137 733 157.5 c 128,-1,2
 789 178 789 178 825 203 c 128,-1,3
 861 228 861 228 882 248.5 c 128,-1,4
 903 269 903 269 918 269 c 0,5,6
 935 269 935 269 940 259 c 2,7,-1
 1003 183 l 1,8,9
 921 89 921 89 812.5 37.5 c 128,-1,10
 704 -14 704 -14 562 -14 c 0,11,12
 450 -14 450 -14 361.5 27.5 c 128,-1,13
 273 69 273 69 212 144 c 128,-1,14
 151 219 151 219 118.5 323 c 128,-1,15
 86 427 86 427 86 551 c 0,16,17
 86 723 86 723 137.5 866.5 c 128,-1,18
 189 1010 189 1010 278.5 1112.5 c 128,-1,19
 368 1215 368 1215 489 1272 c 128,-1,20
 610 1329 610 1329 748 1329 c 0,21,22
 815 1329 815 1329 869 1317 c 128,-1,23
 923 1305 923 1305 967.5 1282.5 c 128,-1,24
 1012 1260 1012 1260 1048.5 1227.5 c 128,-1,25
 1085 1195 1085 1195 1115 1155 c 1,26,-1
 1055 1082 l 2,27,28
 1047 1073 1047 1073 1038 1067 c 128,-1,29
 1029 1061 1029 1061 1015 1061 c 0,30,31
 1004 1061 1004 1061 993 1069.5 c 128,-1,32
 982 1078 982 1078 967.5 1091 c 128,-1,33
 953 1104 953 1104 934 1118.5 c 128,-1,34
 915 1133 915 1133 888 1146 c 128,-1,35
 861 1159 861 1159 824 1167.5 c 128,-1,36
 787 1176 787 1176 738 1176 c 0,37,38
 639 1176 639 1176 552.5 1133.5 c 128,-1,39
 466 1091 466 1091 402.5 1011.5 c 128,-1,40
 339 932 339 932 302.5 819 c 128,-1,41
 266 706 266 706 266 566 c 0,42,43
 266 466 266 466 290 386.5 c 128,-1,44
 314 307 314 307 357.5 251.5 c 128,-1,45
 401 196 401 196 461 166.5 c 128,-1,46
 521 137 521 137 592 137 c 0,0,1
EndSplineSet
Substitution2: "sous-table 'sups' Exposant lookups25" C.superior
Position2: "sous-table 'cpsp' Chasses pour composition en capitales lookups0" dx=40 dy=0 dh=80 dv=0
EndChar

StartChar: Ccedilla
Encoding: 199 199 8
Width: 1070
GlyphClass: 2
Flags: W
LayerCount: 2
Fore
SplineSet
407 -237 m 0,0,1
 413 -237 413 -237 419.5 -240.5 c 128,-1,2
 426 -244 426 -244 435 -248.5 c 128,-1,3
 444 -253 444 -253 457 -256.5 c 128,-1,4
 470 -260 470 -260 488 -260 c 0,5,6
 526 -260 526 -260 547 -241 c 128,-1,7
 568 -222 568 -222 568 -194 c 0,8,9
 568 -161 568 -161 534 -147 c 128,-1,10
 500 -133 500 -133 436 -124 c 1,11,-1
 482 -8 l 1,12,13
 388 6 388 6 314.5 53 c 128,-1,14
 241 100 241 100 190 173 c 128,-1,15
 139 246 139 246 112.5 342 c 128,-1,16
 86 438 86 438 86 551 c 0,17,18
 86 723 86 723 137.5 866.5 c 128,-1,19
 189 1010 189 1010 278.5 1112.5 c 128,-1,20
 368 1215 368 1215 489 1272 c 128,-1,21
 610 1329 610 1329 748 1329 c 0,22,23
 815 1329 815 1329 869 1317 c 128,-1,24
 923 1305 923 1305 967.5 1282.5 c 128,-1,25
 1012 1260 1012 1260 1048.5 1227.5 c 128,-1,26
 1085 1195 1085 1195 1115 1155 c 1,27,-1
 1055 1082 l 2,28,29
 1047 1073 1047 1073 1038 1067 c 128,-1,30
 1029 1061 1029 1061 1015 1061 c 0,31,32
 1004 1061 1004 1061 993 1069.5 c 128,-1,33
 982 1078 982 1078 967.5 1091 c 128,-1,34
 953 1104 953 1104 934 1118.5 c 128,-1,35
 915 1133 915 1133 888 1146 c 128,-1,36
 861 1159 861 1159 824 1167.5 c 128,-1,37
 787 1176 787 1176 738 1176 c 0,38,39
 639 1176 639 1176 552.5 1133.5 c 128,-1,40
 466 1091 466 1091 402.5 1011.5 c 128,-1,41
 339 932 339 932 302.5 819 c 128,-1,42
 266 706 266 706 266 566 c 0,43,44
 266 466 266 466 290 386.5 c 128,-1,45
 314 307 314 307 357.5 251.5 c 128,-1,46
 401 196 401 196 461 166.5 c 128,-1,47
 521 137 521 137 592 137 c 0,48,49
 677 137 677 137 733 157.5 c 128,-1,50
 789 178 789 178 825 203 c 128,-1,51
 861 228 861 228 882 248.5 c 128,-1,52
 903 269 903 269 918 269 c 0,53,54
 935 269 935 269 940 259 c 2,55,-1
 1003 183 l 1,56,57
 925 94 925 94 822.5 43 c 128,-1,58
 720 -8 720 -8 588 -13 c 1,59,-1
 567 -66 l 1,60,61
 637 -83 637 -83 669.5 -113 c 128,-1,62
 702 -143 702 -143 702 -188 c 0,63,64
 702 -223 702 -223 686 -250 c 128,-1,65
 670 -277 670 -277 641.5 -296.5 c 128,-1,66
 613 -316 613 -316 573.5 -326 c 128,-1,67
 534 -336 534 -336 488 -336 c 0,68,69
 452 -336 452 -336 419.5 -327.5 c 128,-1,70
 387 -319 387 -319 361 -305 c 1,71,-1
 384 -253 l 2,72,73
 388 -245 388 -245 393 -241 c 128,-1,74
 398 -237 398 -237 407 -237 c 0,0,1
EndSplineSet
Position2: "sous-table 'cpsp' Chasses pour composition en capitales lookups0" dx=40 dy=0 dh=80 dv=0
EndChar

StartChar: D
Encoding: 68 68 9
Width: 1260
GlyphClass: 2
Flags: W
LayerCount: 2
Fore
SplineSet
1222 751 m 0,0,1
 1222 583 1222 583 1170.5 444.5 c 128,-1,2
 1119 306 1119 306 1028 207 c 128,-1,3
 937 108 937 108 811 54 c 128,-1,4
 685 0 685 0 537 0 c 2,5,-1
 86 0 l 1,6,-1
 248 1314 l 1,7,-1
 699 1314 l 2,8,9
 820 1314 820 1314 916.5 1272.5 c 128,-1,10
 1013 1231 1013 1231 1081 1157 c 128,-1,11
 1149 1083 1149 1083 1185.5 979 c 128,-1,12
 1222 875 1222 875 1222 751 c 0,0,1
1041 747 m 0,13,14
 1041 845 1041 845 1016.5 924 c 128,-1,15
 992 1003 992 1003 945.5 1058 c 128,-1,16
 899 1113 899 1113 832.5 1142.5 c 128,-1,17
 766 1172 766 1172 682 1172 c 2,18,-1
 408 1172 l 1,19,-1
 281 142 l 1,20,-1
 554 142 l 2,21,22
 662 142 662 142 752 183.5 c 128,-1,23
 842 225 842 225 906 303 c 128,-1,24
 970 381 970 381 1005.5 493 c 128,-1,25
 1041 605 1041 605 1041 747 c 0,13,14
EndSplineSet
Substitution2: "sous-table 'sups' Exposant lookups25" D.superior
Position2: "sous-table 'cpsp' Chasses pour composition en capitales lookups0" dx=40 dy=0 dh=80 dv=0
EndChar

StartChar: E
Encoding: 69 69 11
Width: 1000
GlyphClass: 2
Flags: W
LayerCount: 2
Fore
SplineSet
999 1172 m 1,0,-1
 412 1172 l 1,1,-1
 358 732 l 1,2,-1
 832 732 l 1,3,-1
 815 594 l 1,4,-1
 341 594 l 1,5,-1
 286 142 l 1,6,-1
 874 142 l 1,7,-1
 857 0 l 1,8,-1
 90 0 l 1,9,-1
 252 1314 l 1,10,-1
 1017 1314 l 1,11,-1
 999 1172 l 1,0,-1
EndSplineSet
Substitution2: "sous-table 'sups' Exposant lookups25" E.superior
Position2: "sous-table 'cpsp' Chasses pour composition en capitales lookups0" dx=40 dy=0 dh=80 dv=0
EndChar

StartChar: Eogonek
Encoding: 280 280 12
Width: 1000
GlyphClass: 2
Flags: W
LayerCount: 2
Fore
SplineSet
799 -202 m 0,0,1
 813 -202 813 -202 816 -214 c 2,2,-1
 834 -277 l 1,3,4
 804 -299 804 -299 761 -313 c 128,-1,5
 718 -327 718 -327 672 -327 c 0,6,7
 598 -327 598 -327 558 -293.5 c 128,-1,8
 518 -260 518 -260 518 -204 c 0,9,10
 518 -144 518 -144 557.5 -91.5 c 128,-1,11
 597 -39 597 -39 660 0 c 1,12,-1
 90 0 l 1,13,-1
 252 1314 l 1,14,-1
 1017 1314 l 1,15,-1
 999 1172 l 1,16,-1
 412 1172 l 1,17,-1
 358 732 l 1,18,-1
 832 732 l 1,19,-1
 815 594 l 1,20,-1
 341 594 l 1,21,-1
 286 142 l 1,22,-1
 874 142 l 1,23,-1
 857 0 l 1,24,-1
 766 0 l 1,25,26
 746 -11 746 -11 725.5 -27 c 128,-1,27
 705 -43 705 -43 688 -63 c 128,-1,28
 671 -83 671 -83 660.5 -106.5 c 128,-1,29
 650 -130 650 -130 650 -157 c 0,30,31
 650 -188 650 -188 668.5 -206.5 c 128,-1,32
 687 -225 687 -225 718 -225 c 0,33,34
 738 -225 738 -225 752 -221.5 c 128,-1,35
 766 -218 766 -218 775 -213.5 c 128,-1,36
 784 -209 784 -209 789.5 -205.5 c 128,-1,37
 795 -202 795 -202 799 -202 c 0,0,1
EndSplineSet
Position2: "sous-table 'cpsp' Chasses pour composition en capitales lookups0" dx=40 dy=0 dh=80 dv=0
EndChar

StartChar: F
Encoding: 70 70 13
Width: 941
GlyphClass: 2
Flags: W
LayerCount: 2
Fore
SplineSet
970 1172 m 1,0,-1
 406 1172 l 1,1,-1
 349 708 l 1,2,-1
 831 708 l 1,3,-1
 812 565 l 1,4,-1
 332 565 l 1,5,-1
 263 0 l 1,6,-1
 85 0 l 1,7,-1
 247 1314 l 1,8,-1
 988 1314 l 1,9,-1
 970 1172 l 1,0,-1
EndSplineSet
Substitution2: "sous-table 'sups' Exposant lookups25" F.superior
Position2: "sous-table 'cpsp' Chasses pour composition en capitales lookups0" dx=40 dy=0 dh=80 dv=0
EndChar

StartChar: G
Encoding: 71 71 14
Width: 1292
GlyphClass: 2
Flags: W
LayerCount: 2
Fore
SplineSet
672 127 m 0,0,1
 723 127 723 127 766.5 132.5 c 128,-1,2
 810 138 810 138 848 147.5 c 128,-1,3
 886 157 886 157 921 171.5 c 128,-1,4
 956 186 956 186 990 204 c 1,5,-1
 1027 497 l 1,6,-1
 835 497 l 2,7,8
 818 497 818 497 808 506.5 c 128,-1,9
 798 516 798 516 800 530 c 2,10,-1
 810 630 l 1,11,-1
 1203 630 l 1,12,-1
 1140 127 l 1,13,14
 1088 92 1088 92 1033.5 65.5 c 128,-1,15
 979 39 979 39 918.5 21.5 c 128,-1,16
 858 4 858 4 790 -5 c 128,-1,17
 722 -14 722 -14 644 -14 c 0,18,19
 519 -14 519 -14 417.5 29 c 128,-1,20
 316 72 316 72 244 149 c 128,-1,21
 172 226 172 226 133 332.5 c 128,-1,22
 94 439 94 439 94 567 c 0,23,24
 94 680 94 680 118.5 780 c 128,-1,25
 143 880 143 880 188.5 965 c 128,-1,26
 234 1050 234 1050 299 1117.5 c 128,-1,27
 364 1185 364 1185 444.5 1232 c 128,-1,28
 525 1279 525 1279 619 1304 c 128,-1,29
 713 1329 713 1329 817 1329 c 0,30,31
 897 1329 897 1329 962 1316 c 128,-1,32
 1027 1303 1027 1303 1080 1280 c 128,-1,33
 1133 1257 1133 1257 1175.5 1226 c 128,-1,34
 1218 1195 1218 1195 1253 1158 c 1,35,-1
 1198 1084 l 2,36,37
 1168 1043 1168 1043 1125 1069 c 0,38,39
 1104 1082 1104 1082 1078.5 1100 c 128,-1,40
 1053 1118 1053 1118 1016.5 1135 c 128,-1,41
 980 1152 980 1152 929 1164 c 128,-1,42
 878 1176 878 1176 806 1176 c 0,43,44
 688 1176 688 1176 590.5 1133.5 c 128,-1,45
 493 1091 493 1091 422.5 1012 c 128,-1,46
 352 933 352 933 313 822 c 128,-1,47
 274 711 274 711 274 573 c 0,48,49
 274 469 274 469 302.5 386.5 c 128,-1,50
 331 304 331 304 383 246.5 c 128,-1,51
 435 189 435 189 508.5 158 c 128,-1,52
 582 127 582 127 672 127 c 0,0,1
EndSplineSet
Substitution2: "sous-table 'sups' Exposant lookups25" G.superior
Position2: "sous-table 'cpsp' Chasses pour composition en capitales lookups0" dx=40 dy=0 dh=80 dv=0
EndChar

StartChar: H
Encoding: 72 72 15
Width: 1276
GlyphClass: 2
Flags: W
LayerCount: 2
Fore
SplineSet
1077 0 m 1,0,-1
 899 0 l 1,1,-1
 973 599 l 1,2,-1
 338 599 l 1,3,-1
 265 0 l 1,4,-1
 87 0 l 1,5,-1
 249 1314 l 1,6,-1
 426 1314 l 1,7,-1
 354 726 l 1,8,-1
 988 726 l 1,9,-1
 1061 1314 l 1,10,-1
 1238 1314 l 1,11,-1
 1077 0 l 1,0,-1
EndSplineSet
Substitution2: "sous-table 'sups' Exposant lookups25" H.superior
Position2: "sous-table 'cpsp' Chasses pour composition en capitales lookups0" dx=40 dy=0 dh=80 dv=0
EndChar

StartChar: Hbar
Encoding: 294 294 16
Width: 1344
GlyphClass: 2
Flags: W
LayerCount: 2
Fore
SplineSet
1243 1057 m 1,0,-1
 1385 1057 l 1,1,-1
 1374 951 l 1,2,-1
 1230 951 l 1,3,-1
 1114 0 l 1,4,-1
 936 0 l 1,5,-1
 1010 599 l 1,6,-1
 375 599 l 1,7,-1
 302 0 l 1,8,-1
 124 0 l 1,9,-1
 241 951 l 1,10,-1
 99 951 l 1,11,-1
 111 1057 l 1,12,-1
 254 1057 l 1,13,-1
 286 1314 l 1,14,-1
 463 1314 l 1,15,-1
 431 1057 l 1,16,-1
 1066 1057 l 1,17,-1
 1098 1314 l 1,18,-1
 1275 1314 l 1,19,-1
 1243 1057 l 1,0,-1
391 726 m 1,20,-1
 1025 726 l 1,21,-1
 1053 951 l 1,22,-1
 418 951 l 1,23,-1
 391 726 l 1,20,-1
EndSplineSet
Position2: "sous-table 'cpsp' Chasses pour composition en capitales lookups0" dx=40 dy=0 dh=80 dv=0
EndChar

StartChar: I
Encoding: 73 73 17
Width: 516
GlyphClass: 2
Flags: W
LayerCount: 2
Fore
SplineSet
293 0 m 1,0,-1
 115 0 l 1,1,-1
 276 1314 l 1,2,-1
 453 1314 l 1,3,-1
 293 0 l 1,0,-1
EndSplineSet
Substitution2: "sous-table 'sups' Exposant lookups25" I.superior
Position2: "sous-table 'cpsp' Chasses pour composition en capitales lookups0" dx=40 dy=0 dh=80 dv=0
EndChar

StartChar: Iogonek
Encoding: 302 302 18
Width: 516
GlyphClass: 2
Flags: W
LayerCount: 2
Fore
SplineSet
297 -202 m 0,0,1
 311 -202 311 -202 314 -214 c 2,2,-1
 332 -277 l 1,3,4
 302 -299 302 -299 259 -313 c 128,-1,5
 216 -327 216 -327 170 -327 c 0,6,7
 96 -327 96 -327 56 -293.5 c 128,-1,8
 16 -260 16 -260 16 -204 c 0,9,10
 16 -144 16 -144 55.5 -91.5 c 128,-1,11
 95 -39 95 -39 158 0 c 1,12,-1
 115 0 l 1,13,-1
 276 1314 l 1,14,-1
 453 1314 l 1,15,-1
 293 0 l 1,16,-1
 264 0 l 1,17,18
 244 -11 244 -11 223.5 -27 c 128,-1,19
 203 -43 203 -43 186 -63 c 128,-1,20
 169 -83 169 -83 158.5 -106.5 c 128,-1,21
 148 -130 148 -130 148 -157 c 0,22,23
 148 -188 148 -188 166.5 -206.5 c 128,-1,24
 185 -225 185 -225 216 -225 c 0,25,26
 236 -225 236 -225 250 -221.5 c 128,-1,27
 264 -218 264 -218 273 -213.5 c 128,-1,28
 282 -209 282 -209 287.5 -205.5 c 128,-1,29
 293 -202 293 -202 297 -202 c 0,0,1
EndSplineSet
Position2: "sous-table 'cpsp' Chasses pour composition en capitales lookups0" dx=40 dy=0 dh=80 dv=0
EndChar

StartChar: J
Encoding: 74 74 19
Width: 653
GlyphClass: 2
Flags: W
LayerCount: 2
Fore
SplineSet
541 437 m 2,0,1
 514 219 514 219 413.5 102 c 128,-1,2
 313 -15 313 -15 147 -15 c 0,3,4
 105 -15 105 -15 66.5 -9 c 128,-1,5
 28 -3 28 -3 -11 11 c 1,6,-1
 3 114 l 2,7,8
 5 128 5 128 13.5 138 c 128,-1,9
 22 148 22 148 41 148 c 0,10,11
 58 148 58 148 83 140.5 c 128,-1,12
 108 133 108 133 150 133 c 0,13,14
 190 133 190 133 225 148.5 c 128,-1,15
 260 164 260 164 287.5 199.5 c 128,-1,16
 315 235 315 235 335 292.5 c 128,-1,17
 355 350 355 350 365 433 c 2,18,-1
 473 1314 l 1,19,-1
 648 1314 l 1,20,-1
 541 437 l 2,0,1
EndSplineSet
Substitution2: "sous-table 'sups' Exposant lookups25" J.superior
Position2: "sous-table 'cpsp' Chasses pour composition en capitales lookups0" dx=40 dy=0 dh=80 dv=0
EndChar

StartChar: K
Encoding: 75 75 20
Width: 1064
GlyphClass: 2
Flags: W
LayerCount: 2
Fore
SplineSet
352 738 m 1,0,-1
 406 738 l 2,1,2
 435 738 435 738 454 746.5 c 128,-1,3
 473 755 473 755 490 776 c 2,4,-1
 891 1275 l 2,5,6
 911 1298 911 1298 932 1306 c 128,-1,7
 953 1314 953 1314 981 1314 c 2,8,-1
 1131 1314 l 1,9,-1
 663 746 l 2,10,11
 627 704 627 704 590 688 c 1,12,13
 613 679 613 679 630 664 c 128,-1,14
 647 649 647 649 661 624 c 2,15,-1
 998 0 l 1,16,-1
 845 0 l 2,17,18
 812 0 812 0 798.5 10 c 128,-1,19
 785 20 785 20 775 37 c 2,20,-1
 485 560 l 2,21,22
 472 583 472 583 455 592.5 c 128,-1,23
 438 602 438 602 402 602 c 2,24,-1
 335 602 l 1,25,-1
 261 0 l 1,26,-1
 86 0 l 1,27,-1
 247 1315 l 1,28,-1
 423 1315 l 1,29,-1
 352 738 l 1,0,-1
EndSplineSet
Substitution2: "sous-table 'sups' Exposant lookups25" K.superior
Position2: "sous-table 'cpsp' Chasses pour composition en capitales lookups0" dx=40 dy=0 dh=80 dv=0
EndChar

StartChar: L
Encoding: 76 76 21
Width: 861
GlyphClass: 2
Flags: W
LayerCount: 2
Fore
SplineSet
281 148 m 1,0,-1
 792 148 l 1,1,-1
 774 0 l 1,2,-1
 86 0 l 1,3,-1
 248 1314 l 1,4,-1
 424 1314 l 1,5,-1
 281 148 l 1,0,-1
EndSplineSet
Substitution2: "sous-table 'sups' Exposant lookups25" L.superior
Position2: "sous-table 'cpsp' Chasses pour composition en capitales lookups0" dx=40 dy=0 dh=80 dv=0
EndChar

StartChar: Lslash
Encoding: 321 321 22
Width: 880
GlyphClass: 2
Flags: W
LayerCount: 2
Fore
SplineSet
400 746 m 1,0,-1
 715 917 l 1,1,-1
 700 800 l 2,2,3
 697 773 697 773 672 759 c 2,4,-1
 382 599 l 1,5,-1
 327 148 l 1,6,-1
 838 148 l 1,7,-1
 820 0 l 1,8,-1
 132 0 l 1,9,-1
 195 509 l 1,10,-1
 24 421 l 1,11,-1
 39 541 l 2,12,13
 42 564 42 564 66 578 c 2,14,-1
 213 655 l 1,15,-1
 294 1314 l 1,16,-1
 470 1314 l 1,17,-1
 400 746 l 1,0,-1
EndSplineSet
Position2: "sous-table 'cpsp' Chasses pour composition en capitales lookups0" dx=40 dy=0 dh=80 dv=0
EndChar

StartChar: Lcaron
Encoding: 317 317 23
Width: 866
GlyphClass: 2
Flags: W
LayerCount: 2
Fore
SplineSet
219 148 m 1,0,-1
 730 148 l 1,1,-1
 712 0 l 1,2,-1
 24 0 l 1,3,-1
 186 1314 l 1,4,-1
 362 1314 l 1,5,-1
 219 148 l 1,0,-1
767 1352 m 2,6,7
 783 1352 783 1352 788 1344.5 c 128,-1,8
 793 1337 793 1337 793 1327 c 0,9,10
 793 1318 793 1318 789.5 1305 c 128,-1,11
 786 1292 786 1292 775.5 1265.5 c 128,-1,12
 765 1239 765 1239 745 1196 c 128,-1,13
 725 1153 725 1153 692 1086 c 0,14,15
 681 1065 681 1065 667 1059 c 128,-1,16
 653 1053 653 1053 630 1053 c 2,17,-1
 574 1053 l 1,18,-1
 660 1352 l 1,19,-1
 767 1352 l 2,6,7
EndSplineSet
Position2: "sous-table 'cpsp' Chasses pour composition en capitales lookups0" dx=40 dy=0 dh=80 dv=0
EndChar

StartChar: M
Encoding: 77 77 24
Width: 1751
GlyphClass: 2
Flags: W
LayerCount: 2
Fore
SplineSet
839 462 m 1,0,1
 846 444 846 444 851.5 426 c 128,-1,2
 857 408 857 408 862 388 c 1,3,4
 878 427 878 427 901 463 c 2,5,-1
 1488 1282 l 2,6,7
 1502 1303 1502 1303 1514 1308.5 c 128,-1,8
 1526 1314 1526 1314 1550 1314 c 2,9,-1
 1679 1314 l 1,10,-1
 1518 0 l 1,11,-1
 1362 0 l 1,12,-1
 1487 964 l 2,13,14
 1489 985 1489 985 1494 1011.5 c 128,-1,15
 1499 1038 1499 1038 1505 1064 c 1,16,-1
 923 230 l 2,17,18
 899 191 899 191 855 191 c 2,19,-1
 830 191 l 2,20,21
 785 191 785 191 769 230 c 2,22,-1
 388 1063 l 1,23,24
 387 1037 387 1037 386 1012.5 c 128,-1,25
 385 988 385 988 383 968 c 2,26,-1
 262 0 l 1,27,-1
 107 0 l 1,28,-1
 268 1314 l 1,29,-1
 396 1314 l 2,30,31
 420 1314 420 1314 431 1308 c 128,-1,32
 442 1302 442 1302 456 1283 c 1,33,-1
 839 462 l 1,34,-1
 839 462 l 1,0,1
EndSplineSet
Substitution2: "sous-table 'sups' Exposant lookups25" M.superior
Position2: "sous-table 'cpsp' Chasses pour composition en capitales lookups0" dx=40 dy=0 dh=80 dv=0
EndChar

StartChar: N
Encoding: 78 78 25
Width: 1320
GlyphClass: 2
Flags: W
LayerCount: 2
Fore
SplineSet
345 1314 m 1,0,1
 368 1314 368 1314 379 1309 c 128,-1,2
 390 1304 390 1304 401 1284 c 2,3,-1
 993 287 l 1,4,5
 995 308 995 308 996.5 327.5 c 128,-1,6
 998 347 998 347 1000 364 c 2,7,-1
 1118 1314 l 1,8,-1
 1274 1314 l 1,9,-1
 1113 0 l 1,10,-1
 1024 0 l 2,11,12
 1003 0 1003 0 989 8 c 128,-1,13
 975 16 975 16 964 34 c 2,14,-1
 371 1031 l 1,15,16
 370 1014 370 1014 369 997 c 128,-1,17
 368 980 368 980 366 966 c 2,18,-1
 247 0 l 1,19,-1
 92 0 l 1,20,-1
 254 1314 l 1,21,-1
 345 1314 l 1,22,-1
 345 1314 l 1,0,1
EndSplineSet
Substitution2: "sous-table 'sups' Exposant lookups25" N.superior
Position2: "sous-table 'cpsp' Chasses pour composition en capitales lookups0" dx=40 dy=0 dh=80 dv=0
EndChar

StartChar: Eng
Encoding: 330 330 26
Width: 1284
GlyphClass: 2
Flags: W
LayerCount: 2
Fore
SplineSet
369 1314 m 1,0,1
 392 1314 392 1314 403 1308 c 128,-1,2
 414 1302 414 1302 425 1282 c 2,3,-1
 997 292 l 1,4,5
 998 315 998 315 1000 337 c 128,-1,6
 1002 359 1002 359 1004 379 c 2,7,-1
 1119 1314 l 1,8,-1
 1273 1314 l 1,9,-1
 1118 43 l 1,10,-1
 1117 43 l 1,11,-1
 1113 5 l 2,12,13
 1104 -70 1104 -70 1080.5 -131 c 128,-1,14
 1057 -192 1057 -192 1017.5 -236 c 128,-1,15
 978 -280 978 -280 921.5 -304 c 128,-1,16
 865 -328 865 -328 790 -328 c 0,17,18
 748 -328 748 -328 715 -320 c 128,-1,19
 682 -312 682 -312 646 -295 c 1,20,-1
 673 -226 l 2,21,22
 681 -206 681 -206 691.5 -199.5 c 128,-1,23
 702 -193 702 -193 713 -193 c 256,24,25
 724 -193 724 -193 741 -200 c 128,-1,26
 758 -207 758 -207 790 -207 c 0,27,28
 931 -207 931 -207 955 -13 c 2,29,-1
 961 38 l 1,30,-1
 394 1021 l 1,31,32
 393 999 393 999 391.5 978.5 c 128,-1,33
 390 958 390 958 388 941 c 2,34,-1
 271 0 l 1,35,-1
 117 0 l 1,36,-1
 279 1314 l 1,37,-1
 369 1314 l 1,38,-1
 369 1314 l 1,0,1
EndSplineSet
Substitution2: "sous-table 'ss03' Style 3 lookups33" Eng.ss03
Substitution2: "sous-table 'ss02' Style 2 lookups31" Eng.ss02
Substitution2: "sous-table 'ss01' Style 1 lookups29" Eng.ss01
Position2: "sous-table 'cpsp' Chasses pour composition en capitales lookups0" dx=40 dy=0 dh=80 dv=0
EndChar

StartChar: O
Encoding: 79 79 27
Width: 1340
GlyphClass: 2
Flags: W
LayerCount: 2
Fore
SplineSet
1303 751 m 0,0,1
 1303 639 1303 639 1279.5 539 c 128,-1,2
 1256 439 1256 439 1212 354 c 128,-1,3
 1168 269 1168 269 1106 201 c 128,-1,4
 1044 133 1044 133 967.5 85 c 128,-1,5
 891 37 891 37 801.5 11.5 c 128,-1,6
 712 -14 712 -14 613 -14 c 0,7,8
 492 -14 492 -14 395 29 c 128,-1,9
 298 72 298 72 230.5 149 c 128,-1,10
 163 226 163 226 126.5 331.5 c 128,-1,11
 90 437 90 437 90 563 c 0,12,13
 90 730 90 730 142.5 870.5 c 128,-1,14
 195 1011 195 1011 287 1113 c 128,-1,15
 379 1215 379 1215 505.5 1272 c 128,-1,16
 632 1329 632 1329 779 1329 c 0,17,18
 900 1329 900 1329 997 1285.5 c 128,-1,19
 1094 1242 1094 1242 1162 1165 c 128,-1,20
 1230 1088 1230 1088 1266.5 982 c 128,-1,21
 1303 876 1303 876 1303 751 c 0,0,1
1121 747 m 0,22,23
 1121 846 1121 846 1096 926.5 c 128,-1,24
 1071 1007 1071 1007 1024 1063.5 c 128,-1,25
 977 1120 977 1120 909.5 1151 c 128,-1,26
 842 1182 842 1182 757 1182 c 0,27,28
 650 1182 650 1182 560.5 1138.5 c 128,-1,29
 471 1095 471 1095 406.5 1014.5 c 128,-1,30
 342 934 342 934 306 820.5 c 128,-1,31
 270 707 270 707 270 567 c 0,32,33
 270 468 270 468 295 388 c 128,-1,34
 320 308 320 308 367 251 c 128,-1,35
 414 194 414 194 481.5 163.5 c 128,-1,36
 549 133 549 133 633 133 c 0,37,38
 741 133 741 133 830.5 176 c 128,-1,39
 920 219 920 219 984.5 299 c 128,-1,40
 1049 379 1049 379 1085 492.5 c 128,-1,41
 1121 606 1121 606 1121 747 c 0,22,23
EndSplineSet
Substitution2: "sous-table 'sups' Exposant lookups25" O.superior
Position2: "sous-table 'cpsp' Chasses pour composition en capitales lookups0" dx=40 dy=0 dh=80 dv=0
EndChar

StartChar: Oslash
Encoding: 216 216 28
Width: 1347
GlyphClass: 2
Flags: W
LayerCount: 2
Fore
SplineSet
1305 751 m 0,0,1
 1305 639 1305 639 1281.5 539 c 128,-1,2
 1258 439 1258 439 1214 354 c 128,-1,3
 1170 269 1170 269 1108 201 c 128,-1,4
 1046 133 1046 133 969.5 85 c 128,-1,5
 893 37 893 37 803.5 11.5 c 128,-1,6
 714 -14 714 -14 615 -14 c 0,7,8
 526 -14 526 -14 451 9 c 128,-1,9
 376 32 376 32 315 74 c 1,10,-1
 217 -49 l 2,11,12
 194 -77 194 -77 166.5 -88.5 c 128,-1,13
 139 -100 139 -100 113 -100 c 2,14,-1
 42 -100 l 1,15,-1
 237 144 l 1,16,17
 167 221 167 221 129.5 327.5 c 128,-1,18
 92 434 92 434 92 563 c 0,19,20
 92 730 92 730 144.5 870.5 c 128,-1,21
 197 1011 197 1011 289 1113 c 128,-1,22
 381 1215 381 1215 507.5 1272 c 128,-1,23
 634 1329 634 1329 781 1329 c 0,24,25
 877 1329 877 1329 957 1302 c 128,-1,26
 1037 1275 1037 1275 1100 1224 c 1,27,-1
 1182 1326 l 2,28,29
 1202 1352 1202 1352 1217.5 1362.5 c 128,-1,30
 1233 1373 1233 1373 1263 1373 c 2,31,-1
 1354 1373 l 1,32,-1
 1176 1150 l 1,33,34
 1239 1074 1239 1074 1272 972.5 c 128,-1,35
 1305 871 1305 871 1305 751 c 0,0,1
272 567 m 0,36,37
 272 479 272 479 291 407.5 c 128,-1,38
 310 336 310 336 346 281 c 1,39,-1
 996 1094 l 1,40,41
 951 1137 951 1137 891 1159.5 c 128,-1,42
 831 1182 831 1182 759 1182 c 0,43,44
 652 1182 652 1182 562.5 1138.5 c 128,-1,45
 473 1095 473 1095 408.5 1014.5 c 128,-1,46
 344 934 344 934 308 820.5 c 128,-1,47
 272 707 272 707 272 567 c 0,36,37
1123 747 m 0,48,49
 1123 825 1123 825 1107.5 890.5 c 128,-1,50
 1092 956 1092 956 1063 1009 c 1,51,-1
 418 203 l 1,52,53
 506 133 506 133 635 133 c 0,54,55
 743 133 743 133 832.5 176 c 128,-1,56
 922 219 922 219 986.5 299 c 128,-1,57
 1051 379 1051 379 1087 492.5 c 128,-1,58
 1123 606 1123 606 1123 747 c 0,48,49
EndSplineSet
Position2: "sous-table 'cpsp' Chasses pour composition en capitales lookups0" dx=40 dy=0 dh=80 dv=0
EndChar

StartChar: OE
Encoding: 338 338 29
Width: 1775
GlyphClass: 2
Flags: W
LayerCount: 2
Fore
SplineSet
1785 1172 m 1,0,-1
 1238 1172 l 1,1,-1
 1184 731 l 1,2,-1
 1623 731 l 1,3,-1
 1606 593 l 1,4,-1
 1167 593 l 1,5,-1
 1112 142 l 1,6,-1
 1659 142 l 1,7,-1
 1640 0 l 1,8,-1
 937 0 l 1,9,-1
 961 197 l 1,10,11
 882 97 882 97 774 42 c 128,-1,12
 666 -13 666 -13 536 -13 c 0,13,14
 432 -13 432 -13 348.5 29 c 128,-1,15
 265 71 265 71 207 146 c 128,-1,16
 149 221 149 221 118 324.5 c 128,-1,17
 87 428 87 428 87 551 c 0,18,19
 87 720 87 720 133.5 863 c 128,-1,20
 180 1006 180 1006 262.5 1109.5 c 128,-1,21
 345 1213 345 1213 456.5 1271 c 128,-1,22
 568 1329 568 1329 699 1329 c 256,23,24
 830 1329 830 1329 924 1264 c 128,-1,25
 1018 1199 1018 1199 1071 1088 c 1,26,-1
 1099 1314 l 1,27,-1
 1802 1314 l 1,28,-1
 1785 1172 l 1,0,-1
1003 758 m 0,29,30
 1003 854 1003 854 983 933.5 c 128,-1,31
 963 1013 963 1013 924 1069 c 128,-1,32
 885 1125 885 1125 829 1156 c 128,-1,33
 773 1187 773 1187 701 1187 c 0,34,35
 605 1187 605 1187 525.5 1141.5 c 128,-1,36
 446 1096 446 1096 388.5 1013 c 128,-1,37
 331 930 331 930 299 813.5 c 128,-1,38
 267 697 267 697 267 556 c 0,39,40
 267 459 267 459 287.5 380.5 c 128,-1,41
 308 302 308 302 347 246 c 128,-1,42
 386 190 386 190 443 159.5 c 128,-1,43
 500 129 500 129 572 129 c 0,44,45
 668 129 668 129 747 174 c 128,-1,46
 826 219 826 219 883 301.5 c 128,-1,47
 940 384 940 384 971.5 500 c 128,-1,48
 1003 616 1003 616 1003 758 c 0,29,30
EndSplineSet
Position2: "sous-table 'cpsp' Chasses pour composition en capitales lookups0" dx=40 dy=0 dh=80 dv=0
EndChar

StartChar: P
Encoding: 80 80 30
Width: 1058
GlyphClass: 2
Flags: W
LayerCount: 2
Fore
SplineSet
341 492 m 1,0,-1
 281 0 l 1,1,-1
 106 0 l 1,2,-1
 267 1314 l 1,3,-1
 638 1314 l 2,4,5
 745 1314 745 1314 824 1289 c 128,-1,6
 903 1264 903 1264 954.5 1218 c 128,-1,7
 1006 1172 1006 1172 1031 1107.5 c 128,-1,8
 1056 1043 1056 1043 1056 964 c 0,9,10
 1056 861 1056 861 1021.5 774.5 c 128,-1,11
 987 688 987 688 921 625 c 128,-1,12
 855 562 855 562 758 527 c 128,-1,13
 661 492 661 492 536 492 c 2,14,-1
 341 492 l 1,0,-1
426 1177 m 1,15,-1
 358 630 l 1,16,-1
 553 630 l 2,17,18
 632 630 632 630 693 654 c 128,-1,19
 754 678 754 678 795 720 c 128,-1,20
 836 762 836 762 857.5 820.5 c 128,-1,21
 879 879 879 879 879 948 c 0,22,23
 879 1054 879 1054 815.5 1115.5 c 128,-1,24
 752 1177 752 1177 621 1177 c 2,25,-1
 426 1177 l 1,15,-1
EndSplineSet
Substitution2: "sous-table 'sups' Exposant lookups25" P.superior
Position2: "sous-table 'cpsp' Chasses pour composition en capitales lookups0" dx=40 dy=0 dh=80 dv=0
EndChar

StartChar: Thorn
Encoding: 222 222 31
Width: 1058
GlyphClass: 2
Flags: W
LayerCount: 2
Fore
SplineSet
470 1070 m 1,0,-1
 665 1070 l 2,1,2
 772 1070 772 1070 851 1045 c 128,-1,3
 930 1020 930 1020 981.5 974.5 c 128,-1,4
 1033 929 1033 929 1058.5 865 c 128,-1,5
 1084 801 1084 801 1084 722 c 0,6,7
 1084 618 1084 618 1049.5 531.5 c 128,-1,8
 1015 445 1015 445 948.5 382.5 c 128,-1,9
 882 320 882 320 785.5 285 c 128,-1,10
 689 250 689 250 565 250 c 2,11,-1
 369 250 l 1,12,-1
 338 0 l 1,13,-1
 163 0 l 1,14,-1
 324 1314 l 1,15,-1
 500 1314 l 1,16,-1
 470 1070 l 1,0,-1
453 932 m 1,17,-1
 386 388 l 1,18,-1
 582 388 l 2,19,20
 661 388 661 388 721.5 412 c 128,-1,21
 782 436 782 436 823 478 c 128,-1,22
 864 520 864 520 885.5 578.5 c 128,-1,23
 907 637 907 637 907 706 c 0,24,25
 907 812 907 812 843.5 872 c 128,-1,26
 780 932 780 932 647 932 c 2,27,-1
 453 932 l 1,17,-1
EndSplineSet
Position2: "sous-table 'cpsp' Chasses pour composition en capitales lookups0" dx=40 dy=0 dh=80 dv=0
EndChar

StartChar: Q
Encoding: 81 81 32
Width: 1360
GlyphClass: 2
Flags: W
LayerCount: 2
Fore
SplineSet
1311 751 m 0,0,1
 1311 640 1311 640 1287.5 540.5 c 128,-1,2
 1264 441 1264 441 1221 356.5 c 128,-1,3
 1178 272 1178 272 1117 204 c 128,-1,4
 1056 136 1056 136 980 88 c 1,5,-1
 1249 -272 l 1,6,-1
 1106 -272 l 2,7,8
 1074 -272 1074 -272 1049.5 -262.5 c 128,-1,9
 1025 -253 1025 -253 1008 -230 c 2,10,-1
 827 17 l 1,11,12
 778 2 778 2 726.5 -6 c 128,-1,13
 675 -14 675 -14 621 -14 c 0,14,15
 500 -14 500 -14 403 29 c 128,-1,16
 306 72 306 72 238.5 149 c 128,-1,17
 171 226 171 226 134.5 331.5 c 128,-1,18
 98 437 98 437 98 563 c 0,19,20
 98 730 98 730 150.5 870.5 c 128,-1,21
 203 1011 203 1011 295 1113 c 128,-1,22
 387 1215 387 1215 513.5 1272 c 128,-1,23
 640 1329 640 1329 787 1329 c 0,24,25
 908 1329 908 1329 1005 1285.5 c 128,-1,26
 1102 1242 1102 1242 1170 1165 c 128,-1,27
 1238 1088 1238 1088 1274.5 982 c 128,-1,28
 1311 876 1311 876 1311 751 c 0,0,1
1129 747 m 0,29,30
 1129 846 1129 846 1104 926.5 c 128,-1,31
 1079 1007 1079 1007 1032 1063.5 c 128,-1,32
 985 1120 985 1120 917.5 1151 c 128,-1,33
 850 1182 850 1182 765 1182 c 0,34,35
 658 1182 658 1182 568.5 1138.5 c 128,-1,36
 479 1095 479 1095 414.5 1014.5 c 128,-1,37
 350 934 350 934 314 820.5 c 128,-1,38
 278 707 278 707 278 567 c 0,39,40
 278 468 278 468 303 388 c 128,-1,41
 328 308 328 308 375 251 c 128,-1,42
 422 194 422 194 489.5 163.5 c 128,-1,43
 557 133 557 133 641 133 c 0,44,45
 749 133 749 133 838.5 176 c 128,-1,46
 928 219 928 219 992.5 299 c 128,-1,47
 1057 379 1057 379 1093 492.5 c 128,-1,48
 1129 606 1129 606 1129 747 c 0,29,30
EndSplineSet
Substitution2: "sous-table 'sups' Exposant lookups25" Q.superior
Position2: "sous-table 'cpsp' Chasses pour composition en capitales lookups0" dx=40 dy=0 dh=80 dv=0
EndChar

StartChar: R
Encoding: 82 82 33
Width: 1112
GlyphClass: 2
Flags: W
LayerCount: 2
Fore
SplineSet
348 550 m 1,0,-1
 281 0 l 1,1,-1
 106 0 l 1,2,-1
 267 1314 l 1,3,-1
 621 1314 l 2,4,5
 728 1314 728 1314 806.5 1292 c 128,-1,6
 885 1270 885 1270 936 1228.5 c 128,-1,7
 987 1187 987 1187 1011.5 1129 c 128,-1,8
 1036 1071 1036 1071 1036 999 c 0,9,10
 1036 920 1036 920 1011.5 851.5 c 128,-1,11
 987 783 987 783 942 728.5 c 128,-1,12
 897 674 897 674 832.5 635.5 c 128,-1,13
 768 597 768 597 687 578 c 1,14,15
 718 556 718 556 738 522 c 2,16,-1
 1027 0 l 1,17,-1
 870 0 l 2,18,19
 824 0 824 0 803 38 c 2,20,-1
 551 508 l 2,21,22
 540 531 540 531 523.5 540.5 c 128,-1,23
 507 550 507 550 472 550 c 2,24,-1
 348 550 l 1,0,-1
425 1177 m 1,25,-1
 364 677 l 1,26,-1
 535 677 l 2,27,28
 614 677 614 677 675 699 c 128,-1,29
 736 721 736 721 777.5 760.5 c 128,-1,30
 819 800 819 800 840 854 c 128,-1,31
 861 908 861 908 861 972 c 0,32,33
 861 1072 861 1072 796.5 1124.5 c 128,-1,34
 732 1177 732 1177 604 1177 c 2,35,-1
 425 1177 l 1,25,-1
EndSplineSet
Substitution2: "sous-table 'sups' Exposant lookups25" R.superior
Position2: "sous-table 'cpsp' Chasses pour composition en capitales lookups0" dx=40 dy=0 dh=80 dv=0
EndChar

StartChar: S
Encoding: 83 83 34
Width: 926
GlyphClass: 2
Flags: W
LayerCount: 2
Fore
SplineSet
873 1109 m 2,0,1
 863 1095 863 1095 853.5 1088.5 c 128,-1,2
 844 1082 844 1082 830 1082 c 0,3,4
 814 1082 814 1082 796 1098 c 128,-1,5
 778 1114 778 1114 750.5 1132.5 c 128,-1,6
 723 1151 723 1151 682.5 1167 c 128,-1,7
 642 1183 642 1183 582 1183 c 0,8,9
 521 1183 521 1183 474 1165 c 128,-1,10
 427 1147 427 1147 394.5 1116 c 128,-1,11
 362 1085 362 1085 345 1043.5 c 128,-1,12
 328 1002 328 1002 328 954 c 256,13,14
 328 906 328 906 351 871 c 128,-1,15
 374 836 374 836 411 809 c 128,-1,16
 448 782 448 782 496 760 c 128,-1,17
 544 738 544 738 593.5 716.5 c 128,-1,18
 643 695 643 695 691 671 c 128,-1,19
 739 647 739 647 776 615 c 128,-1,20
 813 583 813 583 836 541 c 128,-1,21
 859 499 859 499 859 442 c 0,22,23
 859 349 859 349 826 266 c 128,-1,24
 793 183 793 183 731.5 121 c 128,-1,25
 670 59 670 59 582 22.5 c 128,-1,26
 494 -14 494 -14 385 -14 c 0,27,28
 264 -14 264 -14 168.5 32.5 c 128,-1,29
 73 79 73 79 11 158 c 1,30,-1
 73 241 l 2,31,32
 81 252 81 252 92.5 258 c 128,-1,33
 104 264 104 264 116 264 c 256,34,35
 128 264 128 264 141.5 254 c 128,-1,36
 155 244 155 244 171 229.5 c 128,-1,37
 187 215 187 215 208.5 197.5 c 128,-1,38
 230 180 230 180 258 165.5 c 128,-1,39
 286 151 286 151 322.5 141 c 128,-1,40
 359 131 359 131 407 131 c 0,41,42
 472 131 472 131 524.5 150.5 c 128,-1,43
 577 170 577 170 613.5 205.5 c 128,-1,44
 650 241 650 241 669.5 290.5 c 128,-1,45
 689 340 689 340 689 400 c 0,46,47
 689 450 689 450 666.5 483.5 c 128,-1,48
 644 517 644 517 606.5 540.5 c 128,-1,49
 569 564 569 564 521.5 581.5 c 128,-1,50
 474 599 474 599 424.5 617 c 128,-1,51
 375 635 375 635 328 657.5 c 128,-1,52
 281 680 281 680 243.5 714 c 128,-1,53
 206 748 206 748 183.5 797 c 128,-1,54
 161 846 161 846 161 917 c 0,55,56
 161 998 161 998 191 1072 c 128,-1,57
 221 1146 221 1146 277.5 1202.5 c 128,-1,58
 334 1259 334 1259 415.5 1293 c 128,-1,59
 497 1327 497 1327 599 1327 c 0,60,61
 703 1327 703 1327 786.5 1288.5 c 128,-1,62
 870 1250 870 1250 925 1183 c 1,63,-1
 873 1109 l 2,0,1
EndSplineSet
Substitution2: "sous-table 'sups' Exposant lookups25" S.superior
Position2: "sous-table 'cpsp' Chasses pour composition en capitales lookups0" dx=40 dy=0 dh=80 dv=0
EndChar

StartChar: Scedilla
Encoding: 350 350 35
Width: 926
GlyphClass: 2
Flags: W
LayerCount: 2
Fore
SplineSet
274 -237 m 0,0,1
 280 -237 280 -237 286.5 -240.5 c 128,-1,2
 293 -244 293 -244 302 -248.5 c 128,-1,3
 311 -253 311 -253 324 -256.5 c 128,-1,4
 337 -260 337 -260 355 -260 c 0,5,6
 393 -260 393 -260 414 -241 c 128,-1,7
 435 -222 435 -222 435 -194 c 0,8,9
 435 -161 435 -161 401 -147 c 128,-1,10
 367 -133 367 -133 303 -124 c 1,11,-1
 347 -13 l 1,12,13
 238 -5 238 -5 153 40 c 128,-1,14
 68 85 68 85 11 158 c 1,15,-1
 73 241 l 2,16,17
 81 252 81 252 92.5 258 c 128,-1,18
 104 264 104 264 116 264 c 256,19,20
 128 264 128 264 141.5 254 c 128,-1,21
 155 244 155 244 171 229.5 c 128,-1,22
 187 215 187 215 208.5 197.5 c 128,-1,23
 230 180 230 180 258 165.5 c 128,-1,24
 286 151 286 151 322.5 141 c 128,-1,25
 359 131 359 131 407 131 c 0,26,27
 472 131 472 131 524.5 150.5 c 128,-1,28
 577 170 577 170 613.5 205.5 c 128,-1,29
 650 241 650 241 669.5 290.5 c 128,-1,30
 689 340 689 340 689 400 c 0,31,32
 689 450 689 450 666.5 483.5 c 128,-1,33
 644 517 644 517 606.5 540.5 c 128,-1,34
 569 564 569 564 521.5 581.5 c 128,-1,35
 474 599 474 599 424.5 617 c 128,-1,36
 375 635 375 635 328 657.5 c 128,-1,37
 281 680 281 680 243.5 714 c 128,-1,38
 206 748 206 748 183.5 797 c 128,-1,39
 161 846 161 846 161 917 c 0,40,41
 161 998 161 998 191 1072 c 128,-1,42
 221 1146 221 1146 277.5 1202.5 c 128,-1,43
 334 1259 334 1259 415.5 1293 c 128,-1,44
 497 1327 497 1327 599 1327 c 0,45,46
 703 1327 703 1327 786.5 1288.5 c 128,-1,47
 870 1250 870 1250 925 1183 c 1,48,-1
 873 1109 l 2,49,50
 863 1095 863 1095 853.5 1088.5 c 128,-1,51
 844 1082 844 1082 830 1082 c 0,52,53
 814 1082 814 1082 796 1098 c 128,-1,54
 778 1114 778 1114 750.5 1132.5 c 128,-1,55
 723 1151 723 1151 682.5 1167 c 128,-1,56
 642 1183 642 1183 582 1183 c 0,57,58
 521 1183 521 1183 474 1165 c 128,-1,59
 427 1147 427 1147 394.5 1116 c 128,-1,60
 362 1085 362 1085 345 1043.5 c 128,-1,61
 328 1002 328 1002 328 954 c 256,62,63
 328 906 328 906 351 871 c 128,-1,64
 374 836 374 836 411 809 c 128,-1,65
 448 782 448 782 496 760 c 128,-1,66
 544 738 544 738 593.5 716.5 c 128,-1,67
 643 695 643 695 691 671 c 128,-1,68
 739 647 739 647 776 615 c 128,-1,69
 813 583 813 583 836 541 c 128,-1,70
 859 499 859 499 859 442 c 0,71,72
 859 357 859 357 831 280 c 128,-1,73
 803 203 803 203 751 142.5 c 128,-1,74
 699 82 699 82 624.5 42 c 128,-1,75
 550 2 550 2 456 -9 c 1,76,-1
 434 -66 l 1,77,78
 504 -83 504 -83 536.5 -113 c 128,-1,79
 569 -143 569 -143 569 -188 c 0,80,81
 569 -223 569 -223 553 -250 c 128,-1,82
 537 -277 537 -277 508.5 -296.5 c 128,-1,83
 480 -316 480 -316 440.5 -326 c 128,-1,84
 401 -336 401 -336 355 -336 c 0,85,86
 319 -336 319 -336 286.5 -327.5 c 128,-1,87
 254 -319 254 -319 228 -305 c 1,88,-1
 251 -253 l 2,89,90
 255 -245 255 -245 260 -241 c 128,-1,91
 265 -237 265 -237 274 -237 c 0,0,1
EndSplineSet
Substitution2: "sous-table 'salt' Alternatives stylistiques dans Latin lookup 8" uni0218
Position2: "sous-table 'cpsp' Chasses pour composition en capitales lookups0" dx=40 dy=0 dh=80 dv=0
EndChar

StartChar: T
Encoding: 84 84 36
Width: 998
GlyphClass: 2
Flags: W
LayerCount: 2
Fore
SplineSet
1080 1314 m 1,0,-1
 1062 1167 l 1,1,-1
 675 1167 l 1,2,-1
 532 0 l 1,3,-1
 357 0 l 1,4,-1
 499 1167 l 1,5,-1
 112 1167 l 1,6,-1
 129 1314 l 1,7,-1
 1080 1314 l 1,0,-1
EndSplineSet
Substitution2: "sous-table 'sups' Exposant lookups25" T.superior
Position2: "sous-table 'cpsp' Chasses pour composition en capitales lookups0" dx=40 dy=0 dh=80 dv=0
EndChar

StartChar: Tbar
Encoding: 358 358 37
Width: 998
GlyphClass: 2
Flags: W
LayerCount: 2
Fore
SplineSet
1062 1167 m 1,0,-1
 675 1167 l 1,1,-1
 627 781 l 1,2,-1
 901 781 l 1,3,-1
 890 678 l 1,4,-1
 615 678 l 1,5,-1
 532 0 l 1,6,-1
 357 0 l 1,7,-1
 439 678 l 1,8,-1
 166 678 l 1,9,-1
 178 781 l 1,10,-1
 452 781 l 1,11,-1
 499 1167 l 1,12,-1
 112 1167 l 1,13,-1
 129 1314 l 1,14,-1
 1080 1314 l 1,15,-1
 1062 1167 l 1,0,-1
EndSplineSet
Position2: "sous-table 'cpsp' Chasses pour composition en capitales lookups0" dx=40 dy=0 dh=80 dv=0
EndChar

StartChar: U
Encoding: 85 85 38
Width: 1314
GlyphClass: 2
Flags: W
LayerCount: 2
Fore
SplineSet
615 138 m 256,0,1
 695 138 695 138 761.5 166 c 128,-1,2
 828 194 828 194 878 244 c 128,-1,3
 928 294 928 294 959.5 363 c 128,-1,4
 991 432 991 432 1001 514 c 2,5,-1
 1100 1314 l 1,6,-1
 1277 1314 l 1,7,-1
 1178 514 l 2,8,9
 1164 401 1164 401 1116.5 304 c 128,-1,10
 1069 207 1069 207 993.5 136 c 128,-1,11
 918 65 918 65 817.5 25 c 128,-1,12
 717 -15 717 -15 597 -15 c 0,13,14
 478 -15 478 -15 388 25 c 128,-1,15
 298 65 298 65 240 136 c 128,-1,16
 182 207 182 207 158 304 c 128,-1,17
 134 401 134 401 148 514 c 2,18,-1
 245 1314 l 1,19,-1
 421 1314 l 1,20,-1
 324 515 l 2,21,22
 313 433 313 433 327.5 364 c 128,-1,23
 342 295 342 295 379 244.5 c 128,-1,24
 416 194 416 194 475.5 166 c 128,-1,25
 535 138 535 138 615 138 c 256,0,1
EndSplineSet
Substitution2: "sous-table 'sups' Exposant lookups25" U.superior
Position2: "sous-table 'cpsp' Chasses pour composition en capitales lookups0" dx=40 dy=0 dh=80 dv=0
EndChar

StartChar: Uogonek
Encoding: 370 370 39
Width: 1314
GlyphClass: 2
Flags: W
LayerCount: 2
Fore
SplineSet
732 -202 m 0,0,1
 746 -202 746 -202 749 -214 c 2,2,-1
 767 -277 l 1,3,4
 737 -299 737 -299 694 -313 c 128,-1,5
 651 -327 651 -327 605 -327 c 0,6,7
 531 -327 531 -327 491 -293.5 c 128,-1,8
 451 -260 451 -260 451 -204 c 0,9,10
 451 -149 451 -149 484.5 -100.5 c 128,-1,11
 518 -52 518 -52 572 -14 c 1,12,13
 459 -10 459 -10 373.5 31.5 c 128,-1,14
 288 73 288 73 233.5 143.5 c 128,-1,15
 179 214 179 214 156.5 309 c 128,-1,16
 134 404 134 404 148 514 c 2,17,-1
 245 1314 l 1,18,-1
 421 1314 l 1,19,-1
 324 515 l 2,20,21
 313 433 313 433 327.5 364 c 128,-1,22
 342 295 342 295 379 244.5 c 128,-1,23
 416 194 416 194 475.5 166 c 128,-1,24
 535 138 535 138 615 138 c 256,25,26
 695 138 695 138 761.5 166 c 128,-1,27
 828 194 828 194 878 244 c 128,-1,28
 928 294 928 294 959.5 363 c 128,-1,29
 991 432 991 432 1001 514 c 2,30,-1
 1100 1314 l 1,31,-1
 1277 1314 l 1,32,-1
 1178 514 l 2,33,34
 1165 411 1165 411 1124.5 322 c 128,-1,35
 1084 233 1084 233 1020 164 c 128,-1,36
 956 95 956 95 871 50 c 128,-1,37
 786 5 786 5 684 -9 c 1,38,39
 666 -21 666 -21 647.5 -36.5 c 128,-1,40
 629 -52 629 -52 615 -70.5 c 128,-1,41
 601 -89 601 -89 592 -111 c 128,-1,42
 583 -133 583 -133 583 -157 c 0,43,44
 583 -188 583 -188 601.5 -206.5 c 128,-1,45
 620 -225 620 -225 651 -225 c 0,46,47
 671 -225 671 -225 685 -221.5 c 128,-1,48
 699 -218 699 -218 708 -213.5 c 128,-1,49
 717 -209 717 -209 722.5 -205.5 c 128,-1,50
 728 -202 728 -202 732 -202 c 0,0,1
EndSplineSet
Position2: "sous-table 'cpsp' Chasses pour composition en capitales lookups0" dx=40 dy=0 dh=80 dv=0
EndChar

StartChar: V
Encoding: 86 86 40
Width: 1162
GlyphClass: 2
Flags: W
LayerCount: 2
Fore
SplineSet
113 1314 m 1,0,-1
 254 1314 l 2,1,2
 277 1314 277 1314 291 1302 c 128,-1,3
 305 1290 305 1290 309 1273 c 2,4,-1
 528 341 l 2,5,6
 535 311 535 311 541.5 275 c 128,-1,7
 548 239 548 239 553 201 c 1,8,9
 577 277 577 277 608 341 c 2,10,-1
 1054 1272 l 2,11,12
 1062 1288 1062 1288 1079.5 1301 c 128,-1,13
 1097 1314 1097 1314 1119 1314 c 2,14,-1
 1261 1314 l 1,15,-1
 606 0 l 1,16,-1
 447 0 l 1,17,-1
 113 1314 l 1,0,-1
EndSplineSet
Substitution2: "sous-table 'sups' Exposant lookups25" V.superior
Position2: "sous-table 'cpsp' Chasses pour composition en capitales lookups0" dx=40 dy=0 dh=80 dv=0
EndChar

StartChar: W
Encoding: 87 87 41
Width: 1823
GlyphClass: 2
Flags: W
LayerCount: 2
Fore
SplineSet
115 1314 m 1,0,-1
 254 1314 l 2,1,2
 277 1314 277 1314 291.5 1302.5 c 128,-1,3
 306 1291 306 1291 308 1273 c 2,4,-1
 462 349 l 2,5,6
 466 324 466 324 469 295.5 c 128,-1,7
 472 267 472 267 475 236 c 1,8,9
 484 268 484 268 494 296.5 c 128,-1,10
 504 325 504 325 515 350 c 2,11,-1
 929 1272 l 2,12,13
 936 1288 936 1288 953 1301 c 128,-1,14
 970 1314 970 1314 992 1314 c 2,15,-1
 1035 1314 l 2,16,17
 1057 1314 1057 1314 1071 1302.5 c 128,-1,18
 1085 1291 1085 1291 1088 1273 c 2,19,-1
 1272 349 l 2,20,21
 1277 326 1277 326 1280 298.5 c 128,-1,22
 1283 271 1283 271 1286 242 c 1,23,24
 1294 271 1294 271 1303.5 298 c 128,-1,25
 1313 325 1313 325 1322 348 c 2,26,-1
 1707 1272 l 2,27,28
 1713 1288 1713 1288 1732 1301 c 128,-1,29
 1751 1314 1751 1314 1774 1314 c 2,30,-1
 1913 1314 l 1,31,-1
 1352 0 l 1,32,-1
 1193 0 l 1,33,-1
 996 1006 l 2,34,35
 993 1020 993 1020 990.5 1037.5 c 128,-1,36
 988 1055 988 1055 986 1075 c 1,37,38
 972 1034 972 1034 960 1006 c 2,39,-1
 511 0 l 1,40,-1
 355 0 l 1,41,-1
 115 1314 l 1,0,-1
EndSplineSet
Substitution2: "sous-table 'sups' Exposant lookups25" W.superior
Position2: "sous-table 'cpsp' Chasses pour composition en capitales lookups0" dx=40 dy=0 dh=80 dv=0
EndChar

StartChar: X
Encoding: 88 88 42
Width: 1063
GlyphClass: 2
Flags: W
LayerCount: 2
Fore
SplineSet
442 702 m 1,0,-1
 150 1314 l 1,1,-1
 309 1314 l 2,2,3
 328 1314 328 1314 337 1308 c 128,-1,4
 346 1302 346 1302 351 1288 c 2,5,-1
 571 799 l 1,6,7
 575 807 575 807 579.5 814 c 128,-1,8
 584 821 584 821 590 829 c 2,9,-1
 904 1287 l 2,10,11
 922 1314 922 1314 947 1314 c 2,12,-1
 1130 1314 l 1,13,-1
 685 708 l 1,14,-1
 1014 0 l 1,15,-1
 856 0 l 2,16,17
 837 0 837 0 827 10.5 c 128,-1,18
 817 21 817 21 812 33 c 2,19,-1
 561 600 l 1,20,21
 555 589 555 589 547 577 c 2,22,-1
 172 33 l 2,23,24
 149 0 149 0 114 0 c 2,25,-1
 -62 0 l 1,26,-1
 442 702 l 1,0,-1
EndSplineSet
Substitution2: "sous-table 'sups' Exposant lookups25" X.superior
Position2: "sous-table 'cpsp' Chasses pour composition en capitales lookups0" dx=40 dy=0 dh=80 dv=0
EndChar

StartChar: Y
Encoding: 89 89 43
Width: 998
GlyphClass: 2
Flags: W
LayerCount: 2
Fore
SplineSet
601 526 m 1,0,-1
 536 0 l 1,1,-1
 359 0 l 1,2,-1
 424 525 l 1,3,-1
 112 1314 l 1,4,-1
 268 1314 l 2,5,6
 291 1314 291 1314 303.5 1303 c 128,-1,7
 316 1292 316 1292 324 1273 c 2,8,-1
 505 749 l 2,9,10
 524 700 524 700 533 652 c 1,11,12
 545 675 545 675 559 698.5 c 128,-1,13
 573 722 573 722 590 748 c 2,14,-1
 898 1273 l 2,15,16
 908 1288 908 1288 923.5 1301 c 128,-1,17
 939 1314 939 1314 961 1314 c 2,18,-1
 1107 1314 l 1,19,-1
 601 526 l 1,0,-1
EndSplineSet
Substitution2: "sous-table 'sups' Exposant lookups25" Y.superior
Position2: "sous-table 'cpsp' Chasses pour composition en capitales lookups0" dx=40 dy=0 dh=80 dv=0
EndChar

StartChar: Z
Encoding: 90 90 44
Width: 959
GlyphClass: 2
Flags: W
LayerCount: 2
Fore
SplineSet
1019 1314 m 1,0,-1
 1010 1258 l 2,1,2
 1008 1245 1008 1245 1002.5 1234.5 c 128,-1,3
 997 1224 997 1224 989 1213 c 2,4,-1
 254 142 l 1,5,-1
 865 142 l 1,6,-1
 845 0 l 1,7,-1
 7 0 l 1,8,-1
 15 55 l 2,9,10
 17 68 17 68 22.5 78 c 128,-1,11
 28 88 28 88 36 99 c 2,12,-1
 771 1172 l 1,13,-1
 182 1172 l 1,14,-1
 202 1314 l 1,15,-1
 1019 1314 l 1,0,-1
EndSplineSet
Substitution2: "sous-table 'sups' Exposant lookups25" Z.superior
Position2: "sous-table 'cpsp' Chasses pour composition en capitales lookups0" dx=40 dy=0 dh=80 dv=0
EndChar

StartChar: a
Encoding: 97 97 45
Width: 1053
GlyphClass: 2
Flags: W
LayerCount: 2
Fore
SplineSet
848 0 m 1,0,-1
 756 0 l 2,1,2
 721 0 721 0 709 17.5 c 128,-1,3
 697 35 697 35 699 60 c 2,4,-1
 717 268 l 1,5,6
 679 204 679 204 635.5 152 c 128,-1,7
 592 100 592 100 543.5 63 c 128,-1,8
 495 26 495 26 440.5 6 c 128,-1,9
 386 -14 386 -14 328 -14 c 0,10,11
 264 -14 264 -14 212.5 9 c 128,-1,12
 161 32 161 32 124.5 76.5 c 128,-1,13
 88 121 88 121 68.5 186.5 c 128,-1,14
 49 252 49 252 49 337 c 0,15,16
 49 423 49 423 72.5 505 c 128,-1,17
 96 587 96 587 138.5 659.5 c 128,-1,18
 181 732 181 732 241 793 c 128,-1,19
 301 854 301 854 374 898 c 128,-1,20
 447 942 447 942 532 966.5 c 128,-1,21
 617 991 617 991 709 991 c 0,22,23
 775 991 775 991 839 981.5 c 128,-1,24
 903 972 903 972 963 946 c 1,25,-1
 848 0 l 1,0,-1
393 132 m 0,26,27
 445 132 445 132 495 161.5 c 128,-1,28
 545 191 545 191 589.5 244 c 128,-1,29
 634 297 634 297 672.5 369 c 128,-1,30
 711 441 711 441 740 527 c 1,31,-1
 780 856 l 1,32,33
 757 861 757 861 733 862.5 c 128,-1,34
 709 864 709 864 686 864 c 0,35,36
 591 864 591 864 507 823.5 c 128,-1,37
 423 783 423 783 360 714.5 c 128,-1,38
 297 646 297 646 260.5 556 c 128,-1,39
 224 466 224 466 224 367 c 0,40,41
 224 132 224 132 393 132 c 0,26,27
EndSplineSet
Substitution2: "sous-table 'ordn' Ordinaux dans Latin lookup 39" a.superior
Substitution2: "sous-table 'sups' Exposant lookups25" a.superior
EndChar

StartChar: aogonek
Encoding: 261 261 46
Width: 1053
GlyphClass: 2
Flags: W
LayerCount: 2
Fore
SplineSet
848 0 m 1,0,-1
 837 0 l 1,1,2
 817 -11 817 -11 795.5 -27 c 128,-1,3
 774 -43 774 -43 756 -63.5 c 128,-1,4
 738 -84 738 -84 726.5 -108 c 128,-1,5
 715 -132 715 -132 715 -160 c 0,6,7
 715 -191 715 -191 733.5 -209.5 c 128,-1,8
 752 -228 752 -228 783 -228 c 0,9,10
 803 -228 803 -228 817 -224.5 c 128,-1,11
 831 -221 831 -221 840 -216.5 c 128,-1,12
 849 -212 849 -212 854.5 -208.5 c 128,-1,13
 860 -205 860 -205 864 -205 c 0,14,15
 878 -205 878 -205 881 -217 c 2,16,-1
 899 -280 l 1,17,18
 869 -302 869 -302 826 -316 c 128,-1,19
 783 -330 783 -330 737 -330 c 0,20,21
 663 -330 663 -330 623 -296.5 c 128,-1,22
 583 -263 583 -263 583 -207 c 0,23,24
 583 -176 583 -176 594.5 -146.5 c 128,-1,25
 606 -117 606 -117 626 -90.5 c 128,-1,26
 646 -64 646 -64 673.5 -41 c 128,-1,27
 701 -18 701 -18 734 2 c 1,28,29
 713 8 713 8 705 24 c 128,-1,30
 697 40 697 40 699 60 c 2,31,-1
 717 268 l 1,32,33
 679 204 679 204 635.5 152 c 128,-1,34
 592 100 592 100 543.5 63 c 128,-1,35
 495 26 495 26 440.5 6 c 128,-1,36
 386 -14 386 -14 328 -14 c 0,37,38
 264 -14 264 -14 212.5 9 c 128,-1,39
 161 32 161 32 124.5 76.5 c 128,-1,40
 88 121 88 121 68.5 186.5 c 128,-1,41
 49 252 49 252 49 337 c 0,42,43
 49 423 49 423 72.5 505 c 128,-1,44
 96 587 96 587 138.5 659.5 c 128,-1,45
 181 732 181 732 241 793 c 128,-1,46
 301 854 301 854 374 898 c 128,-1,47
 447 942 447 942 532 966.5 c 128,-1,48
 617 991 617 991 709 991 c 0,49,50
 775 991 775 991 839 981.5 c 128,-1,51
 903 972 903 972 963 946 c 1,52,-1
 848 0 l 1,0,-1
393 132 m 0,53,54
 445 132 445 132 495 161.5 c 128,-1,55
 545 191 545 191 589.5 244 c 128,-1,56
 634 297 634 297 672.5 369 c 128,-1,57
 711 441 711 441 740 527 c 1,58,-1
 780 856 l 1,59,60
 757 861 757 861 733 862.5 c 128,-1,61
 709 864 709 864 686 864 c 0,62,63
 591 864 591 864 507 823.5 c 128,-1,64
 423 783 423 783 360 714.5 c 128,-1,65
 297 646 297 646 260.5 556 c 128,-1,66
 224 466 224 466 224 367 c 0,67,68
 224 132 224 132 393 132 c 0,53,54
EndSplineSet
EndChar

StartChar: ae
Encoding: 230 230 47
Width: 1545
GlyphClass: 2
Flags: W
LayerCount: 2
Fore
SplineSet
1181 992 m 0,0,1
 1245 992 1245 992 1299.5 973.5 c 128,-1,2
 1354 955 1354 955 1394 923 c 128,-1,3
 1434 891 1434 891 1456.5 847.5 c 128,-1,4
 1479 804 1479 804 1479 754 c 0,5,6
 1479 700 1479 700 1449 648 c 128,-1,7
 1419 596 1419 596 1345.5 555 c 128,-1,8
 1272 514 1272 514 1147.5 488 c 128,-1,9
 1023 462 1023 462 833 459 c 1,10,-1
 833 431 l 2,11,12
 833 277 833 277 901.5 200.5 c 128,-1,13
 970 124 970 124 1089 124 c 0,14,15
 1142 124 1142 124 1183 133.5 c 128,-1,16
 1224 143 1224 143 1256 157 c 128,-1,17
 1288 171 1288 171 1312.5 187.5 c 128,-1,18
 1337 204 1337 204 1357 218 c 128,-1,19
 1377 232 1377 232 1393.5 241.5 c 128,-1,20
 1410 251 1410 251 1426 251 c 0,21,22
 1445 251 1445 251 1459 234 c 2,23,-1
 1504 181 l 1,24,25
 1451 130 1451 130 1400 93.5 c 128,-1,26
 1349 57 1349 57 1295 33 c 128,-1,27
 1241 9 1241 9 1182.5 -2.5 c 128,-1,28
 1124 -14 1124 -14 1057 -14 c 0,29,30
 944 -14 944 -14 857 43 c 128,-1,31
 770 100 770 100 728 213 c 1,32,33
 695 151 695 151 648 108 c 128,-1,34
 601 65 601 65 547.5 37.5 c 128,-1,35
 494 10 494 10 437.5 -2.5 c 128,-1,36
 381 -15 381 -15 329 -15 c 0,37,38
 190 -15 190 -15 112 43.5 c 128,-1,39
 34 102 34 102 34 219 c 0,40,41
 34 286 34 286 68.5 347.5 c 128,-1,42
 103 409 103 409 180.5 456.5 c 128,-1,43
 258 504 258 504 382.5 533.5 c 128,-1,44
 507 563 507 563 688 568 c 1,45,-1
 695 625 l 2,46,47
 710 740 710 740 667 798.5 c 128,-1,48
 624 857 624 857 527 857 c 0,49,50
 462 857 462 857 415.5 841 c 128,-1,51
 369 825 369 825 334.5 805.5 c 128,-1,52
 300 786 300 786 275 770 c 128,-1,53
 250 754 250 754 228 754 c 0,54,55
 211 754 211 754 198.5 763 c 128,-1,56
 186 772 186 772 180 786 c 2,57,-1
 155 839 l 1,58,59
 246 917 246 917 339.5 955.5 c 128,-1,60
 433 994 433 994 544 994 c 0,61,62
 659 994 659 994 725 946.5 c 128,-1,63
 791 899 791 899 814 814 c 1,64,65
 877 898 877 898 969.5 945 c 128,-1,66
 1062 992 1062 992 1181 992 c 0,0,1
675 461 m 1,67,68
 544 457 544 457 453 439.5 c 128,-1,69
 362 422 362 422 305.5 393.5 c 128,-1,70
 249 365 249 365 223.5 326.5 c 128,-1,71
 198 288 198 288 198 240 c 0,72,73
 198 170 198 170 242 136.5 c 128,-1,74
 286 103 286 103 360 103 c 0,75,76
 416 103 416 103 467.5 121 c 128,-1,77
 519 139 519 139 560 174.5 c 128,-1,78
 601 210 601 210 629 263.5 c 128,-1,79
 657 317 657 317 666 388 c 2,80,-1
 675 461 l 1,67,68
1162 867 m 0,81,82
 1096 867 1096 867 1043 845.5 c 128,-1,83
 990 824 990 824 950 784 c 128,-1,84
 910 744 910 744 883 687.5 c 128,-1,85
 856 631 856 631 844 561 c 1,86,87
 985 568 985 568 1078 585 c 128,-1,88
 1171 602 1171 602 1226 626.5 c 128,-1,89
 1281 651 1281 651 1303 681.5 c 128,-1,90
 1325 712 1325 712 1325 747 c 0,91,92
 1325 801 1325 801 1282 834 c 128,-1,93
 1239 867 1239 867 1162 867 c 0,81,82
EndSplineSet
EndChar

StartChar: b
Encoding: 98 98 48
Width: 1053
GlyphClass: 2
Flags: W
LayerCount: 2
Fore
SplineSet
81 0 m 1,0,-1
 253 1422 l 1,1,-1
 425 1422 l 1,2,-1
 340 729 l 1,3,4
 378 789 378 789 422 837.5 c 128,-1,5
 466 886 466 886 514 920.5 c 128,-1,6
 562 955 562 955 614.5 973.5 c 128,-1,7
 667 992 667 992 721 992 c 0,8,9
 850 992 850 992 923 900 c 128,-1,10
 996 808 996 808 996 633 c 0,11,12
 996 553 996 553 979 474.5 c 128,-1,13
 962 396 962 396 931 324 c 128,-1,14
 900 252 900 252 856 190 c 128,-1,15
 812 128 812 128 757.5 83 c 128,-1,16
 703 38 703 38 639 12 c 128,-1,17
 575 -14 575 -14 505 -14 c 0,18,19
 424 -14 424 -14 358 19.5 c 128,-1,20
 292 53 292 53 249 114 c 1,21,-1
 234 51 l 2,22,23
 229 25 229 25 216.5 12.5 c 128,-1,24
 204 0 204 0 174 0 c 2,25,-1
 81 0 l 1,0,-1
655 852 m 0,26,27
 606 852 606 852 556.5 823 c 128,-1,28
 507 794 507 794 461.5 742.5 c 128,-1,29
 416 691 416 691 376.5 620 c 128,-1,30
 337 549 337 549 308 465 c 1,31,-1
 277 216 l 1,32,33
 316 164 316 164 369.5 143 c 128,-1,34
 423 122 423 122 479 122 c 0,35,36
 558 122 558 122 621.5 167 c 128,-1,37
 685 212 685 212 729.5 283.5 c 128,-1,38
 774 355 774 355 798 443 c 128,-1,39
 822 531 822 531 822 617 c 0,40,41
 822 732 822 732 779 792 c 128,-1,42
 736 852 736 852 655 852 c 0,26,27
EndSplineSet
Substitution2: "sous-table 'ordn' Ordinaux dans Latin lookup 39" b.superior
Substitution2: "sous-table 'sups' Exposant lookups25" b.superior
EndChar

StartChar: c
Encoding: 99 99 49
Width: 852
GlyphClass: 2
Flags: W
LayerCount: 2
Fore
SplineSet
806 176 m 1,0,1
 755 120 755 120 709 83.5 c 128,-1,2
 663 47 663 47 616.5 25.5 c 128,-1,3
 570 4 570 4 520.5 -5 c 128,-1,4
 471 -14 471 -14 413 -14 c 0,5,6
 327 -14 327 -14 261 15.5 c 128,-1,7
 195 45 195 45 150 98 c 128,-1,8
 105 151 105 151 81.5 225 c 128,-1,9
 58 299 58 299 58 388 c 0,10,11
 58 506 58 506 95.5 615 c 128,-1,12
 133 724 133 724 200.5 808 c 128,-1,13
 268 892 268 892 361.5 942 c 128,-1,14
 455 992 455 992 567 992 c 0,15,16
 666 992 666 992 732.5 957.5 c 128,-1,17
 799 923 799 923 850 857 c 1,18,-1
 795 791 l 2,19,20
 789 783 789 783 780 778 c 128,-1,21
 771 773 771 773 761 773 c 0,22,23
 747 773 747 773 733.5 785 c 128,-1,24
 720 797 720 797 699 812 c 128,-1,25
 678 827 678 827 645.5 839 c 128,-1,26
 613 851 613 851 563 851 c 0,27,28
 495 851 495 851 435.5 815.5 c 128,-1,29
 376 780 376 780 331 717.5 c 128,-1,30
 286 655 286 655 260 570 c 128,-1,31
 234 485 234 485 234 387 c 0,32,33
 234 327 234 327 248 278.5 c 128,-1,34
 262 230 262 230 289 195.5 c 128,-1,35
 316 161 316 161 356.5 142.5 c 128,-1,36
 397 124 397 124 450 124 c 0,37,38
 516 124 516 124 560.5 143 c 128,-1,39
 605 162 605 162 635.5 185 c 128,-1,40
 666 208 666 208 687.5 227 c 128,-1,41
 709 246 709 246 729 246 c 0,42,43
 748 246 748 246 762 229 c 2,44,-1
 806 176 l 1,45,-1
 806 176 l 1,0,1
EndSplineSet
Substitution2: "sous-table 'ordn' Ordinaux dans Latin lookup 39" c.superior
Substitution2: "sous-table 'sups' Exposant lookups25" c.superior
EndChar

StartChar: ccedilla
Encoding: 231 231 50
Width: 852
GlyphClass: 2
Flags: W
LayerCount: 2
Fore
SplineSet
261 -240 m 0,0,1
 267 -240 267 -240 273.5 -243.5 c 128,-1,2
 280 -247 280 -247 289 -251.5 c 128,-1,3
 298 -256 298 -256 311 -259.5 c 128,-1,4
 324 -263 324 -263 342 -263 c 0,5,6
 380 -263 380 -263 401 -244 c 128,-1,7
 422 -225 422 -225 422 -197 c 0,8,9
 422 -164 422 -164 388 -150 c 128,-1,10
 354 -136 354 -136 290 -127 c 1,11,-1
 338 -7 l 1,12,13
 270 5 270 5 217.5 38.5 c 128,-1,14
 165 72 165 72 129.5 123.5 c 128,-1,15
 94 175 94 175 76 242 c 128,-1,16
 58 309 58 309 58 388 c 0,17,18
 58 506 58 506 95.5 615 c 128,-1,19
 133 724 133 724 200.5 808 c 128,-1,20
 268 892 268 892 361.5 942 c 128,-1,21
 455 992 455 992 567 992 c 0,22,23
 666 992 666 992 732.5 957.5 c 128,-1,24
 799 923 799 923 850 857 c 1,25,-1
 795 791 l 2,26,27
 789 783 789 783 780 778 c 128,-1,28
 771 773 771 773 761 773 c 0,29,30
 747 773 747 773 733.5 785 c 128,-1,31
 720 797 720 797 699 812 c 128,-1,32
 678 827 678 827 645.5 839 c 128,-1,33
 613 851 613 851 563 851 c 0,34,35
 495 851 495 851 435.5 815.5 c 128,-1,36
 376 780 376 780 331 717.5 c 128,-1,37
 286 655 286 655 260 570 c 128,-1,38
 234 485 234 485 234 387 c 0,39,40
 234 327 234 327 248 278.5 c 128,-1,41
 262 230 262 230 289 195.5 c 128,-1,42
 316 161 316 161 356.5 142.5 c 128,-1,43
 397 124 397 124 450 124 c 0,44,45
 516 124 516 124 560.5 143 c 128,-1,46
 605 162 605 162 635.5 185 c 128,-1,47
 666 208 666 208 687.5 227 c 128,-1,48
 709 246 709 246 729 246 c 0,49,50
 748 246 748 246 762 229 c 2,51,-1
 806 176 l 1,52,53
 758 124 758 124 715 89 c 128,-1,54
 672 54 672 54 628.5 32 c 128,-1,55
 585 10 585 10 540 -0.5 c 128,-1,56
 495 -11 495 -11 443 -13 c 1,57,-1
 421 -69 l 1,58,59
 491 -86 491 -86 523.5 -116 c 128,-1,60
 556 -146 556 -146 556 -191 c 0,61,62
 556 -226 556 -226 540 -253 c 128,-1,63
 524 -280 524 -280 495.5 -299.5 c 128,-1,64
 467 -319 467 -319 427.5 -329 c 128,-1,65
 388 -339 388 -339 342 -339 c 0,66,67
 306 -339 306 -339 273.5 -330.5 c 128,-1,68
 241 -322 241 -322 215 -308 c 1,69,-1
 238 -256 l 2,70,71
 242 -248 242 -248 247 -244 c 128,-1,72
 252 -240 252 -240 261 -240 c 0,0,1
EndSplineSet
EndChar

StartChar: c_h.dlig
Encoding: 65537 -1 51
Width: 1862
GlyphClass: 3
Flags: W
LayerCount: 2
Fore
SplineSet
787 176 m 1,0,1
 736 120 736 120 690 83.5 c 128,-1,2
 644 47 644 47 597.5 25.5 c 128,-1,3
 551 4 551 4 501.5 -5 c 128,-1,4
 452 -14 452 -14 394 -14 c 0,5,6
 308 -14 308 -14 242 15.5 c 128,-1,7
 176 45 176 45 131 98 c 128,-1,8
 86 151 86 151 62.5 225 c 128,-1,9
 39 299 39 299 39 388 c 0,10,11
 39 506 39 506 76.5 615 c 128,-1,12
 114 724 114 724 181.5 808 c 128,-1,13
 249 892 249 892 342.5 942 c 128,-1,14
 436 992 436 992 548 992 c 0,15,16
 612 992 612 992 666 975 c 1,17,18
 626 1061 626 1061 626 1153 c 0,19,20
 626 1228 626 1228 652.5 1293 c 128,-1,21
 679 1358 679 1358 727.5 1406 c 128,-1,22
 776 1454 776 1454 846 1481.5 c 128,-1,23
 916 1509 916 1509 1003 1509 c 0,24,25
 1064 1509 1064 1509 1108.5 1495 c 128,-1,26
 1153 1481 1153 1481 1186.5 1464.5 c 128,-1,27
 1220 1448 1220 1448 1245 1434.5 c 128,-1,28
 1270 1421 1270 1421 1294 1421 c 1,29,-1
 1232 1388 l 1,30,-1
 1156 759 l 1,31,32
 1234 874 1234 874 1330 933 c 128,-1,33
 1426 992 1426 992 1526 992 c 0,34,35
 1590 992 1590 992 1639 967.5 c 128,-1,36
 1688 943 1688 943 1718.5 896 c 128,-1,37
 1749 849 1749 849 1760 780 c 128,-1,38
 1771 711 1771 711 1760 623 c 2,39,-1
 1687 0 l 1,40,-1
 1512 0 l 1,41,-1
 1585 623 l 2,42,43
 1599 738 1599 738 1570 793 c 128,-1,44
 1541 848 1541 848 1462 848 c 0,45,46
 1417 848 1417 848 1369.5 824.5 c 128,-1,47
 1322 801 1322 801 1278 758 c 128,-1,48
 1234 715 1234 715 1194.5 653.5 c 128,-1,49
 1155 592 1155 592 1127 517 c 1,50,-1
 1065 0 l 1,51,-1
 890 0 l 1,52,-1
 1058 1396 l 1,53,54
 1035 1407 1035 1407 1008 1413.5 c 128,-1,55
 981 1420 981 1420 952 1420 c 0,56,57
 893 1420 893 1420 848 1399.5 c 128,-1,58
 803 1379 803 1379 772 1343.5 c 128,-1,59
 741 1308 741 1308 725.5 1261.5 c 128,-1,60
 710 1215 710 1215 710 1164 c 0,61,62
 710 1092 710 1092 741.5 1020.5 c 128,-1,63
 773 949 773 949 829 897 c 1,64,-1
 810 883 l 1,65,-1
 831 857 l 1,66,-1
 776 791 l 2,67,68
 770 783 770 783 761 778 c 128,-1,69
 752 773 752 773 742 773 c 0,70,71
 728 773 728 773 714.5 785 c 128,-1,72
 701 797 701 797 680 812 c 128,-1,73
 659 827 659 827 626.5 839 c 128,-1,74
 594 851 594 851 544 851 c 0,75,76
 476 851 476 851 416.5 815.5 c 128,-1,77
 357 780 357 780 312 717.5 c 128,-1,78
 267 655 267 655 241 570 c 128,-1,79
 215 485 215 485 215 387 c 0,80,81
 215 327 215 327 229 278.5 c 128,-1,82
 243 230 243 230 270 195.5 c 128,-1,83
 297 161 297 161 337.5 142.5 c 128,-1,84
 378 124 378 124 431 124 c 0,85,86
 497 124 497 124 541.5 143 c 128,-1,87
 586 162 586 162 616.5 185 c 128,-1,88
 647 208 647 208 668.5 227 c 128,-1,89
 690 246 690 246 710 246 c 0,90,91
 729 246 729 246 743 229 c 2,92,-1
 787 176 l 1,93,-1
 787 176 l 1,0,1
EndSplineSet
Ligature2: "sous-table 'dlig' Ligatures facultatives  dans Latin lookup 36" c h
EndChar

StartChar: c_k.dlig
Encoding: 65538 -1 52
Width: 1740
GlyphClass: 3
Flags: W
LayerCount: 2
Fore
SplineSet
794 176 m 1,0,1
 743 120 743 120 697 83.5 c 128,-1,2
 651 47 651 47 604.5 25.5 c 128,-1,3
 558 4 558 4 508.5 -5 c 128,-1,4
 459 -14 459 -14 401 -14 c 0,5,6
 315 -14 315 -14 249 15.5 c 128,-1,7
 183 45 183 45 138 98 c 128,-1,8
 93 151 93 151 69.5 225 c 128,-1,9
 46 299 46 299 46 388 c 0,10,11
 46 506 46 506 83.5 615 c 128,-1,12
 121 724 121 724 188.5 808 c 128,-1,13
 256 892 256 892 349.5 942 c 128,-1,14
 443 992 443 992 555 992 c 0,15,16
 617 992 617 992 667 977 c 1,17,18
 630 1062 630 1062 630 1152 c 0,19,20
 630 1227 630 1227 655.5 1292 c 128,-1,21
 681 1357 681 1357 729 1405 c 128,-1,22
 777 1453 777 1453 845 1481 c 128,-1,23
 913 1509 913 1509 998 1509 c 0,24,25
 1057 1509 1057 1509 1100 1495 c 128,-1,26
 1143 1481 1143 1481 1175 1464.5 c 128,-1,27
 1207 1448 1207 1448 1232 1434.5 c 128,-1,28
 1257 1421 1257 1421 1280 1421 c 1,29,-1
 1237 1398 l 1,30,-1
 1137 586 l 1,31,-1
 1167 586 l 2,32,33
 1187 586 1187 586 1199.5 591.5 c 128,-1,34
 1212 597 1212 597 1227 613 c 2,35,-1
 1548 944 l 2,36,37
 1563 960 1563 960 1578 969 c 128,-1,38
 1593 978 1593 978 1616 978 c 2,39,-1
 1771 978 l 1,40,-1
 1397 594 l 2,41,42
 1382 578 1382 578 1367.5 565.5 c 128,-1,43
 1353 553 1353 553 1336 543 c 1,44,45
 1352 532 1352 532 1364 516.5 c 128,-1,46
 1376 501 1376 501 1387 483 c 2,47,-1
 1675 0 l 1,48,-1
 1525 0 l 2,49,50
 1504 0 1504 0 1490 7.5 c 128,-1,51
 1476 15 1476 15 1465 33 c 2,52,-1
 1220 434 l 2,53,54
 1208 454 1208 454 1195.5 460.5 c 128,-1,55
 1183 467 1183 467 1156 467 c 2,56,-1
 1123 467 l 1,57,-1
 1066 0 l 1,58,-1
 893 0 l 1,59,-1
 1062 1386 l 1,60,61
 1040 1403 1040 1403 1010 1411.5 c 128,-1,62
 980 1420 980 1420 946 1420 c 0,63,64
 890 1420 890 1420 846.5 1399 c 128,-1,65
 803 1378 803 1378 773.5 1343 c 128,-1,66
 744 1308 744 1308 728.5 1261 c 128,-1,67
 713 1214 713 1214 713 1163 c 0,68,69
 713 1091 713 1091 743 1020 c 128,-1,70
 773 949 773 949 826 897 c 1,71,-1
 813 887 l 1,72,-1
 838 857 l 1,73,-1
 783 791 l 2,74,75
 777 783 777 783 768 778 c 128,-1,76
 759 773 759 773 749 773 c 0,77,78
 735 773 735 773 721.5 785 c 128,-1,79
 708 797 708 797 687 812 c 128,-1,80
 666 827 666 827 633.5 839 c 128,-1,81
 601 851 601 851 551 851 c 0,82,83
 483 851 483 851 423.5 815.5 c 128,-1,84
 364 780 364 780 319 717.5 c 128,-1,85
 274 655 274 655 248 570 c 128,-1,86
 222 485 222 485 222 387 c 0,87,88
 222 327 222 327 236 278.5 c 128,-1,89
 250 230 250 230 277 195.5 c 128,-1,90
 304 161 304 161 344.5 142.5 c 128,-1,91
 385 124 385 124 438 124 c 0,92,93
 504 124 504 124 548.5 143 c 128,-1,94
 593 162 593 162 623.5 185 c 128,-1,95
 654 208 654 208 675.5 227 c 128,-1,96
 697 246 697 246 717 246 c 0,97,98
 736 246 736 246 750 229 c 2,99,-1
 794 176 l 1,100,-1
 794 176 l 1,0,1
EndSplineSet
Ligature2: "sous-table 'dlig' Ligatures facultatives  dans Latin lookup 36" c k
EndChar

StartChar: c_t.dlig
Encoding: 65539 -1 53
Width: 1521
GlyphClass: 3
Flags: W
LayerCount: 2
Fore
SplineSet
1297 943 m 1,0,-1
 1556 943 l 1,1,-1
 1541 820 l 1,2,-1
 1282 820 l 1,3,-1
 1212 245 l 2,4,5
 1204 184 1204 184 1227.5 153 c 128,-1,6
 1251 122 1251 122 1294 122 c 0,7,8
 1319 122 1319 122 1337.5 129.5 c 128,-1,9
 1356 137 1356 137 1370 146.5 c 128,-1,10
 1384 156 1384 156 1394 163.5 c 128,-1,11
 1404 171 1404 171 1412 171 c 0,12,13
 1426 171 1426 171 1434 154 c 2,14,-1
 1473 73 l 1,15,16
 1425 31 1425 31 1363 8 c 128,-1,17
 1301 -15 1301 -15 1238 -15 c 0,18,19
 1129 -15 1129 -15 1077.5 49 c 128,-1,20
 1026 113 1026 113 1041 234 c 2,21,-1
 1113 820 l 1,22,-1
 1005 820 l 2,23,24
 990 820 990 820 981.5 829 c 128,-1,25
 973 838 973 838 975 857 c 2,26,-1
 983 924 l 1,27,-1
 1133 943 l 1,28,-1
 1197 1161 l 2,29,30
 1237 1293 1237 1293 1193 1364 c 128,-1,31
 1149 1435 1149 1435 1038 1435 c 0,32,33
 973 1435 973 1435 917 1413.5 c 128,-1,34
 861 1392 861 1392 816.5 1356 c 128,-1,35
 772 1320 772 1320 742 1272 c 128,-1,36
 712 1224 712 1224 700 1171 c 128,-1,37
 688 1118 688 1118 696.5 1062.5 c 128,-1,38
 705 1007 705 1007 737 957 c 1,39,40
 805 923 805 923 856 857 c 1,41,-1
 801 791 l 2,42,43
 795 783 795 783 786 778 c 128,-1,44
 777 773 777 773 767 773 c 0,45,46
 753 773 753 773 739.5 785 c 128,-1,47
 726 797 726 797 705 812 c 128,-1,48
 684 827 684 827 651.5 839 c 128,-1,49
 619 851 619 851 569 851 c 0,50,51
 501 851 501 851 441.5 815.5 c 128,-1,52
 382 780 382 780 337 717.5 c 128,-1,53
 292 655 292 655 266 570 c 128,-1,54
 240 485 240 485 240 387 c 0,55,56
 240 327 240 327 254 278.5 c 128,-1,57
 268 230 268 230 295 195.5 c 128,-1,58
 322 161 322 161 362.5 142.5 c 128,-1,59
 403 124 403 124 456 124 c 0,60,61
 522 124 522 124 566.5 143 c 128,-1,62
 611 162 611 162 641.5 185 c 128,-1,63
 672 208 672 208 693.5 227 c 128,-1,64
 715 246 715 246 735 246 c 0,65,66
 754 246 754 246 768 229 c 2,67,-1
 812 176 l 1,68,69
 761 120 761 120 715 83.5 c 128,-1,70
 669 47 669 47 622.5 25.5 c 128,-1,71
 576 4 576 4 526.5 -5 c 128,-1,72
 477 -14 477 -14 419 -14 c 0,73,74
 333 -14 333 -14 267 15.5 c 128,-1,75
 201 45 201 45 156 98 c 128,-1,76
 111 151 111 151 87.5 225 c 128,-1,77
 64 299 64 299 64 388 c 0,78,79
 64 506 64 506 101.5 615 c 128,-1,80
 139 724 139 724 206.5 808 c 128,-1,81
 274 892 274 892 367.5 942 c 128,-1,82
 461 992 461 992 573 992 c 0,83,84
 600 992 600 992 626 989 c 1,85,86
 607 1045 607 1045 609.5 1105 c 128,-1,87
 612 1165 612 1165 632.5 1222.5 c 128,-1,88
 653 1280 653 1280 691 1332 c 128,-1,89
 729 1384 729 1384 782 1423 c 128,-1,90
 835 1462 835 1462 901.5 1485 c 128,-1,91
 968 1508 968 1508 1047 1508 c 0,92,93
 1131 1508 1131 1508 1188 1481.5 c 128,-1,94
 1245 1455 1245 1455 1279 1411.5 c 128,-1,95
 1313 1368 1313 1368 1324.5 1312 c 128,-1,96
 1336 1256 1336 1256 1329 1196 c 2,97,-1
 1297 943 l 1,0,-1
EndSplineSet
Ligature2: "sous-table 'dlig' Ligatures facultatives  dans Latin lookup 36" c t
EndChar

StartChar: ccedilla_t.dlig
Encoding: 65540 -1 54
Width: 1521
GlyphClass: 3
Flags: W
LayerCount: 2
Fore
SplineSet
1279 958 m 1,0,-1
 1542 958 l 1,1,-1
 1527 835 l 1,2,-1
 1264 835 l 1,3,-1
 1192 245 l 2,4,5
 1184 183 1184 183 1207.5 153 c 128,-1,6
 1231 123 1231 123 1274 123 c 0,7,8
 1299 123 1299 123 1318 130.5 c 128,-1,9
 1337 138 1337 138 1351 146.5 c 128,-1,10
 1365 155 1365 155 1375 162.5 c 128,-1,11
 1385 170 1385 170 1392 170 c 0,12,13
 1401 170 1401 170 1405.5 166 c 128,-1,14
 1410 162 1410 162 1414 154 c 2,15,-1
 1456 73 l 1,16,17
 1408 31 1408 31 1345.5 8 c 128,-1,18
 1283 -15 1283 -15 1218 -15 c 0,19,20
 1109 -15 1109 -15 1057.5 49 c 128,-1,21
 1006 113 1006 113 1020 234 c 2,22,-1
 1094 835 l 1,23,-1
 986 835 l 2,24,25
 972 835 972 835 962.5 845 c 128,-1,26
 953 855 953 855 955 873 c 2,27,-1
 963 940 l 1,28,-1
 1121 960 l 1,29,30
 1132 989 1132 989 1143.5 1021.5 c 128,-1,31
 1155 1054 1155 1054 1165 1087.5 c 128,-1,32
 1175 1121 1175 1121 1183 1154.5 c 128,-1,33
 1191 1188 1191 1188 1195 1218 c 0,34,35
 1201 1265 1201 1265 1194.5 1305 c 128,-1,36
 1188 1345 1188 1345 1167 1374 c 128,-1,37
 1146 1403 1146 1403 1109 1419.5 c 128,-1,38
 1072 1436 1072 1436 1017 1436 c 0,39,40
 945 1436 945 1436 889.5 1411.5 c 128,-1,41
 834 1387 834 1387 796 1347 c 128,-1,42
 758 1307 758 1307 738 1254.5 c 128,-1,43
 718 1202 718 1202 718 1147 c 0,44,45
 718 1084 718 1084 746.5 1016 c 128,-1,46
 775 948 775 948 831 897 c 1,47,-1
 823 891 l 1,48,-1
 852 857 l 1,49,-1
 797 791 l 2,50,51
 791 783 791 783 782 778 c 128,-1,52
 773 773 773 773 763 773 c 0,53,54
 749 773 749 773 735.5 785 c 128,-1,55
 722 797 722 797 701 812 c 128,-1,56
 680 827 680 827 647.5 839 c 128,-1,57
 615 851 615 851 565 851 c 0,58,59
 497 851 497 851 437.5 815.5 c 128,-1,60
 378 780 378 780 333 717.5 c 128,-1,61
 288 655 288 655 262 570 c 128,-1,62
 236 485 236 485 236 387 c 0,63,64
 236 327 236 327 250 278.5 c 128,-1,65
 264 230 264 230 291 195.5 c 128,-1,66
 318 161 318 161 358.5 142.5 c 128,-1,67
 399 124 399 124 452 124 c 0,68,69
 518 124 518 124 562.5 143 c 128,-1,70
 607 162 607 162 637.5 185 c 128,-1,71
 668 208 668 208 689.5 227 c 128,-1,72
 711 246 711 246 731 246 c 0,73,74
 750 246 750 246 764 229 c 2,75,-1
 808 176 l 1,76,77
 766 130 766 130 727 97 c 128,-1,78
 688 64 688 64 650 42 c 128,-1,79
 612 20 612 20 572.5 7.5 c 128,-1,80
 533 -5 533 -5 490 -10 c 1,81,-1
 467 -69 l 1,82,83
 537 -86 537 -86 569.5 -116 c 128,-1,84
 602 -146 602 -146 602 -191 c 0,85,86
 602 -226 602 -226 586 -253 c 128,-1,87
 570 -280 570 -280 541.5 -299.5 c 128,-1,88
 513 -319 513 -319 473.5 -329 c 128,-1,89
 434 -339 434 -339 388 -339 c 0,90,91
 352 -339 352 -339 319.5 -330.5 c 128,-1,92
 287 -322 287 -322 261 -308 c 1,93,-1
 284 -256 l 2,94,95
 288 -248 288 -248 293 -244 c 128,-1,96
 298 -240 298 -240 307 -240 c 0,97,98
 313 -240 313 -240 319.5 -243.5 c 128,-1,99
 326 -247 326 -247 335 -251.5 c 128,-1,100
 344 -256 344 -256 357 -259.5 c 128,-1,101
 370 -263 370 -263 388 -263 c 0,102,103
 426 -263 426 -263 447 -244 c 128,-1,104
 468 -225 468 -225 468 -197 c 0,105,106
 468 -164 468 -164 434 -150 c 128,-1,107
 400 -136 400 -136 336 -127 c 1,108,-1
 382 -13 l 1,109,110
 304 -7 304 -7 244 24 c 128,-1,111
 184 55 184 55 143 107.5 c 128,-1,112
 102 160 102 160 81 231.5 c 128,-1,113
 60 303 60 303 60 388 c 0,114,115
 60 506 60 506 97.5 615 c 128,-1,116
 135 724 135 724 202.5 808 c 128,-1,117
 270 892 270 892 363.5 942 c 128,-1,118
 457 992 457 992 569 992 c 0,119,120
 596 992 596 992 620 989 c 128,-1,121
 644 986 644 986 667 981 c 1,122,123
 650 1019 650 1019 642.5 1058.5 c 128,-1,124
 635 1098 635 1098 635 1136 c 0,125,126
 635 1208 635 1208 661 1275.5 c 128,-1,127
 687 1343 687 1343 736.5 1394.5 c 128,-1,128
 786 1446 786 1446 859 1477.5 c 128,-1,129
 932 1509 932 1509 1026 1509 c 0,130,131
 1110 1509 1110 1509 1167 1482.5 c 128,-1,132
 1224 1456 1224 1456 1258 1412.5 c 128,-1,133
 1292 1369 1292 1369 1304 1312.5 c 128,-1,134
 1316 1256 1316 1256 1309 1196 c 2,135,-1
 1279 958 l 1,0,-1
EndSplineSet
Ligature2: "sous-table 'dlig' Ligatures facultatives  dans Latin lookup 36" ccedilla t
EndChar

StartChar: d
Encoding: 100 100 55
Width: 1053
GlyphClass: 2
Flags: W
LayerCount: 2
Fore
SplineSet
757 0 m 2,0,1
 722 0 722 0 710 17.5 c 128,-1,2
 698 35 698 35 700 60 c 2,3,-1
 718 268 l 1,4,5
 680 204 680 204 635 152 c 128,-1,6
 590 100 590 100 540.5 63 c 128,-1,7
 491 26 491 26 437 6 c 128,-1,8
 383 -14 383 -14 327 -14 c 0,9,10
 198 -14 198 -14 125 78 c 128,-1,11
 52 170 52 170 52 346 c 0,12,13
 52 425 52 425 69 504 c 128,-1,14
 86 583 86 583 117 655 c 128,-1,15
 148 727 148 727 192.5 788.5 c 128,-1,16
 237 850 237 850 291.5 895 c 128,-1,17
 346 940 346 940 409.5 966 c 128,-1,18
 473 992 473 992 543 992 c 0,19,20
 618 992 618 992 680 963.5 c 128,-1,21
 742 935 742 935 785 883 c 1,22,-1
 852 1422 l 1,23,-1
 1024 1422 l 1,24,-1
 849 0 l 1,25,-1
 757 0 l 2,0,1
393 126 m 0,26,27
 441 126 441 126 490.5 155 c 128,-1,28
 540 184 540 184 586 236 c 128,-1,29
 632 288 632 288 671.5 359 c 128,-1,30
 711 430 711 430 740 514 c 1,31,-1
 770 762 l 1,32,33
 732 814 732 814 678 835.5 c 128,-1,34
 624 857 624 857 569 857 c 0,35,36
 516 857 516 857 470 836 c 128,-1,37
 424 815 424 815 386 779.5 c 128,-1,38
 348 744 348 744 318.5 695.5 c 128,-1,39
 289 647 289 647 268.5 592.5 c 128,-1,40
 248 538 248 538 237 479 c 128,-1,41
 226 420 226 420 226 363 c 0,42,43
 226 248 226 248 269.5 187 c 128,-1,44
 313 126 313 126 393 126 c 0,26,27
EndSplineSet
Substitution2: "sous-table 'ordn' Ordinaux dans Latin lookup 39" d.superior
Substitution2: "sous-table 'sups' Exposant lookups25" d.superior
EndChar

StartChar: dcroat
Encoding: 273 273 57
Width: 1128
GlyphClass: 2
Flags: W
LayerCount: 2
Fore
SplineSet
831 0 m 2,0,1
 796 0 796 0 783.5 17.5 c 128,-1,2
 771 35 771 35 773 60 c 2,3,-1
 794 281 l 1,4,5
 752 215 752 215 703 160.5 c 128,-1,6
 654 106 654 106 598.5 67 c 128,-1,7
 543 28 543 28 483 7 c 128,-1,8
 423 -14 423 -14 360 -14 c 0,9,10
 215 -14 215 -14 135.5 79.5 c 128,-1,11
 56 173 56 173 56 352 c 0,12,13
 56 431 56 431 74 507.5 c 128,-1,14
 92 584 92 584 125 653 c 128,-1,15
 158 722 158 722 205.5 780.5 c 128,-1,16
 253 839 253 839 312 881.5 c 128,-1,17
 371 924 371 924 439.5 948 c 128,-1,18
 508 972 508 972 585 972 c 0,19,20
 669 972 669 972 738.5 943 c 128,-1,21
 808 914 808 914 856 860 c 1,22,-1
 886 1103 l 1,23,-1
 706 1103 l 2,24,25
 669 1103 669 1103 657 1118.5 c 128,-1,26
 645 1134 645 1134 650 1166 c 2,27,-1
 657 1211 l 1,28,-1
 899 1211 l 1,29,-1
 925 1422 l 1,30,-1
 1097 1422 l 1,31,-1
 1071 1211 l 1,32,-1
 1217 1211 l 1,33,-1
 1207 1103 l 1,34,-1
 1057 1103 l 1,35,-1
 922 0 l 1,36,-1
 831 0 l 2,0,1
423 126 m 0,37,38
 479 126 479 126 535 155.5 c 128,-1,39
 591 185 591 185 642.5 237.5 c 128,-1,40
 694 290 694 290 738 362.5 c 128,-1,41
 782 435 782 435 814 520 c 1,42,-1
 842 743 l 1,43,44
 797 794 797 794 736.5 815 c 128,-1,45
 676 836 676 836 613 836 c 0,46,47
 523 836 523 836 452 794.5 c 128,-1,48
 381 753 381 753 331.5 686.5 c 128,-1,49
 282 620 282 620 255.5 536.5 c 128,-1,50
 229 453 229 453 229 368 c 0,51,52
 229 250 229 250 279 188 c 128,-1,53
 329 126 329 126 423 126 c 0,37,38
EndSplineSet
EndChar

StartChar: eth
Encoding: 240 240 58
Width: 1076
GlyphClass: 2
Flags: W
LayerCount: 2
Fore
SplineSet
478 1027 m 2,0,1
 470 1040 470 1040 472.5 1053 c 128,-1,2
 475 1066 475 1066 486 1074 c 2,3,-1
 616 1163 l 1,4,5
 572 1186 572 1186 521.5 1204.5 c 128,-1,6
 471 1223 471 1223 413 1238 c 0,7,8
 384 1246 384 1246 377.5 1264.5 c 128,-1,9
 371 1283 371 1283 383 1309 c 2,10,-1
 406 1363 l 1,11,12
 500 1348 500 1348 585.5 1317 c 128,-1,13
 671 1286 671 1286 745 1236 c 1,14,-1
 925 1356 l 1,15,-1
 955 1301 l 2,16,17
 961 1289 961 1289 960 1274.5 c 128,-1,18
 959 1260 959 1260 944 1249 c 2,19,-1
 827 1170 l 1,20,21
 913 1087 913 1087 964.5 967.5 c 128,-1,22
 1016 848 1016 848 1016 686 c 0,23,24
 1016 529 1016 529 980 400.5 c 128,-1,25
 944 272 944 272 873.5 180 c 128,-1,26
 803 88 803 88 699.5 37.5 c 128,-1,27
 596 -13 596 -13 461 -13 c 0,28,29
 374 -13 374 -13 301 15 c 128,-1,30
 228 43 228 43 174.5 95.5 c 128,-1,31
 121 148 121 148 91.5 222.5 c 128,-1,32
 62 297 62 297 62 390 c 0,33,34
 62 493 62 493 98 584.5 c 128,-1,35
 134 676 134 676 198.5 745 c 128,-1,36
 263 814 263 814 353.5 854.5 c 128,-1,37
 444 895 444 895 554 895 c 0,38,39
 657 895 657 895 741.5 850 c 128,-1,40
 826 805 826 805 877 714 c 1,41,42
 875 846 875 846 832 941.5 c 128,-1,43
 789 1037 789 1037 705 1104 c 1,44,-1
 510 971 l 1,45,-1
 478 1027 l 2,0,1
480 119 m 0,46,47
 551 119 551 119 611 143 c 128,-1,48
 671 167 671 167 718 219 c 128,-1,49
 765 271 765 271 797.5 352 c 128,-1,50
 830 433 830 433 845 546 c 1,51,52
 834 588 834 588 813.5 627 c 128,-1,53
 793 666 793 666 760 696.5 c 128,-1,54
 727 727 727 727 680.5 745 c 128,-1,55
 634 763 634 763 573 763 c 0,56,57
 491 763 491 763 427.5 734.5 c 128,-1,58
 364 706 364 706 320.5 656.5 c 128,-1,59
 277 607 277 607 254 540 c 128,-1,60
 231 473 231 473 231 397 c 0,61,62
 231 331 231 331 250 279.5 c 128,-1,63
 269 228 269 228 302.5 192.5 c 128,-1,64
 336 157 336 157 381.5 138 c 128,-1,65
 427 119 427 119 480 119 c 0,46,47
EndSplineSet
EndChar

StartChar: e
Encoding: 101 101 59
Width: 978
GlyphClass: 2
Flags: W
LayerCount: 2
Fore
SplineSet
922 763 m 0,0,1
 922 700 922 700 893 647.5 c 128,-1,2
 864 595 864 595 787.5 552.5 c 128,-1,3
 711 510 711 510 576.5 478.5 c 128,-1,4
 442 447 442 447 231 428 c 1,5,6
 230 420 230 420 230 411.5 c 128,-1,7
 230 403 230 403 230 395 c 0,8,9
 230 262 230 262 294.5 193 c 128,-1,10
 359 124 359 124 490 124 c 0,11,12
 569 124 569 124 622 144 c 128,-1,13
 675 164 675 164 712.5 187.5 c 128,-1,14
 750 211 750 211 776 231 c 128,-1,15
 802 251 802 251 827 251 c 0,16,17
 846 251 846 251 861 234 c 2,18,-1
 905 181 l 1,19,20
 851 130 851 130 799.5 93 c 128,-1,21
 748 56 748 56 695 32.5 c 128,-1,22
 642 9 642 9 583.5 -2.5 c 128,-1,23
 525 -14 525 -14 458 -14 c 0,24,25
 365 -14 365 -14 291 14.5 c 128,-1,26
 217 43 217 43 165.5 96 c 128,-1,27
 114 149 114 149 86.5 223.5 c 128,-1,28
 59 298 59 298 59 391 c 0,29,30
 59 466 59 466 76 539.5 c 128,-1,31
 93 613 93 613 126 680 c 128,-1,32
 159 747 159 747 206.5 803.5 c 128,-1,33
 254 860 254 860 315 902 c 128,-1,34
 376 944 376 944 450 967.5 c 128,-1,35
 524 991 524 991 609 991 c 0,36,37
 691 991 691 991 750 969.5 c 128,-1,38
 809 948 809 948 847.5 915 c 128,-1,39
 886 882 886 882 904 841.5 c 128,-1,40
 922 801 922 801 922 763 c 0,0,1
600 866 m 0,41,42
 531 866 531 866 473 841 c 128,-1,43
 415 816 415 816 370.5 772.5 c 128,-1,44
 326 729 326 729 294.5 670 c 128,-1,45
 263 611 263 611 247 544 c 1,46,47
 359 556 359 556 441.5 570.5 c 128,-1,48
 524 585 524 585 581.5 601.5 c 128,-1,49
 639 618 639 618 675 636 c 128,-1,50
 711 654 711 654 731 674 c 128,-1,51
 751 694 751 694 758 715 c 128,-1,52
 765 736 765 736 765 759 c 0,53,54
 765 777 765 777 756 795.5 c 128,-1,55
 747 814 747 814 727.5 830 c 128,-1,56
 708 846 708 846 676.5 856 c 128,-1,57
 645 866 645 866 600 866 c 0,41,42
EndSplineSet
Substitution2: "sous-table 'ordn' Ordinaux dans Latin lookup 39" e.superior
Substitution2: "sous-table 'sups' Exposant lookups25" e.superior
EndChar

StartChar: eogonek
Encoding: 281 281 60
Width: 978
GlyphClass: 2
Flags: W
LayerCount: 2
Fore
SplineSet
653 -205 m 0,0,1
 667 -205 667 -205 670 -217 c 2,2,-1
 688 -280 l 1,3,4
 658 -302 658 -302 615 -316 c 128,-1,5
 572 -330 572 -330 526 -330 c 0,6,7
 452 -330 452 -330 412 -296.5 c 128,-1,8
 372 -263 372 -263 372 -207 c 0,9,10
 372 -150 372 -150 407 -100.5 c 128,-1,11
 442 -51 442 -51 499 -13 c 1,12,13
 489 -13 489 -13 479 -13.5 c 128,-1,14
 469 -14 469 -14 458 -14 c 0,15,16
 365 -14 365 -14 291 14.5 c 128,-1,17
 217 43 217 43 165.5 96 c 128,-1,18
 114 149 114 149 86.5 223.5 c 128,-1,19
 59 298 59 298 59 391 c 0,20,21
 59 466 59 466 76 539.5 c 128,-1,22
 93 613 93 613 126 680 c 128,-1,23
 159 747 159 747 206.5 803.5 c 128,-1,24
 254 860 254 860 315 902 c 128,-1,25
 376 944 376 944 450 967.5 c 128,-1,26
 524 991 524 991 609 991 c 0,27,28
 691 991 691 991 750 969.5 c 128,-1,29
 809 948 809 948 847.5 915 c 128,-1,30
 886 882 886 882 904 841.5 c 128,-1,31
 922 801 922 801 922 763 c 0,32,33
 922 700 922 700 893 647.5 c 128,-1,34
 864 595 864 595 787.5 552.5 c 128,-1,35
 711 510 711 510 576.5 478.5 c 128,-1,36
 442 447 442 447 231 428 c 1,37,38
 230 420 230 420 230 411.5 c 128,-1,39
 230 403 230 403 230 395 c 0,40,41
 230 262 230 262 294.5 193 c 128,-1,42
 359 124 359 124 490 124 c 0,43,44
 569 124 569 124 622 144 c 128,-1,45
 675 164 675 164 712.5 187.5 c 128,-1,46
 750 211 750 211 776 231 c 128,-1,47
 802 251 802 251 827 251 c 0,48,49
 846 251 846 251 861 234 c 2,50,-1
 905 181 l 1,51,52
 829 110 829 110 758 65.5 c 128,-1,53
 687 21 687 21 607 2 c 1,54,-1
 626 0 l 1,55,56
 606 -11 606 -11 584.5 -27 c 128,-1,57
 563 -43 563 -43 545 -63.5 c 128,-1,58
 527 -84 527 -84 515.5 -108 c 128,-1,59
 504 -132 504 -132 504 -160 c 0,60,61
 504 -191 504 -191 522.5 -209.5 c 128,-1,62
 541 -228 541 -228 572 -228 c 0,63,64
 592 -228 592 -228 606 -224.5 c 128,-1,65
 620 -221 620 -221 629 -216.5 c 128,-1,66
 638 -212 638 -212 643.5 -208.5 c 128,-1,67
 649 -205 649 -205 653 -205 c 0,0,1
600 866 m 0,68,69
 531 866 531 866 473 841 c 128,-1,70
 415 816 415 816 370.5 772.5 c 128,-1,71
 326 729 326 729 294.5 670 c 128,-1,72
 263 611 263 611 247 544 c 1,73,74
 359 556 359 556 441.5 570.5 c 128,-1,75
 524 585 524 585 581.5 601.5 c 128,-1,76
 639 618 639 618 675 636 c 128,-1,77
 711 654 711 654 731 674 c 128,-1,78
 751 694 751 694 758 715 c 128,-1,79
 765 736 765 736 765 759 c 0,80,81
 765 777 765 777 756 795.5 c 128,-1,82
 747 814 747 814 727.5 830 c 128,-1,83
 708 846 708 846 676.5 856 c 128,-1,84
 645 866 645 866 600 866 c 0,68,69
EndSplineSet
EndChar

StartChar: f
Encoding: 102 102 61
Width: 625
GlyphClass: 2
Flags: W
LayerCount: 2
Fore
SplineSet
373 833 m 1,0,-1
 276 32 l 1,1,-1
 227 -166 l 2,2,3
 219 -202 219 -202 198.5 -221 c 128,-1,4
 178 -240 178 -240 140 -240 c 2,5,-1
 70 -240 l 1,6,-1
 201 831 l 1,7,-1
 96 845 l 2,8,9
 77 847 77 847 66.5 858 c 128,-1,10
 56 869 56 869 58 889 c 2,11,-1
 65 960 l 1,12,-1
 216 960 l 1,13,-1
 228 1053 l 2,14,15
 238 1137 238 1137 271 1202.5 c 128,-1,16
 304 1268 304 1268 354 1312.5 c 128,-1,17
 404 1357 404 1357 469.5 1380.5 c 128,-1,18
 535 1404 535 1404 611 1404 c 0,19,20
 672 1404 672 1404 727 1385 c 1,21,-1
 711 1294 l 2,22,23
 709 1284 709 1284 701.5 1280 c 128,-1,24
 694 1276 694 1276 682.5 1275 c 128,-1,25
 671 1274 671 1274 656 1274.5 c 128,-1,26
 641 1275 641 1275 623 1275 c 0,27,28
 578 1275 578 1275 539.5 1263 c 128,-1,29
 501 1251 501 1251 471.5 1224 c 128,-1,30
 442 1197 442 1197 422 1153.5 c 128,-1,31
 402 1110 402 1110 395 1048 c 2,32,-1
 383 960 l 1,33,-1
 649 960 l 1,34,-1
 633 833 l 1,35,-1
 373 833 l 1,0,-1
EndSplineSet
Substitution2: "sous-table 'ordn' Ordinaux dans Latin lookup 39" f.superior
Substitution2: "sous-table 'sups' Exposant lookups25" f.superior
EndChar

StartChar: f_b.liga
Encoding: 65541 -1 62
Width: 1668
GlyphClass: 3
Flags: W
LayerCount: 2
Fore
SplineSet
711 0 m 1,0,-1
 869 1310 l 1,1,2
 837 1318 837 1318 803 1323.5 c 128,-1,3
 769 1329 769 1329 737 1329 c 0,4,5
 668 1329 668 1329 614.5 1307 c 128,-1,6
 561 1285 561 1285 523.5 1246.5 c 128,-1,7
 486 1208 486 1208 463.5 1154.5 c 128,-1,8
 441 1101 441 1101 434 1038 c 2,9,-1
 424 958 l 1,10,-1
 692 958 l 1,11,-1
 677 835 l 1,12,-1
 415 835 l 1,13,-1
 312 0 l 1,14,-1
 142 0 l 1,15,-1
 244 833 l 1,16,-1
 144 846 l 2,17,18
 123 849 123 849 112 859 c 128,-1,19
 101 869 101 869 103 889 c 2,20,-1
 111 958 l 1,21,-1
 259 958 l 1,22,-1
 269 1038 l 2,23,24
 280 1125 280 1125 313 1199 c 128,-1,25
 346 1273 346 1273 405.5 1327 c 128,-1,26
 465 1381 465 1381 552.5 1411 c 128,-1,27
 640 1441 640 1441 759 1441 c 0,28,29
 793 1441 793 1441 824.5 1438.5 c 128,-1,30
 856 1436 856 1436 887.5 1433 c 128,-1,31
 919 1430 919 1430 952.5 1426.5 c 128,-1,32
 986 1423 986 1423 1024 1422 c 2,33,-1
 1055 1422 l 1,34,-1
 1055 1421 l 1,35,-1
 1081 1421 l 1,36,-1
 1052 1400 l 1,37,-1
 970 729 l 1,38,39
 1008 789 1008 789 1052 837.5 c 128,-1,40
 1096 886 1096 886 1144 920.5 c 128,-1,41
 1192 955 1192 955 1244.5 973.5 c 128,-1,42
 1297 992 1297 992 1351 992 c 0,43,44
 1480 992 1480 992 1553 900 c 128,-1,45
 1626 808 1626 808 1626 633 c 0,46,47
 1626 553 1626 553 1609 474.5 c 128,-1,48
 1592 396 1592 396 1561 324 c 128,-1,49
 1530 252 1530 252 1486 190 c 128,-1,50
 1442 128 1442 128 1387.5 83 c 128,-1,51
 1333 38 1333 38 1269 12 c 128,-1,52
 1205 -14 1205 -14 1135 -14 c 0,53,54
 1054 -14 1054 -14 988 19.5 c 128,-1,55
 922 53 922 53 879 114 c 1,56,-1
 864 51 l 2,57,58
 859 25 859 25 846.5 12.5 c 128,-1,59
 834 0 834 0 804 0 c 2,60,-1
 711 0 l 1,0,-1
1285 852 m 0,61,62
 1236 852 1236 852 1186.5 823 c 128,-1,63
 1137 794 1137 794 1091.5 742.5 c 128,-1,64
 1046 691 1046 691 1006.5 620 c 128,-1,65
 967 549 967 549 938 465 c 1,66,-1
 907 216 l 1,67,68
 946 164 946 164 999.5 143 c 128,-1,69
 1053 122 1053 122 1109 122 c 0,70,71
 1188 122 1188 122 1251.5 167 c 128,-1,72
 1315 212 1315 212 1359.5 283.5 c 128,-1,73
 1404 355 1404 355 1428 443 c 128,-1,74
 1452 531 1452 531 1452 617 c 0,75,76
 1452 732 1452 732 1409 792 c 128,-1,77
 1366 852 1366 852 1285 852 c 0,61,62
EndSplineSet
Ligature2: "sous-table 'liga' Ligatures standard dans Latin lookup 37" f b
EndChar

StartChar: f_f_b.liga
Encoding: 65542 -1 63
Width: 2238
GlyphClass: 3
Flags: W
LayerCount: 2
Fore
SplineSet
141 0 m 1,0,-1
 243 833 l 1,1,-1
 144 846 l 2,2,3
 123 849 123 849 112 859 c 128,-1,4
 101 869 101 869 103 889 c 2,5,-1
 111 958 l 1,6,-1
 259 958 l 1,7,-1
 269 1039 l 2,8,9
 279 1123 279 1123 309.5 1188 c 128,-1,10
 340 1253 340 1253 387 1297.5 c 128,-1,11
 434 1342 434 1342 496.5 1365 c 128,-1,12
 559 1388 559 1388 633 1388 c 0,13,14
 665 1388 665 1388 693 1383 c 128,-1,15
 721 1378 721 1378 747 1369 c 1,16,-1
 732 1284 l 2,17,18
 728 1261 728 1261 705.5 1259.5 c 128,-1,19
 683 1258 683 1258 646 1258 c 0,20,21
 604 1258 604 1258 568 1246.5 c 128,-1,22
 532 1235 532 1235 504.5 1209 c 128,-1,23
 477 1183 477 1183 458.5 1140 c 128,-1,24
 440 1097 440 1097 432 1034 c 2,25,-1
 422 958 l 1,26,-1
 839 958 l 1,27,-1
 849 1038 l 2,28,29
 860 1125 860 1125 893 1199 c 128,-1,30
 926 1273 926 1273 985.5 1327 c 128,-1,31
 1045 1381 1045 1381 1131.5 1411 c 128,-1,32
 1218 1441 1218 1441 1337 1441 c 0,33,34
 1371 1441 1371 1441 1402.5 1438.5 c 128,-1,35
 1434 1436 1434 1436 1465.5 1433 c 128,-1,36
 1497 1430 1497 1430 1529.5 1426.5 c 128,-1,37
 1562 1423 1562 1423 1600 1422 c 2,38,-1
 1628 1422 l 1,39,-1
 1628 1421 l 1,40,-1
 1656 1421 l 1,41,-1
 1625 1399 l 1,42,-1
 1543 729 l 1,43,44
 1581 789 1581 789 1625 837.5 c 128,-1,45
 1669 886 1669 886 1717 920.5 c 128,-1,46
 1765 955 1765 955 1817.5 973.5 c 128,-1,47
 1870 992 1870 992 1924 992 c 0,48,49
 2053 992 2053 992 2126 900 c 128,-1,50
 2199 808 2199 808 2199 633 c 0,51,52
 2199 553 2199 553 2182 474.5 c 128,-1,53
 2165 396 2165 396 2134 324 c 128,-1,54
 2103 252 2103 252 2059 190 c 128,-1,55
 2015 128 2015 128 1960.5 83 c 128,-1,56
 1906 38 1906 38 1842 12 c 128,-1,57
 1778 -14 1778 -14 1708 -14 c 0,58,59
 1627 -14 1627 -14 1561 19.5 c 128,-1,60
 1495 53 1495 53 1452 114 c 1,61,-1
 1437 51 l 2,62,63
 1432 25 1432 25 1419.5 12.5 c 128,-1,64
 1407 0 1407 0 1377 0 c 2,65,-1
 1284 0 l 1,66,-1
 1442 1311 l 1,67,68
 1410 1319 1410 1319 1377.5 1324 c 128,-1,69
 1345 1329 1345 1329 1314 1329 c 0,70,71
 1245 1329 1245 1329 1192.5 1307 c 128,-1,72
 1140 1285 1140 1285 1102.5 1246.5 c 128,-1,73
 1065 1208 1065 1208 1043 1154.5 c 128,-1,74
 1021 1101 1021 1101 1013 1038 c 2,75,-1
 1003 958 l 1,76,-1
 1269 958 l 1,77,-1
 1254 835 l 1,78,-1
 994 835 l 1,79,-1
 891 0 l 1,80,-1
 721 0 l 1,81,-1
 824 835 l 1,82,-1
 414 835 l 1,83,-1
 311 0 l 1,84,-1
 141 0 l 1,0,-1
1858 852 m 0,85,86
 1809 852 1809 852 1759.5 823 c 128,-1,87
 1710 794 1710 794 1664.5 742.5 c 128,-1,88
 1619 691 1619 691 1579.5 620 c 128,-1,89
 1540 549 1540 549 1511 465 c 1,90,-1
 1480 216 l 1,91,92
 1519 164 1519 164 1572.5 143 c 128,-1,93
 1626 122 1626 122 1682 122 c 0,94,95
 1761 122 1761 122 1824.5 167 c 128,-1,96
 1888 212 1888 212 1932.5 283.5 c 128,-1,97
 1977 355 1977 355 2001 443 c 128,-1,98
 2025 531 2025 531 2025 617 c 0,99,100
 2025 732 2025 732 1982 792 c 128,-1,101
 1939 852 1939 852 1858 852 c 0,85,86
EndSplineSet
Ligature2: "sous-table 'liga' Ligatures standard dans Latin lookup 37" f f b
EndChar

StartChar: uniFB00
Encoding: 64256 64256 64
Width: 1195
GlyphClass: 3
Flags: W
LayerCount: 2
Fore
SplineSet
139 0 m 1,0,-1
 241 834 l 1,1,-1
 143 846 l 2,2,3
 123 849 123 849 112 859 c 128,-1,4
 101 869 101 869 103 889 c 2,5,-1
 111 958 l 1,6,-1
 257 958 l 1,7,-1
 267 1039 l 2,8,9
 277 1123 277 1123 307.5 1188 c 128,-1,10
 338 1253 338 1253 385 1297.5 c 128,-1,11
 432 1342 432 1342 494.5 1365 c 128,-1,12
 557 1388 557 1388 631 1388 c 0,13,14
 661 1388 661 1388 689 1383 c 128,-1,15
 717 1378 717 1378 743 1369 c 1,16,-1
 728 1284 l 2,17,18
 724 1261 724 1261 702 1259.5 c 128,-1,19
 680 1258 680 1258 643 1258 c 0,20,21
 601 1258 601 1258 565.5 1246.5 c 128,-1,22
 530 1235 530 1235 502.5 1209 c 128,-1,23
 475 1183 475 1183 456.5 1140 c 128,-1,24
 438 1097 438 1097 430 1034 c 2,25,-1
 420 958 l 1,26,-1
 834 958 l 1,27,-1
 847 1064 l 2,28,29
 857 1148 857 1148 887.5 1213 c 128,-1,30
 918 1278 918 1278 965 1322.5 c 128,-1,31
 1012 1367 1012 1367 1074 1390.5 c 128,-1,32
 1136 1414 1136 1414 1210 1414 c 0,33,34
 1240 1414 1240 1414 1269 1408.5 c 128,-1,35
 1298 1403 1298 1403 1322 1394 c 1,36,-1
 1307 1309 l 2,37,38
 1304 1286 1304 1286 1281.5 1284.5 c 128,-1,39
 1259 1283 1259 1283 1222 1283 c 0,40,41
 1180 1283 1180 1283 1144.5 1271.5 c 128,-1,42
 1109 1260 1109 1260 1082 1233.5 c 128,-1,43
 1055 1207 1055 1207 1037 1164 c 128,-1,44
 1019 1121 1019 1121 1011 1058 c 2,45,-1
 998 958 l 1,46,-1
 1261 958 l 1,47,-1
 1247 835 l 1,48,-1
 989 835 l 1,49,-1
 886 0 l 1,50,-1
 716 0 l 1,51,-1
 819 835 l 1,52,-1
 412 835 l 1,53,-1
 309 0 l 1,54,-1
 139 0 l 1,0,-1
EndSplineSet
Ligature2: "sous-table 'liga' Ligatures standard dans Latin lookup 37" f f
EndChar

StartChar: f_h.liga
Encoding: 65543 -1 65
Width: 1667
GlyphClass: 3
Flags: W
LayerCount: 2
Fore
SplineSet
698 0 m 1,0,-1
 856 1313 l 1,1,2
 826 1321 826 1321 795.5 1325 c 128,-1,3
 765 1329 765 1329 736 1329 c 0,4,5
 667 1329 667 1329 613.5 1307 c 128,-1,6
 560 1285 560 1285 522.5 1246.5 c 128,-1,7
 485 1208 485 1208 462.5 1154.5 c 128,-1,8
 440 1101 440 1101 433 1038 c 2,9,-1
 423 958 l 1,10,-1
 691 958 l 1,11,-1
 676 835 l 1,12,-1
 414 835 l 1,13,-1
 311 0 l 1,14,-1
 141 0 l 1,15,-1
 243 834 l 1,16,-1
 144 846 l 2,17,18
 123 849 123 849 112 859 c 128,-1,19
 101 869 101 869 103 889 c 2,20,-1
 111 958 l 1,21,-1
 258 958 l 1,22,-1
 268 1038 l 2,23,24
 279 1125 279 1125 312.5 1199 c 128,-1,25
 346 1273 346 1273 405 1327 c 128,-1,26
 464 1381 464 1381 551.5 1411 c 128,-1,27
 639 1441 639 1441 758 1441 c 0,28,29
 792 1441 792 1441 823.5 1438.5 c 128,-1,30
 855 1436 855 1436 886.5 1433 c 128,-1,31
 918 1430 918 1430 951 1426.5 c 128,-1,32
 984 1423 984 1423 1022 1422 c 2,33,-1
 1044 1422 l 1,34,-1
 1044 1421 l 1,35,-1
 1079 1421 l 1,36,-1
 1040 1394 l 1,37,-1
 964 759 l 1,38,39
 1042 874 1042 874 1138 933 c 128,-1,40
 1234 992 1234 992 1334 992 c 0,41,42
 1398 992 1398 992 1447 967.5 c 128,-1,43
 1496 943 1496 943 1526.5 896 c 128,-1,44
 1557 849 1557 849 1568 780 c 128,-1,45
 1579 711 1579 711 1568 623 c 2,46,-1
 1495 0 l 1,47,-1
 1320 0 l 1,48,-1
 1393 623 l 2,49,50
 1407 738 1407 738 1378 793 c 128,-1,51
 1349 848 1349 848 1270 848 c 0,52,53
 1225 848 1225 848 1177.5 824.5 c 128,-1,54
 1130 801 1130 801 1086 758 c 128,-1,55
 1042 715 1042 715 1002.5 653.5 c 128,-1,56
 963 592 963 592 935 517 c 1,57,-1
 873 0 l 1,58,-1
 698 0 l 1,0,-1
EndSplineSet
Ligature2: "sous-table 'liga' Ligatures standard dans Latin lookup 37" f h
EndChar

StartChar: f_f_h.liga
Encoding: 65544 -1 66
Width: 2237
GlyphClass: 3
Flags: W
LayerCount: 2
Fore
SplineSet
140 0 m 1,0,-1
 243 833 l 1,1,-1
 144 846 l 2,2,3
 123 849 123 849 112 859 c 128,-1,4
 101 869 101 869 103 889 c 2,5,-1
 111 958 l 1,6,-1
 259 958 l 1,7,-1
 269 1039 l 2,8,9
 279 1123 279 1123 309.5 1188 c 128,-1,10
 340 1253 340 1253 387 1297.5 c 128,-1,11
 434 1342 434 1342 496.5 1365 c 128,-1,12
 559 1388 559 1388 633 1388 c 0,13,14
 664 1388 664 1388 692.5 1383 c 128,-1,15
 721 1378 721 1378 747 1369 c 1,16,-1
 732 1284 l 2,17,18
 728 1261 728 1261 705.5 1259.5 c 128,-1,19
 683 1258 683 1258 646 1258 c 0,20,21
 604 1258 604 1258 568 1246.5 c 128,-1,22
 532 1235 532 1235 504.5 1209 c 128,-1,23
 477 1183 477 1183 458.5 1140 c 128,-1,24
 440 1097 440 1097 432 1034 c 2,25,-1
 421 958 l 1,26,-1
 838 958 l 1,27,-1
 848 1038 l 2,28,29
 859 1125 859 1125 892 1199 c 128,-1,30
 925 1273 925 1273 984.5 1327 c 128,-1,31
 1044 1381 1044 1381 1131 1411 c 128,-1,32
 1218 1441 1218 1441 1337 1441 c 0,33,34
 1371 1441 1371 1441 1402.5 1438.5 c 128,-1,35
 1434 1436 1434 1436 1465.5 1433 c 128,-1,36
 1497 1430 1497 1430 1529.5 1426.5 c 128,-1,37
 1562 1423 1562 1423 1599 1422 c 2,38,-1
 1630 1422 l 1,39,-1
 1630 1421 l 1,40,-1
 1655 1421 l 1,41,-1
 1627 1401 l 1,42,-1
 1550 759 l 1,43,44
 1628 874 1628 874 1724 933 c 128,-1,45
 1820 992 1820 992 1920 992 c 0,46,47
 1984 992 1984 992 2033 967.5 c 128,-1,48
 2082 943 2082 943 2112.5 896 c 128,-1,49
 2143 849 2143 849 2154 780 c 128,-1,50
 2165 711 2165 711 2154 623 c 2,51,-1
 2081 0 l 1,52,-1
 1906 0 l 1,53,-1
 1979 623 l 2,54,55
 1993 738 1993 738 1964 793 c 128,-1,56
 1935 848 1935 848 1856 848 c 0,57,58
 1811 848 1811 848 1763.5 824.5 c 128,-1,59
 1716 801 1716 801 1672 758 c 128,-1,60
 1628 715 1628 715 1588.5 653.5 c 128,-1,61
 1549 592 1549 592 1521 517 c 1,62,-1
 1459 0 l 1,63,-1
 1284 0 l 1,64,-1
 1441 1311 l 1,65,66
 1409 1319 1409 1319 1376.5 1324 c 128,-1,67
 1344 1329 1344 1329 1313 1329 c 0,68,69
 1244 1329 1244 1329 1191.5 1307 c 128,-1,70
 1139 1285 1139 1285 1102 1246.5 c 128,-1,71
 1065 1208 1065 1208 1042.5 1154.5 c 128,-1,72
 1020 1101 1020 1101 1012 1038 c 2,73,-1
 1002 958 l 1,74,-1
 1268 958 l 1,75,-1
 1254 835 l 1,76,-1
 993 835 l 1,77,-1
 890 0 l 1,78,-1
 720 0 l 1,79,-1
 823 835 l 1,80,-1
 414 835 l 1,81,-1
 311 0 l 1,82,-1
 140 0 l 1,0,-1
EndSplineSet
Ligature2: "sous-table 'liga' Ligatures standard dans Latin lookup 37" f f h
EndChar

StartChar: uniFB01
Encoding: 64257 64257 67
Width: 1084
GlyphClass: 3
Flags: W
LayerCount: 2
Fore
SplineSet
965 960 m 1,0,-1
 847 0 l 1,1,-1
 676 0 l 1,2,-1
 777 832 l 1,3,-1
 373 832 l 1,4,-1
 275 31 l 1,5,-1
 226 -167 l 2,6,7
 218 -203 218 -203 197.5 -222 c 128,-1,8
 177 -241 177 -241 139 -241 c 2,9,-1
 70 -241 l 1,10,-1
 201 830 l 1,11,-1
 98 843 l 2,12,13
 77 846 77 846 66 856 c 128,-1,14
 55 866 55 866 57 886 c 2,15,-1
 64 960 l 1,16,-1
 217 960 l 1,17,-1
 224 1012 l 2,18,19
 235 1102 235 1102 271.5 1176.5 c 128,-1,20
 308 1251 308 1251 369.5 1304 c 128,-1,21
 431 1357 431 1357 517 1386.5 c 128,-1,22
 603 1416 603 1416 711 1416 c 0,23,24
 748 1416 748 1416 790.5 1411.5 c 128,-1,25
 833 1407 833 1407 859 1397 c 1,26,-1
 843 1309 l 2,27,28
 841 1299 841 1299 833.5 1295 c 128,-1,29
 826 1291 826 1291 813.5 1290 c 128,-1,30
 801 1289 801 1289 784 1290 c 128,-1,31
 767 1291 767 1291 745 1291 c 0,32,33
 576 1291 576 1291 491.5 1222 c 128,-1,34
 407 1153 407 1153 388 1009 c 2,35,-1
 382 960 l 1,36,-1
 965 960 l 1,0,-1
EndSplineSet
Ligature2: "sous-table 'liga' Ligatures standard dans Latin lookup 37" f i
EndChar

StartChar: f_igrave.liga
Encoding: 65545 -1 68
Width: 1084
GlyphClass: 3
Flags: W
LayerCount: 2
Fore
SplineSet
784 1420 m 0,0,1
 838 1420 838 1420 868 1402.5 c 128,-1,2
 898 1385 898 1385 911 1356 c 2,3,-1
 1023 1123 l 1,4,-1
 926 1123 l 2,5,6
 907 1123 907 1123 894.5 1129 c 128,-1,7
 882 1135 882 1135 871 1149 c 2,8,-1
 759 1294 l 1,9,10
 609 1289 609 1289 530 1218.5 c 128,-1,11
 451 1148 451 1148 434 1008 c 2,12,-1
 428 958 l 1,13,-1
 1010 958 l 1,14,-1
 892 0 l 1,15,-1
 722 0 l 1,16,-1
 824 835 l 1,17,-1
 419 835 l 1,18,-1
 316 0 l 1,19,-1
 146 0 l 1,20,-1
 248 833 l 1,21,-1
 144 846 l 2,22,23
 124 849 124 849 112.5 859 c 128,-1,24
 101 869 101 869 103 889 c 2,25,-1
 112 958 l 1,26,-1
 263 958 l 1,27,-1
 270 1013 l 2,28,29
 281 1103 281 1103 317 1178 c 128,-1,30
 353 1253 353 1253 416 1306.5 c 128,-1,31
 479 1360 479 1360 570.5 1390 c 128,-1,32
 662 1420 662 1420 784 1420 c 0,0,1
EndSplineSet
Ligature2: "sous-table 'liga' Ligatures standard dans Latin lookup 37" f igrave
EndChar

StartChar: f_itilde.liga
Encoding: 65547 -1 70
Width: 1103
GlyphClass: 3
Flags: W
LayerCount: 2
Fore
SplineSet
502 0 m 1,0,-1
 604 833 l 1,1,-1
 500 846 l 2,2,3
 480 849 480 849 468.5 859 c 128,-1,4
 457 869 457 869 459 889 c 2,5,-1
 468 958 l 1,6,-1
 619 958 l 1,7,-1
 635 1087 l 2,8,9
 655 1247 655 1247 737.5 1329 c 128,-1,10
 820 1411 820 1411 949 1411 c 0,11,12
 971 1411 971 1411 989 1409 c 128,-1,13
 1007 1407 1007 1407 1023 1402 c 1,14,-1
 1013 1309 l 2,15,16
 1012 1301 1012 1301 1007 1295 c 1,17,18
 1018 1287 1018 1287 1029.5 1282 c 128,-1,19
 1041 1277 1041 1277 1053 1277 c 0,20,21
 1116 1277 1116 1277 1129 1361 c 1,22,-1
 1232 1361 l 1,23,24
 1227 1316 1227 1316 1210.5 1278.5 c 128,-1,25
 1194 1241 1194 1241 1169.5 1214 c 128,-1,26
 1145 1187 1145 1187 1113 1172 c 128,-1,27
 1081 1157 1081 1157 1045 1157 c 0,28,29
 1014 1157 1014 1157 988.5 1171 c 128,-1,30
 963 1185 963 1185 941 1201.5 c 128,-1,31
 919 1218 919 1218 899.5 1232 c 128,-1,32
 880 1246 880 1246 860 1246 c 2,33,-1
 858 1246 l 1,34,35
 813 1198 813 1198 800 1088 c 2,36,-1
 784 958 l 1,37,-1
 1366 958 l 1,38,-1
 1249 0 l 1,39,-1
 1078 0 l 1,40,-1
 1180 835 l 1,41,-1
 775 835 l 1,42,-1
 672 0 l 1,43,-1
 502 0 l 1,0,-1
EndSplineSet
Ligature2: "sous-table 'liga' Ligatures standard dans Latin lookup 37" f itilde
EndChar

StartChar: f_idieresis.liga
Encoding: 65548 -1 71
Width: 1103
GlyphClass: 3
Flags: W
LayerCount: 2
Fore
SplineSet
198 0 m 1,0,-1
 300 833 l 1,1,-1
 196 846 l 2,2,3
 176 849 176 849 164.5 859 c 128,-1,4
 153 869 153 869 155 889 c 2,5,-1
 164 958 l 1,6,-1
 315 958 l 1,7,-1
 331 1087 l 2,8,9
 351 1247 351 1247 433.5 1329 c 128,-1,10
 516 1411 516 1411 645 1411 c 0,11,12
 667 1411 667 1411 685 1409 c 128,-1,13
 703 1407 703 1407 719 1402 c 1,14,-1
 710 1316 l 1,15,16
 727 1333 727 1333 749 1343 c 128,-1,17
 771 1353 771 1353 794 1353 c 0,18,19
 836 1353 836 1353 863.5 1324.5 c 128,-1,20
 891 1296 891 1296 891 1254 c 0,21,22
 891 1230 891 1230 881 1209.5 c 128,-1,23
 871 1189 871 1189 854 1173 c 128,-1,24
 837 1157 837 1157 815 1148 c 128,-1,25
 793 1139 793 1139 769 1139 c 0,26,27
 729 1139 729 1139 701.5 1166.5 c 128,-1,28
 674 1194 674 1194 674 1234 c 0,29,30
 674 1263 674 1263 688 1288 c 1,31,32
 681 1286 681 1286 673 1286 c 128,-1,33
 665 1286 665 1286 654 1286 c 0,34,35
 586 1286 586 1286 547.5 1239.5 c 128,-1,36
 509 1193 509 1193 496 1088 c 2,37,-1
 480 958 l 1,38,-1
 1062 958 l 1,39,-1
 945 0 l 1,40,-1
 774 0 l 1,41,-1
 876 835 l 1,42,-1
 471 835 l 1,43,-1
 368 0 l 1,44,-1
 198 0 l 1,0,-1
1211 1255 m 0,45,46
 1211 1231 1211 1231 1201 1210 c 128,-1,47
 1191 1189 1191 1189 1174 1173 c 128,-1,48
 1157 1157 1157 1157 1135 1148 c 128,-1,49
 1113 1139 1113 1139 1089 1139 c 0,50,51
 1048 1139 1048 1139 1020.5 1166.5 c 128,-1,52
 993 1194 993 1194 993 1234 c 0,53,54
 993 1258 993 1258 1003 1280 c 128,-1,55
 1013 1302 1013 1302 1030 1318 c 128,-1,56
 1047 1334 1047 1334 1068.5 1343.5 c 128,-1,57
 1090 1353 1090 1353 1114 1353 c 0,58,59
 1156 1353 1156 1353 1183.5 1324.5 c 128,-1,60
 1211 1296 1211 1296 1211 1255 c 0,45,46
EndSplineSet
Ligature2: "sous-table 'liga' Ligatures standard dans Latin lookup 37" f idieresis
EndChar

StartChar: f_imacron.liga
Encoding: 65549 -1 72
Width: 1103
GlyphClass: 3
Flags: W
LayerCount: 2
Fore
SplineSet
146 0 m 1,0,-1
 248 833 l 1,1,-1
 144 846 l 2,2,3
 124 849 124 849 112.5 859 c 128,-1,4
 101 869 101 869 103 889 c 2,5,-1
 112 958 l 1,6,-1
 263 958 l 1,7,-1
 279 1087 l 2,8,9
 299 1247 299 1247 381.5 1329 c 128,-1,10
 464 1411 464 1411 593 1411 c 0,11,12
 615 1411 615 1411 633 1409 c 128,-1,13
 651 1407 651 1407 667 1402 c 1,14,-1
 657 1309 l 2,15,16
 655 1294 655 1294 640.5 1290 c 128,-1,17
 626 1286 626 1286 602 1286 c 0,18,19
 534 1286 534 1286 495.5 1239.5 c 128,-1,20
 457 1193 457 1193 444 1088 c 2,21,-1
 428 958 l 1,22,-1
 1010 958 l 1,23,-1
 893 0 l 1,24,-1
 722 0 l 1,25,-1
 824 835 l 1,26,-1
 419 835 l 1,27,-1
 316 0 l 1,28,-1
 146 0 l 1,0,-1
703 1299 m 1,29,-1
 1216 1299 l 1,30,-1
 1202 1188 l 1,31,-1
 689 1188 l 1,32,-1
 703 1299 l 1,29,-1
EndSplineSet
Ligature2: "sous-table 'liga' Ligatures standard dans Latin lookup 37" f imacron
EndChar

StartChar: f_iogonek.liga
Encoding: 65551 -1 74
Width: 1084
GlyphClass: 3
Flags: W
LayerCount: 2
Fore
SplineSet
146 0 m 1,0,-1
 248 833 l 1,1,-1
 144 846 l 2,2,3
 124 849 124 849 112.5 859 c 128,-1,4
 101 869 101 869 103 889 c 2,5,-1
 112 958 l 1,6,-1
 263 958 l 1,7,-1
 270 1013 l 2,8,9
 281 1103 281 1103 318 1178 c 128,-1,10
 355 1253 355 1253 416.5 1306.5 c 128,-1,11
 478 1360 478 1360 564 1390 c 128,-1,12
 650 1420 650 1420 758 1420 c 0,13,14
 794 1420 794 1420 832 1414.5 c 128,-1,15
 870 1409 870 1409 896 1399 c 1,16,-1
 880 1312 l 2,17,18
 876 1293 876 1293 854.5 1293.5 c 128,-1,19
 833 1294 833 1294 791 1294 c 0,20,21
 623 1294 623 1294 537.5 1223 c 128,-1,22
 452 1152 452 1152 434 1008 c 2,23,-1
 428 958 l 1,24,-1
 1010 958 l 1,25,-1
 893 0 l 1,26,-1
 869 0 l 1,27,28
 849 -11 849 -11 827.5 -27 c 128,-1,29
 806 -43 806 -43 788 -63.5 c 128,-1,30
 770 -84 770 -84 758.5 -108 c 128,-1,31
 747 -132 747 -132 747 -160 c 0,32,33
 747 -191 747 -191 765.5 -209.5 c 128,-1,34
 784 -228 784 -228 815 -228 c 0,35,36
 835 -228 835 -228 849 -224.5 c 128,-1,37
 863 -221 863 -221 872 -216.5 c 128,-1,38
 881 -212 881 -212 886.5 -208.5 c 128,-1,39
 892 -205 892 -205 896 -205 c 0,40,41
 910 -205 910 -205 913 -217 c 2,42,-1
 931 -280 l 1,43,44
 901 -302 901 -302 858 -316 c 128,-1,45
 815 -330 815 -330 769 -330 c 0,46,47
 695 -330 695 -330 655 -296.5 c 128,-1,48
 615 -263 615 -263 615 -207 c 0,49,50
 615 -145 615 -145 656.5 -92 c 128,-1,51
 698 -39 698 -39 762 0 c 1,52,-1
 722 0 l 1,53,-1
 824 835 l 1,54,-1
 419 835 l 1,55,-1
 316 0 l 1,56,-1
 146 0 l 1,0,-1
EndSplineSet
Ligature2: "sous-table 'liga' Ligatures standard dans Latin lookup 37" f iogonek
EndChar

StartChar: f_dotlessi.liga
Encoding: 65552 -1 75
Width: 1084
GlyphClass: 3
Flags: W
LayerCount: 2
Fore
SplineSet
146 0 m 1,0,-1
 248 833 l 1,1,-1
 144 846 l 2,2,3
 124 849 124 849 112.5 859 c 128,-1,4
 101 869 101 869 103 889 c 2,5,-1
 112 958 l 1,6,-1
 263 958 l 1,7,-1
 279 1087 l 2,8,9
 299 1247 299 1247 381.5 1329 c 128,-1,10
 464 1411 464 1411 593 1411 c 0,11,12
 615 1411 615 1411 633 1409 c 128,-1,13
 651 1407 651 1407 667 1402 c 1,14,-1
 657 1309 l 2,15,16
 655 1294 655 1294 640.5 1290 c 128,-1,17
 626 1286 626 1286 602 1286 c 0,18,19
 534 1286 534 1286 495.5 1239.5 c 128,-1,20
 457 1193 457 1193 444 1088 c 2,21,-1
 428 958 l 1,22,-1
 1010 958 l 1,23,-1
 893 0 l 1,24,-1
 722 0 l 1,25,-1
 824 835 l 1,26,-1
 419 835 l 1,27,-1
 316 0 l 1,28,-1
 146 0 l 1,0,-1
EndSplineSet
Ligature2: "sous-table 'liga' Ligatures standard dans Latin lookup 37" f dotlessi
EndChar

StartChar: uniFB03
Encoding: 64259 64259 76
Width: 1654
GlyphClass: 3
Flags: W
LayerCount: 2
Fore
SplineSet
143 0 m 1,0,-1
 245 833 l 1,1,-1
 144 846 l 2,2,3
 124 849 124 849 112.5 859 c 128,-1,4
 101 869 101 869 103 889 c 2,5,-1
 111 958 l 1,6,-1
 261 958 l 1,7,-1
 271 1039 l 2,8,9
 281 1123 281 1123 311.5 1188 c 128,-1,10
 342 1253 342 1253 390 1297.5 c 128,-1,11
 438 1342 438 1342 501 1365 c 128,-1,12
 564 1388 564 1388 639 1388 c 0,13,14
 670 1388 670 1388 698.5 1383 c 128,-1,15
 727 1378 727 1378 753 1369 c 1,16,-1
 739 1284 l 2,17,18
 737 1272 737 1272 730 1266.5 c 128,-1,19
 723 1261 723 1261 712 1259 c 128,-1,20
 701 1257 701 1257 685.5 1257.5 c 128,-1,21
 670 1258 670 1258 651 1258 c 0,22,23
 608 1258 608 1258 571.5 1246.5 c 128,-1,24
 535 1235 535 1235 507 1209 c 128,-1,25
 479 1183 479 1183 460 1140 c 128,-1,26
 441 1097 441 1097 434 1034 c 2,27,-1
 425 958 l 1,28,-1
 848 958 l 1,29,-1
 855 1013 l 2,30,31
 866 1103 866 1103 902 1178 c 128,-1,32
 938 1253 938 1253 999 1306.5 c 128,-1,33
 1060 1360 1060 1360 1144.5 1390 c 128,-1,34
 1229 1420 1229 1420 1336 1420 c 0,35,36
 1371 1420 1371 1420 1408.5 1414.5 c 128,-1,37
 1446 1409 1446 1409 1472 1399 c 1,38,-1
 1455 1312 l 2,39,40
 1451 1293 1451 1293 1429.5 1293.5 c 128,-1,41
 1408 1294 1408 1294 1370 1294 c 0,42,43
 1287 1294 1287 1294 1225 1276.5 c 128,-1,44
 1163 1259 1163 1259 1120.5 1223 c 128,-1,45
 1078 1187 1078 1187 1053 1133.5 c 128,-1,46
 1028 1080 1028 1080 1019 1008 c 2,47,-1
 1012 958 l 1,48,-1
 1584 958 l 1,49,-1
 1570 835 l 1,50,-1
 1569 835 l 1,51,-1
 1466 0 l 1,52,-1
 1296 0 l 1,53,-1
 1399 835 l 1,54,-1
 1003 835 l 1,55,-1
 900 0 l 1,56,-1
 730 0 l 1,57,-1
 833 835 l 1,58,-1
 416 835 l 1,59,-1
 313 0 l 1,60,-1
 143 0 l 1,0,-1
EndSplineSet
Ligature2: "sous-table 'liga' Ligatures standard dans Latin lookup 37" f f i
EndChar

StartChar: f_f_igrave.liga
Encoding: 65553 -1 77
Width: 1654
GlyphClass: 3
Flags: W
LayerCount: 2
Fore
SplineSet
1467 0 m 1,0,-1
 1297 0 l 1,1,-1
 1400 835 l 1,2,-1
 1004 835 l 1,3,-1
 902 0 l 1,4,-1
 731 0 l 1,5,-1
 834 835 l 1,6,-1
 417 835 l 1,7,-1
 314 0 l 1,8,-1
 144 0 l 1,9,-1
 246 833 l 1,10,-1
 144 846 l 2,11,12
 124 849 124 849 112.5 859 c 128,-1,13
 101 869 101 869 103 889 c 2,14,-1
 111 958 l 1,15,-1
 262 958 l 1,16,-1
 272 1039 l 2,17,18
 282 1123 282 1123 313 1188 c 128,-1,19
 344 1253 344 1253 391.5 1297.5 c 128,-1,20
 439 1342 439 1342 502 1365 c 128,-1,21
 565 1388 565 1388 640 1388 c 0,22,23
 672 1388 672 1388 701 1383 c 128,-1,24
 730 1378 730 1378 756 1369 c 1,25,-1
 742 1284 l 2,26,27
 738 1261 738 1261 715 1259.5 c 128,-1,28
 692 1258 692 1258 653 1258 c 0,29,30
 610 1258 610 1258 574 1246.5 c 128,-1,31
 538 1235 538 1235 510 1209 c 128,-1,32
 482 1183 482 1183 463 1140 c 128,-1,33
 444 1097 444 1097 436 1034 c 2,34,-1
 426 958 l 1,35,-1
 849 958 l 1,36,-1
 862 1064 l 2,37,38
 882 1232 882 1232 995.5 1323 c 128,-1,39
 1109 1414 1109 1414 1327 1414 c 0,40,41
 1466 1414 1466 1414 1485 1371 c 2,42,-1
 1602 1123 l 1,43,-1
 1505 1123 l 2,44,45
 1485 1123 1485 1123 1473 1128.5 c 128,-1,46
 1461 1134 1461 1134 1450 1149 c 2,47,-1
 1339 1296 l 1,48,49
 1332 1297 1332 1297 1325.5 1297 c 128,-1,50
 1319 1297 1319 1297 1311 1297 c 0,51,52
 1246 1297 1246 1297 1196.5 1284.5 c 128,-1,53
 1147 1272 1147 1272 1112 1243.5 c 128,-1,54
 1077 1215 1077 1215 1055.5 1169.5 c 128,-1,55
 1034 1124 1034 1124 1026 1058 c 2,56,-1
 1013 958 l 1,57,-1
 1585 958 l 1,58,-1
 1570 835 l 1,59,-1
 1467 0 l 1,0,-1
EndSplineSet
Ligature2: "sous-table 'liga' Ligatures standard dans Latin lookup 37" f f igrave
EndChar

StartChar: f_f_imacron.liga
Encoding: 65557 -1 81
Width: 1673
GlyphClass: 3
Flags: W
LayerCount: 2
Fore
SplineSet
1595 835 m 1,0,-1
 1492 0 l 1,1,-1
 1322 0 l 1,2,-1
 1425 835 l 1,3,-1
 1029 835 l 1,4,-1
 926 0 l 1,5,-1
 756 0 l 1,6,-1
 859 835 l 1,7,-1
 442 835 l 1,8,-1
 339 0 l 1,9,-1
 169 0 l 1,10,-1
 271 833 l 1,11,-1
 170 846 l 2,12,13
 150 849 150 849 138.5 859 c 128,-1,14
 127 869 127 869 129 889 c 2,15,-1
 137 958 l 1,16,-1
 287 958 l 1,17,-1
 297 1039 l 2,18,19
 307 1123 307 1123 337.5 1188 c 128,-1,20
 368 1253 368 1253 416 1297.5 c 128,-1,21
 464 1342 464 1342 527 1365 c 128,-1,22
 590 1388 590 1388 665 1388 c 0,23,24
 696 1388 696 1388 724.5 1383 c 128,-1,25
 753 1378 753 1378 779 1369 c 1,26,-1
 765 1284 l 2,27,28
 763 1272 763 1272 756 1266.5 c 128,-1,29
 749 1261 749 1261 738 1259 c 128,-1,30
 727 1257 727 1257 711.5 1257.5 c 128,-1,31
 696 1258 696 1258 677 1258 c 0,32,33
 634 1258 634 1258 597.5 1246.5 c 128,-1,34
 561 1235 561 1235 533 1209 c 128,-1,35
 505 1183 505 1183 486 1140 c 128,-1,36
 467 1097 467 1097 460 1034 c 2,37,-1
 451 958 l 1,38,-1
 874 958 l 1,39,-1
 890 1087 l 2,40,41
 910 1247 910 1247 990.5 1329 c 128,-1,42
 1071 1411 1071 1411 1199 1411 c 0,43,44
 1222 1411 1222 1411 1239 1409 c 128,-1,45
 1256 1407 1256 1407 1273 1402 c 1,46,-1
 1261 1309 l 2,47,48
 1261 1302 1261 1302 1258 1299 c 2,49,-1
 1761 1299 l 1,50,-1
 1747 1188 l 1,51,-1
 1234 1188 l 1,52,-1
 1247 1290 l 1,53,54
 1234 1286 1234 1286 1207 1286 c 0,55,56
 1142 1286 1142 1286 1104.5 1239.5 c 128,-1,57
 1067 1193 1067 1193 1054 1088 c 2,58,-1
 1038 958 l 1,59,-1
 1610 958 l 1,60,-1
 1596 835 l 1,61,-1
 1595 835 l 1,0,-1
EndSplineSet
Ligature2: "sous-table 'liga' Ligatures standard dans Latin lookup 37" f f imacron
EndChar

StartChar: f_f_ibreve.liga
Encoding: 65558 -1 82
Width: 1673
GlyphClass: 3
Flags: W
LayerCount: 2
Fore
SplineSet
1595 835 m 1,0,-1
 1492 0 l 1,1,-1
 1322 0 l 1,2,-1
 1425 835 l 1,3,-1
 1029 835 l 1,4,-1
 926 0 l 1,5,-1
 756 0 l 1,6,-1
 859 835 l 1,7,-1
 442 835 l 1,8,-1
 339 0 l 1,9,-1
 169 0 l 1,10,-1
 271 833 l 1,11,-1
 170 846 l 2,12,13
 150 849 150 849 138.5 859 c 128,-1,14
 127 869 127 869 129 889 c 2,15,-1
 137 958 l 1,16,-1
 287 958 l 1,17,-1
 297 1039 l 2,18,19
 307 1123 307 1123 337.5 1188 c 128,-1,20
 368 1253 368 1253 416 1297.5 c 128,-1,21
 464 1342 464 1342 527 1365 c 128,-1,22
 590 1388 590 1388 665 1388 c 0,23,24
 696 1388 696 1388 724.5 1383 c 128,-1,25
 753 1378 753 1378 779 1369 c 1,26,-1
 765 1284 l 2,27,28
 763 1272 763 1272 756 1266.5 c 128,-1,29
 749 1261 749 1261 738 1259 c 128,-1,30
 727 1257 727 1257 711.5 1257.5 c 128,-1,31
 696 1258 696 1258 677 1258 c 0,32,33
 634 1258 634 1258 597.5 1246.5 c 128,-1,34
 561 1235 561 1235 533 1209 c 128,-1,35
 505 1183 505 1183 486 1140 c 128,-1,36
 467 1097 467 1097 460 1034 c 2,37,-1
 451 958 l 1,38,-1
 874 958 l 1,39,-1
 890 1087 l 2,40,41
 910 1247 910 1247 990.5 1329 c 128,-1,42
 1071 1411 1071 1411 1199 1411 c 0,43,44
 1222 1411 1222 1411 1239 1409 c 128,-1,45
 1256 1407 1256 1407 1273 1402 c 1,46,-1
 1270 1382 l 1,47,-1
 1387 1382 l 1,48,49
 1383 1350 1383 1350 1385.5 1322.5 c 128,-1,50
 1388 1295 1388 1295 1400.5 1275.5 c 128,-1,51
 1413 1256 1413 1256 1436 1245 c 128,-1,52
 1459 1234 1459 1234 1497 1234 c 0,53,54
 1534 1234 1534 1234 1560.5 1245 c 128,-1,55
 1587 1256 1587 1256 1604 1275.5 c 128,-1,56
 1621 1295 1621 1295 1630.5 1322.5 c 128,-1,57
 1640 1350 1640 1350 1644 1382 c 1,58,-1
 1764 1382 l 1,59,60
 1757 1329 1757 1329 1738.5 1282 c 128,-1,61
 1720 1235 1720 1235 1686.5 1200 c 128,-1,62
 1653 1165 1653 1165 1603 1144 c 128,-1,63
 1553 1123 1553 1123 1483 1123 c 0,64,65
 1421 1123 1421 1123 1379 1139.5 c 128,-1,66
 1337 1156 1337 1156 1311 1185 c 128,-1,67
 1285 1214 1285 1214 1274 1252.5 c 128,-1,68
 1263 1291 1263 1291 1264 1336 c 2,69,-1
 1261 1309 l 2,70,71
 1260 1294 1260 1294 1246 1290 c 128,-1,72
 1232 1286 1232 1286 1207 1286 c 0,73,74
 1142 1286 1142 1286 1104.5 1239.5 c 128,-1,75
 1067 1193 1067 1193 1054 1088 c 2,76,-1
 1038 958 l 1,77,-1
 1610 958 l 1,78,-1
 1596 835 l 1,79,-1
 1595 835 l 1,0,-1
EndSplineSet
Ligature2: "sous-table 'liga' Ligatures standard dans Latin lookup 37" f f ibreve
EndChar

StartChar: f_f_iogonek.liga
Encoding: 65559 -1 83
Width: 1654
GlyphClass: 3
Flags: W
LayerCount: 2
Fore
SplineSet
143 0 m 1,0,-1
 245 833 l 1,1,-1
 144 846 l 2,2,3
 124 849 124 849 112.5 859 c 128,-1,4
 101 869 101 869 103 889 c 2,5,-1
 111 958 l 1,6,-1
 261 958 l 1,7,-1
 271 1039 l 2,8,9
 281 1123 281 1123 311.5 1188 c 128,-1,10
 342 1253 342 1253 390 1297.5 c 128,-1,11
 438 1342 438 1342 501 1365 c 128,-1,12
 564 1388 564 1388 639 1388 c 0,13,14
 670 1388 670 1388 698.5 1383 c 128,-1,15
 727 1378 727 1378 753 1369 c 1,16,-1
 739 1284 l 2,17,18
 737 1272 737 1272 730 1266.5 c 128,-1,19
 723 1261 723 1261 712 1259 c 128,-1,20
 701 1257 701 1257 685.5 1257.5 c 128,-1,21
 670 1258 670 1258 651 1258 c 0,22,23
 608 1258 608 1258 571.5 1246.5 c 128,-1,24
 535 1235 535 1235 507 1209 c 128,-1,25
 479 1183 479 1183 460 1140 c 128,-1,26
 441 1097 441 1097 434 1034 c 2,27,-1
 425 958 l 1,28,-1
 848 958 l 1,29,-1
 855 1013 l 2,30,31
 866 1103 866 1103 902 1178 c 128,-1,32
 938 1253 938 1253 999 1306.5 c 128,-1,33
 1060 1360 1060 1360 1144.5 1390 c 128,-1,34
 1229 1420 1229 1420 1336 1420 c 0,35,36
 1371 1420 1371 1420 1408.5 1414.5 c 128,-1,37
 1446 1409 1446 1409 1472 1399 c 1,38,-1
 1455 1312 l 2,39,40
 1451 1293 1451 1293 1429.5 1293.5 c 128,-1,41
 1408 1294 1408 1294 1370 1294 c 0,42,43
 1287 1294 1287 1294 1225 1276.5 c 128,-1,44
 1163 1259 1163 1259 1120.5 1223 c 128,-1,45
 1078 1187 1078 1187 1053 1133.5 c 128,-1,46
 1028 1080 1028 1080 1019 1008 c 2,47,-1
 1012 958 l 1,48,-1
 1584 958 l 1,49,-1
 1570 835 l 1,50,-1
 1569 835 l 1,51,-1
 1466 0 l 1,52,-1
 1422 0 l 1,53,54
 1402 -11 1402 -11 1380.5 -27 c 128,-1,55
 1359 -43 1359 -43 1341 -63.5 c 128,-1,56
 1323 -84 1323 -84 1311.5 -108 c 128,-1,57
 1300 -132 1300 -132 1300 -160 c 0,58,59
 1300 -191 1300 -191 1318.5 -209.5 c 128,-1,60
 1337 -228 1337 -228 1368 -228 c 0,61,62
 1388 -228 1388 -228 1402 -224.5 c 128,-1,63
 1416 -221 1416 -221 1425 -216.5 c 128,-1,64
 1434 -212 1434 -212 1439.5 -208.5 c 128,-1,65
 1445 -205 1445 -205 1449 -205 c 0,66,67
 1463 -205 1463 -205 1466 -217 c 2,68,-1
 1484 -280 l 1,69,70
 1454 -302 1454 -302 1411 -316 c 128,-1,71
 1368 -330 1368 -330 1322 -330 c 0,72,73
 1248 -330 1248 -330 1208 -296.5 c 128,-1,74
 1168 -263 1168 -263 1168 -207 c 0,75,76
 1168 -145 1168 -145 1209.5 -92 c 128,-1,77
 1251 -39 1251 -39 1315 0 c 1,78,-1
 1296 0 l 1,79,-1
 1399 835 l 1,80,-1
 1003 835 l 1,81,-1
 900 0 l 1,82,-1
 730 0 l 1,83,-1
 833 835 l 1,84,-1
 416 835 l 1,85,-1
 313 0 l 1,86,-1
 143 0 l 1,0,-1
EndSplineSet
Ligature2: "sous-table 'liga' Ligatures standard dans Latin lookup 37" f f iogonek
EndChar

StartChar: f_f_dotlessi.liga
Encoding: 65560 -1 84
Width: 1654
GlyphClass: 3
Flags: W
LayerCount: 2
Fore
SplineSet
1569 835 m 1,0,-1
 1466 0 l 1,1,-1
 1296 0 l 1,2,-1
 1399 835 l 1,3,-1
 1003 835 l 1,4,-1
 900 0 l 1,5,-1
 730 0 l 1,6,-1
 833 835 l 1,7,-1
 416 835 l 1,8,-1
 313 0 l 1,9,-1
 143 0 l 1,10,-1
 245 833 l 1,11,-1
 144 846 l 2,12,13
 124 849 124 849 112.5 859 c 128,-1,14
 101 869 101 869 103 889 c 2,15,-1
 111 958 l 1,16,-1
 261 958 l 1,17,-1
 271 1039 l 2,18,19
 281 1123 281 1123 311.5 1188 c 128,-1,20
 342 1253 342 1253 390 1297.5 c 128,-1,21
 438 1342 438 1342 501 1365 c 128,-1,22
 564 1388 564 1388 639 1388 c 0,23,24
 670 1388 670 1388 698.5 1383 c 128,-1,25
 727 1378 727 1378 753 1369 c 1,26,-1
 739 1284 l 2,27,28
 737 1272 737 1272 730 1266.5 c 128,-1,29
 723 1261 723 1261 712 1259 c 128,-1,30
 701 1257 701 1257 685.5 1257.5 c 128,-1,31
 670 1258 670 1258 651 1258 c 0,32,33
 608 1258 608 1258 571.5 1246.5 c 128,-1,34
 535 1235 535 1235 507 1209 c 128,-1,35
 479 1183 479 1183 460 1140 c 128,-1,36
 441 1097 441 1097 434 1034 c 2,37,-1
 425 958 l 1,38,-1
 848 958 l 1,39,-1
 864 1087 l 2,40,41
 884 1247 884 1247 964.5 1329 c 128,-1,42
 1045 1411 1045 1411 1173 1411 c 0,43,44
 1196 1411 1196 1411 1213 1409 c 128,-1,45
 1230 1407 1230 1407 1247 1402 c 1,46,-1
 1235 1309 l 2,47,48
 1234 1294 1234 1294 1220 1290 c 128,-1,49
 1206 1286 1206 1286 1181 1286 c 0,50,51
 1116 1286 1116 1286 1078.5 1239.5 c 128,-1,52
 1041 1193 1041 1193 1028 1088 c 2,53,-1
 1012 958 l 1,54,-1
 1584 958 l 1,55,-1
 1570 835 l 1,56,-1
 1569 835 l 1,0,-1
EndSplineSet
Ligature2: "sous-table 'liga' Ligatures standard dans Latin lookup 37" f f dotlessi
EndChar

StartChar: f_j.liga
Encoding: 65561 -1 85
Width: 1084
GlyphClass: 3
Flags: W
LayerCount: 2
Fore
SplineSet
149 0 m 1,0,-1
 251 833 l 1,1,-1
 144 846 l 2,2,3
 124 849 124 849 112.5 859 c 128,-1,4
 101 869 101 869 103 889 c 2,5,-1
 112 958 l 1,6,-1
 266 958 l 1,7,-1
 273 1013 l 2,8,9
 284 1103 284 1103 321.5 1178 c 128,-1,10
 359 1253 359 1253 421 1306.5 c 128,-1,11
 483 1360 483 1360 569.5 1390 c 128,-1,12
 656 1420 656 1420 766 1420 c 0,13,14
 802 1420 802 1420 841 1414.5 c 128,-1,15
 880 1409 880 1409 906 1399 c 1,16,-1
 890 1312 l 2,17,18
 888 1303 888 1303 881 1299 c 128,-1,19
 874 1295 874 1295 863 1294 c 128,-1,20
 852 1293 852 1293 836 1293.5 c 128,-1,21
 820 1294 820 1294 799 1294 c 0,22,23
 629 1294 629 1294 542 1223 c 128,-1,24
 455 1152 455 1152 437 1008 c 2,25,-1
 431 958 l 1,26,-1
 1022 958 l 1,27,-1
 894 -75 l 2,28,29
 887 -133 887 -133 865.5 -183.5 c 128,-1,30
 844 -234 844 -234 806 -271.5 c 128,-1,31
 768 -309 768 -309 713 -330.5 c 128,-1,32
 658 -352 658 -352 585 -352 c 0,33,34
 553 -352 553 -352 529 -347 c 128,-1,35
 505 -342 505 -342 479 -333 c 1,36,-1
 497 -242 l 2,37,38
 500 -233 500 -233 504 -229 c 128,-1,39
 508 -225 508 -225 515.5 -224 c 128,-1,40
 523 -223 523 -223 535 -223.5 c 128,-1,41
 547 -224 547 -224 566 -224 c 0,42,43
 641 -224 641 -224 677.5 -188.5 c 128,-1,44
 714 -153 714 -153 724 -75 c 2,45,-1
 837 835 l 1,46,-1
 422 835 l 1,47,-1
 319 0 l 1,48,-1
 149 0 l 1,0,-1
EndSplineSet
Ligature2: "sous-table 'liga' Ligatures standard dans Latin lookup 37" f j
EndChar

StartChar: f_f_j.liga
Encoding: 65562 -1 86
Width: 1655
GlyphClass: 3
Flags: W
LayerCount: 2
Fore
SplineSet
145 0 m 1,0,-1
 247 833 l 1,1,-1
 144 846 l 2,2,3
 124 849 124 849 112.5 859 c 128,-1,4
 101 869 101 869 103 889 c 2,5,-1
 111 958 l 1,6,-1
 263 958 l 1,7,-1
 273 1039 l 2,8,9
 283 1123 283 1123 314 1188 c 128,-1,10
 345 1253 345 1253 393 1297.5 c 128,-1,11
 441 1342 441 1342 504.5 1365 c 128,-1,12
 568 1388 568 1388 643 1388 c 0,13,14
 675 1388 675 1388 704 1383 c 128,-1,15
 733 1378 733 1378 759 1369 c 1,16,-1
 745 1284 l 2,17,18
 741 1261 741 1261 718 1259.5 c 128,-1,19
 695 1258 695 1258 656 1258 c 0,20,21
 613 1258 613 1258 576 1246.5 c 128,-1,22
 539 1235 539 1235 510.5 1209 c 128,-1,23
 482 1183 482 1183 462.5 1140 c 128,-1,24
 443 1097 443 1097 436 1034 c 2,25,-1
 427 958 l 1,26,-1
 857 958 l 1,27,-1
 864 1013 l 2,28,29
 874 1103 874 1103 910.5 1178 c 128,-1,30
 947 1253 947 1253 1008.5 1306.5 c 128,-1,31
 1070 1360 1070 1360 1155 1390 c 128,-1,32
 1240 1420 1240 1420 1348 1420 c 0,33,34
 1383 1420 1383 1420 1421 1414.5 c 128,-1,35
 1459 1409 1459 1409 1485 1399 c 1,36,-1
 1469 1312 l 2,37,38
 1465 1293 1465 1293 1442.5 1293.5 c 128,-1,39
 1420 1294 1420 1294 1382 1294 c 0,40,41
 1214 1294 1214 1294 1130 1223 c 128,-1,42
 1046 1152 1046 1152 1028 1008 c 2,43,-1
 1021 958 l 1,44,-1
 1598 958 l 1,45,-1
 1584 835 l 1,46,-1
 1582 835 l 1,47,-1
 1471 -75 l 2,48,49
 1464 -133 1464 -133 1442.5 -183.5 c 128,-1,50
 1421 -234 1421 -234 1383.5 -271.5 c 128,-1,51
 1346 -309 1346 -309 1292.5 -330.5 c 128,-1,52
 1239 -352 1239 -352 1167 -352 c 0,53,54
 1136 -352 1136 -352 1110.5 -347 c 128,-1,55
 1085 -342 1085 -342 1061 -333 c 1,56,-1
 1080 -242 l 2,57,58
 1082 -233 1082 -233 1086 -229 c 128,-1,59
 1090 -225 1090 -225 1097.5 -224 c 128,-1,60
 1105 -223 1105 -223 1117 -223.5 c 128,-1,61
 1129 -224 1129 -224 1147 -224 c 0,62,63
 1221 -224 1221 -224 1256 -188.5 c 128,-1,64
 1291 -153 1291 -153 1301 -75 c 2,65,-1
 1413 835 l 1,66,-1
 1012 835 l 1,67,-1
 909 0 l 1,68,-1
 739 0 l 1,69,-1
 842 835 l 1,70,-1
 418 835 l 1,71,-1
 315 0 l 1,72,-1
 145 0 l 1,0,-1
EndSplineSet
Ligature2: "sous-table 'liga' Ligatures standard dans Latin lookup 37" f f j
EndChar

StartChar: f_k.liga
Encoding: 65563 -1 87
Width: 1545
GlyphClass: 3
Flags: W
LayerCount: 2
Fore
SplineSet
135 0 m 1,0,-1
 237 834 l 1,1,-1
 143 846 l 2,2,3
 123 849 123 849 112 859 c 128,-1,4
 101 869 101 869 103 889 c 2,5,-1
 111 958 l 1,6,-1
 252 958 l 1,7,-1
 262 1038 l 2,8,9
 273 1125 273 1125 305.5 1199 c 128,-1,10
 338 1273 338 1273 396 1327 c 128,-1,11
 454 1381 454 1381 538.5 1411 c 128,-1,12
 623 1441 623 1441 739 1441 c 0,13,14
 773 1441 773 1441 803.5 1438.5 c 128,-1,15
 834 1436 834 1436 864.5 1433 c 128,-1,16
 895 1430 895 1430 927 1426.5 c 128,-1,17
 959 1423 959 1423 997 1422 c 2,18,-1
 1041 1422 l 1,19,-1
 1041 1421 l 1,20,-1
 1053 1421 l 1,21,-1
 1039 1411 l 1,22,-1
 938 586 l 1,23,-1
 968 586 l 2,24,25
 988 586 988 586 1000.5 591.5 c 128,-1,26
 1013 597 1013 597 1028 613 c 2,27,-1
 1349 944 l 2,28,29
 1364 960 1364 960 1379 969 c 128,-1,30
 1394 978 1394 978 1417 978 c 2,31,-1
 1572 978 l 1,32,-1
 1198 594 l 2,33,34
 1183 578 1183 578 1168.5 565.5 c 128,-1,35
 1154 553 1154 553 1137 543 c 1,36,37
 1153 532 1153 532 1165 516.5 c 128,-1,38
 1177 501 1177 501 1188 483 c 2,39,-1
 1476 0 l 1,40,-1
 1326 0 l 2,41,42
 1305 0 1305 0 1291 7.5 c 128,-1,43
 1277 15 1277 15 1266 33 c 2,44,-1
 1021 434 l 2,45,46
 1009 454 1009 454 996.5 460.5 c 128,-1,47
 984 467 984 467 957 467 c 2,48,-1
 924 467 l 1,49,-1
 867 0 l 1,50,-1
 694 0 l 1,51,-1
 854 1307 l 1,52,53
 820 1317 820 1317 784.5 1323 c 128,-1,54
 749 1329 749 1329 716 1329 c 0,55,56
 650 1329 650 1329 599.5 1307 c 128,-1,57
 549 1285 549 1285 513 1246.5 c 128,-1,58
 477 1208 477 1208 455.5 1154.5 c 128,-1,59
 434 1101 434 1101 427 1038 c 2,60,-1
 417 958 l 1,61,-1
 672 958 l 1,62,-1
 657 835 l 1,63,-1
 408 835 l 1,64,-1
 305 0 l 1,65,-1
 135 0 l 1,0,-1
EndSplineSet
Ligature2: "sous-table 'liga' Ligatures standard dans Latin lookup 37" f k
EndChar

StartChar: f_f_k.liga
Encoding: 65564 -1 88
Width: 2115
GlyphClass: 3
Flags: W
LayerCount: 2
Fore
SplineSet
136 0 m 1,0,-1
 238 834 l 1,1,-1
 143 846 l 2,2,3
 123 849 123 849 112 859 c 128,-1,4
 101 869 101 869 103 889 c 2,5,-1
 111 958 l 1,6,-1
 254 958 l 1,7,-1
 264 1039 l 2,8,9
 274 1123 274 1123 304 1188 c 128,-1,10
 334 1253 334 1253 380.5 1297.5 c 128,-1,11
 427 1342 427 1342 488 1365 c 128,-1,12
 549 1388 549 1388 622 1388 c 0,13,14
 680 1388 680 1388 732 1369 c 1,15,-1
 717 1284 l 2,16,17
 715 1272 715 1272 708.5 1266.5 c 128,-1,18
 702 1261 702 1261 691.5 1259 c 128,-1,19
 681 1257 681 1257 666.5 1257.5 c 128,-1,20
 652 1258 652 1258 634 1258 c 0,21,22
 593 1258 593 1258 558.5 1246.5 c 128,-1,23
 524 1235 524 1235 497 1209 c 128,-1,24
 470 1183 470 1183 452 1140 c 128,-1,25
 434 1097 434 1097 427 1034 c 2,26,-1
 418 958 l 1,27,-1
 818 958 l 1,28,-1
 828 1038 l 2,29,30
 839 1125 839 1125 871.5 1199 c 128,-1,31
 904 1273 904 1273 962 1327 c 128,-1,32
 1020 1381 1020 1381 1105 1411 c 128,-1,33
 1190 1441 1190 1441 1306 1441 c 0,34,35
 1340 1441 1340 1441 1370.5 1438.5 c 128,-1,36
 1401 1436 1401 1436 1432 1433 c 128,-1,37
 1463 1430 1463 1430 1495 1426.5 c 128,-1,38
 1527 1423 1527 1423 1564 1422 c 2,39,-1
 1614 1422 l 1,40,-1
 1614 1421 l 1,41,-1
 1619 1421 l 1,42,-1
 1613 1417 l 1,43,-1
 1512 586 l 1,44,-1
 1541 586 l 2,45,46
 1561 586 1561 586 1573.5 591.5 c 128,-1,47
 1586 597 1586 597 1601 613 c 2,48,-1
 1922 944 l 2,49,50
 1937 960 1937 960 1952 969 c 128,-1,51
 1967 978 1967 978 1990 978 c 2,52,-1
 2145 978 l 1,53,-1
 1771 594 l 2,54,55
 1756 578 1756 578 1741.5 565.5 c 128,-1,56
 1727 553 1727 553 1710 543 c 1,57,58
 1726 532 1726 532 1738 516.5 c 128,-1,59
 1750 501 1750 501 1761 483 c 2,60,-1
 2049 0 l 1,61,-1
 1899 0 l 2,62,63
 1878 0 1878 0 1864 7.5 c 128,-1,64
 1850 15 1850 15 1839 33 c 2,65,-1
 1594 434 l 2,66,67
 1582 454 1582 454 1569.5 460.5 c 128,-1,68
 1557 467 1557 467 1530 467 c 2,69,-1
 1497 467 l 1,70,-1
 1440 0 l 1,71,-1
 1267 0 l 1,72,-1
 1427 1306 l 1,73,74
 1392 1316 1392 1316 1354.5 1322.5 c 128,-1,75
 1317 1329 1317 1329 1282 1329 c 0,76,77
 1216 1329 1216 1329 1165.5 1307 c 128,-1,78
 1115 1285 1115 1285 1079 1246.5 c 128,-1,79
 1043 1208 1043 1208 1021.5 1154.5 c 128,-1,80
 1000 1101 1000 1101 992 1038 c 2,81,-1
 982 958 l 1,82,-1
 1239 958 l 1,83,-1
 1223 835 l 1,84,-1
 973 835 l 1,85,-1
 870 0 l 1,86,-1
 700 0 l 1,87,-1
 803 835 l 1,88,-1
 409 835 l 1,89,-1
 306 0 l 1,90,-1
 136 0 l 1,0,-1
EndSplineSet
Ligature2: "sous-table 'liga' Ligatures standard dans Latin lookup 37" f f k
EndChar

StartChar: uniFB02
Encoding: 64258 64258 89
Width: 1084
GlyphClass: 3
Flags: W
LayerCount: 2
Fore
SplineSet
369 833 m 1,0,-1
 270 31 l 1,1,-1
 221 -167 l 2,2,3
 213 -203 213 -203 192.5 -222 c 128,-1,4
 172 -241 172 -241 134 -241 c 2,5,-1
 65 -241 l 1,6,-1
 196 831 l 1,7,-1
 99 843 l 2,8,9
 79 846 79 846 68 856 c 128,-1,10
 57 866 57 866 59 886 c 2,11,-1
 67 960 l 1,12,-1
 212 960 l 1,13,-1
 219 1012 l 2,14,15
 229 1093 229 1093 261.5 1165.5 c 128,-1,16
 294 1238 294 1238 347.5 1292 c 128,-1,17
 401 1346 401 1346 476 1377.5 c 128,-1,18
 551 1409 551 1409 646 1409 c 0,19,20
 717 1409 717 1409 781.5 1403 c 128,-1,21
 846 1397 846 1397 908 1396 c 2,22,-1
 1025 1396 l 1,23,-1
 855 0 l 1,24,-1
 684 0 l 1,25,-1
 838 1268 l 1,26,27
 793 1272 793 1272 746.5 1277 c 128,-1,28
 700 1282 700 1282 657 1282 c 0,29,30
 542 1282 542 1282 470 1212 c 128,-1,31
 398 1142 398 1142 384 1012 c 2,32,-1
 378 960 l 1,33,-1
 614 960 l 1,34,-1
 599 833 l 1,35,-1
 369 833 l 1,0,-1
EndSplineSet
Ligature2: "sous-table 'liga' Ligatures standard dans Latin lookup 37" f l
EndChar

StartChar: uniFB04
Encoding: 64260 64260 90
Width: 1654
GlyphClass: 3
Flags: W
LayerCount: 2
Fore
SplineSet
138 0 m 1,0,-1
 240 833 l 1,1,-1
 143 846 l 2,2,3
 123 849 123 849 112 859 c 128,-1,4
 101 869 101 869 103 889 c 2,5,-1
 111 958 l 1,6,-1
 256 958 l 1,7,-1
 266 1039 l 2,8,9
 276 1123 276 1123 306.5 1188 c 128,-1,10
 337 1253 337 1253 384 1297.5 c 128,-1,11
 431 1342 431 1342 492.5 1365 c 128,-1,12
 554 1388 554 1388 628 1388 c 0,13,14
 659 1388 659 1388 686.5 1383 c 128,-1,15
 714 1378 714 1378 740 1369 c 1,16,-1
 725 1284 l 2,17,18
 721 1261 721 1261 699 1259.5 c 128,-1,19
 677 1258 677 1258 640 1258 c 0,20,21
 599 1258 599 1258 563.5 1246.5 c 128,-1,22
 528 1235 528 1235 501 1209 c 128,-1,23
 474 1183 474 1183 455.5 1140 c 128,-1,24
 437 1097 437 1097 429 1034 c 2,25,-1
 419 958 l 1,26,-1
 828 958 l 1,27,-1
 835 1010 l 2,28,29
 845 1092 845 1092 877.5 1164.5 c 128,-1,30
 910 1237 910 1237 963.5 1291.5 c 128,-1,31
 1017 1346 1017 1346 1092 1377.5 c 128,-1,32
 1167 1409 1167 1409 1262 1409 c 0,33,34
 1332 1409 1332 1409 1396.5 1403 c 128,-1,35
 1461 1397 1461 1397 1523 1396 c 2,36,-1
 1638 1396 l 1,37,-1
 1466 0 l 1,38,-1
 1298 0 l 1,39,-1
 1454 1278 l 1,40,41
 1406 1280 1406 1280 1357 1283 c 128,-1,42
 1308 1286 1308 1286 1273 1286 c 0,43,44
 1158 1286 1158 1286 1087 1212.5 c 128,-1,45
 1016 1139 1016 1139 1000 1010 c 2,46,-1
 993 958 l 1,47,-1
 1254 958 l 1,48,-1
 1240 835 l 1,49,-1
 984 835 l 1,50,-1
 881 0 l 1,51,-1
 711 0 l 1,52,-1
 813 835 l 1,53,-1
 411 835 l 1,54,-1
 308 0 l 1,55,-1
 138 0 l 1,0,-1
EndSplineSet
Ligature2: "sous-table 'liga' Ligatures standard dans Latin lookup 37" f f l
EndChar

StartChar: f_t.liga
Encoding: 65565 -1 91
Width: 1252
GlyphClass: 3
Flags: W
LayerCount: 2
Fore
SplineSet
1003 835 m 1,0,-1
 930 245 l 2,1,2
 922 183 922 183 946 153 c 128,-1,3
 970 123 970 123 1014 123 c 0,4,5
 1039 123 1039 123 1058 130.5 c 128,-1,6
 1077 138 1077 138 1091 146.5 c 128,-1,7
 1105 155 1105 155 1115.5 162.5 c 128,-1,8
 1126 170 1126 170 1134 170 c 0,9,10
 1149 170 1149 170 1156 154 c 2,11,-1
 1196 73 l 1,12,13
 1148 31 1148 31 1085 8 c 128,-1,14
 1022 -15 1022 -15 959 -15 c 0,15,16
 848 -15 848 -15 796 49 c 128,-1,17
 744 113 744 113 759 234 c 2,18,-1
 832 835 l 1,19,-1
 412 835 l 1,20,-1
 309 0 l 1,21,-1
 139 0 l 1,22,-1
 241 834 l 1,23,-1
 143 846 l 2,24,25
 123 849 123 849 112 859 c 128,-1,26
 101 869 101 869 103 889 c 2,27,-1
 111 958 l 1,28,-1
 256 958 l 1,29,-1
 268 1054 l 2,30,31
 278 1138 278 1138 308.5 1203 c 128,-1,32
 339 1268 339 1268 386.5 1312.5 c 128,-1,33
 434 1357 434 1357 496 1380 c 128,-1,34
 558 1403 558 1403 632 1403 c 0,35,36
 662 1403 662 1403 690.5 1398 c 128,-1,37
 719 1393 719 1393 745 1384 c 1,38,-1
 730 1299 l 2,39,40
 725 1276 725 1276 703 1274.5 c 128,-1,41
 681 1273 681 1273 645 1273 c 0,42,43
 603 1273 603 1273 567 1261.5 c 128,-1,44
 531 1250 531 1250 503.5 1223.5 c 128,-1,45
 476 1197 476 1197 457.5 1154 c 128,-1,46
 439 1111 439 1111 432 1048 c 2,47,-1
 421 958 l 1,48,-1
 853 958 l 1,49,-1
 931 1263 l 2,50,51
 935 1277 935 1277 946.5 1286 c 128,-1,52
 958 1295 958 1295 974 1295 c 2,53,-1
 1060 1295 l 1,54,-1
 1018 958 l 1,55,-1
 1282 958 l 1,56,-1
 1268 835 l 1,57,-1
 1003 835 l 1,0,-1
EndSplineSet
Ligature2: "sous-table 'liga' Ligatures standard dans Latin lookup 37" f t
EndChar

StartChar: f_f_t.liga
Encoding: 65566 -1 92
Width: 1823
GlyphClass: 3
Flags: W
LayerCount: 2
Fore
SplineSet
139 0 m 1,0,-1
 241 833 l 1,1,-1
 143 846 l 2,2,3
 123 849 123 849 112 859 c 128,-1,4
 101 869 101 869 103 889 c 2,5,-1
 111 958 l 1,6,-1
 257 958 l 1,7,-1
 267 1039 l 2,8,9
 277 1123 277 1123 307.5 1188 c 128,-1,10
 338 1253 338 1253 385 1297.5 c 128,-1,11
 432 1342 432 1342 493.5 1365 c 128,-1,12
 555 1388 555 1388 629 1388 c 0,13,14
 689 1388 689 1388 741 1369 c 1,15,-1
 727 1284 l 2,16,17
 723 1261 723 1261 700.5 1259.5 c 128,-1,18
 678 1258 678 1258 641 1258 c 0,19,20
 599 1258 599 1258 564 1246.5 c 128,-1,21
 529 1235 529 1235 501.5 1209 c 128,-1,22
 474 1183 474 1183 455.5 1140 c 128,-1,23
 437 1097 437 1097 430 1034 c 2,24,-1
 421 958 l 1,25,-1
 830 958 l 1,26,-1
 842 1054 l 2,27,28
 852 1138 852 1138 882.5 1203 c 128,-1,29
 913 1268 913 1268 960 1312.5 c 128,-1,30
 1007 1357 1007 1357 1069 1380 c 128,-1,31
 1131 1403 1131 1403 1205 1403 c 0,32,33
 1236 1403 1236 1403 1264 1398 c 128,-1,34
 1292 1393 1292 1393 1318 1384 c 1,35,-1
 1303 1299 l 2,36,37
 1299 1276 1299 1276 1276.5 1274.5 c 128,-1,38
 1254 1273 1254 1273 1218 1273 c 0,39,40
 1176 1273 1176 1273 1141 1261.5 c 128,-1,41
 1106 1250 1106 1250 1079 1223.5 c 128,-1,42
 1052 1197 1052 1197 1033.5 1154 c 128,-1,43
 1015 1111 1015 1111 1007 1048 c 2,44,-1
 995 958 l 1,45,-1
 1427 958 l 1,46,-1
 1504 1263 l 2,47,48
 1512 1295 1512 1295 1546 1295 c 2,49,-1
 1632 1295 l 1,50,-1
 1590 958 l 1,51,-1
 1855 958 l 1,52,-1
 1839 835 l 1,53,-1
 1575 835 l 1,54,-1
 1503 245 l 2,55,56
 1495 183 1495 183 1518.5 153 c 128,-1,57
 1542 123 1542 123 1586 123 c 0,58,59
 1611 123 1611 123 1630 130.5 c 128,-1,60
 1649 138 1649 138 1663.5 146.5 c 128,-1,61
 1678 155 1678 155 1688 162.5 c 128,-1,62
 1698 170 1698 170 1705 170 c 0,63,64
 1713 170 1713 170 1717.5 166 c 128,-1,65
 1722 162 1722 162 1727 154 c 2,66,-1
 1768 73 l 1,67,68
 1720 31 1720 31 1657 8 c 128,-1,69
 1594 -15 1594 -15 1530 -15 c 0,70,71
 1421 -15 1421 -15 1369 49 c 128,-1,72
 1317 113 1317 113 1332 234 c 2,73,-1
 1406 835 l 1,74,-1
 986 835 l 1,75,-1
 883 0 l 1,76,-1
 713 0 l 1,77,-1
 815 835 l 1,78,-1
 412 835 l 1,79,-1
 309 0 l 1,80,-1
 139 0 l 1,0,-1
EndSplineSet
Ligature2: "sous-table 'liga' Ligatures standard dans Latin lookup 37" f f t
EndChar

StartChar: g
Encoding: 103 103 93
Width: 1053
GlyphClass: 2
Flags: W
LayerCount: 2
Fore
SplineSet
871 707 m 0,0,1
 871 659 871 659 859.5 621 c 128,-1,2
 848 583 848 583 830.5 550 c 128,-1,3
 813 517 813 517 792.5 488.5 c 128,-1,4
 772 460 772 460 754 431.5 c 128,-1,5
 736 403 736 403 724 373 c 128,-1,6
 712 343 712 343 712 308 c 0,7,8
 712 281 712 281 722 257.5 c 128,-1,9
 732 234 732 234 748 211 c 128,-1,10
 764 188 764 188 782 164.5 c 128,-1,11
 800 141 800 141 816 115 c 128,-1,12
 832 89 832 89 842.5 58.5 c 128,-1,13
 853 28 853 28 853 -9 c 0,14,15
 853 -77 853 -77 820 -139 c 128,-1,16
 787 -201 787 -201 724.5 -248 c 128,-1,17
 662 -295 662 -295 573 -323 c 128,-1,18
 484 -351 484 -351 373 -351 c 0,19,20
 284 -351 284 -351 210.5 -333.5 c 128,-1,21
 137 -316 137 -316 85 -284 c 128,-1,22
 33 -252 33 -252 4 -207 c 128,-1,23
 -25 -162 -25 -162 -25 -108 c 0,24,25
 -25 -46 -25 -46 2 1.5 c 128,-1,26
 29 49 29 49 75.5 83.5 c 128,-1,27
 122 118 122 118 184 139.5 c 128,-1,28
 246 161 246 161 316.5 171.5 c 128,-1,29
 387 182 387 182 461.5 182 c 128,-1,30
 536 182 536 182 608 172 c 1,31,32
 598 190 598 190 592 210 c 128,-1,33
 586 230 586 230 586 253 c 0,34,35
 586 282 586 282 595 314.5 c 128,-1,36
 604 347 604 347 627 385 c 1,37,38
 587 360 587 360 539.5 346.5 c 128,-1,39
 492 333 492 333 431 333 c 0,40,41
 371 333 371 333 318.5 351.5 c 128,-1,42
 266 370 266 370 227.5 406 c 128,-1,43
 189 442 189 442 166.5 496 c 128,-1,44
 144 550 144 550 144 622 c 0,45,46
 144 692 144 692 170.5 758.5 c 128,-1,47
 197 825 197 825 248.5 877 c 128,-1,48
 300 929 300 929 376 960.5 c 128,-1,49
 452 992 452 992 551 992 c 0,50,51
 662 992 662 992 745 943 c 1,52,-1
 1029 943 l 1,53,-1
 1022 885 l 2,54,55
 1020 868 1020 868 1010.5 855.5 c 128,-1,56
 1001 843 1001 843 983 840 c 2,57,-1
 851 817 l 1,58,59
 871 768 871 768 871 707 c 0,0,1
478 442 m 0,60,61
 534 442 534 442 577.5 464.5 c 128,-1,62
 621 487 621 487 650.5 523 c 128,-1,63
 680 559 680 559 695.5 605 c 128,-1,64
 711 651 711 651 711 698 c 0,65,66
 711 783 711 783 664.5 827.5 c 128,-1,67
 618 872 618 872 534 872 c 0,68,69
 478 872 478 872 434.5 851 c 128,-1,70
 391 830 391 830 362 795 c 128,-1,71
 333 760 333 760 318 714.5 c 128,-1,72
 303 669 303 669 303 621 c 0,73,74
 303 534 303 534 349.5 488 c 128,-1,75
 396 442 396 442 478 442 c 0,60,61
693 -22 m 0,76,77
 693 3 693 3 687.5 23.5 c 128,-1,78
 682 44 682 44 674 63 c 1,79,80
 535 84 535 84 434.5 79 c 128,-1,81
 334 74 334 74 268.5 51 c 128,-1,82
 203 28 203 28 172 -8 c 128,-1,83
 141 -44 141 -44 141 -86 c 0,84,85
 141 -155 141 -155 205 -191.5 c 128,-1,86
 269 -228 269 -228 386 -228 c 0,87,88
 455 -228 455 -228 512 -211.5 c 128,-1,89
 569 -195 569 -195 609 -167 c 128,-1,90
 649 -139 649 -139 671 -101.5 c 128,-1,91
 693 -64 693 -64 693 -22 c 0,76,77
EndSplineSet
Substitution2: "sous-table 'ordn' Ordinaux dans Latin lookup 39" g.superior
Substitution2: "sous-table 'ss04' Style 4 lookups34" g.salt
Substitution2: "sous-table 'salt' Alternatives stylistiques lookups28" g.salt
Substitution2: "sous-table 'sups' Exposant lookups25" g.superior
EndChar

StartChar: g.salt
Encoding: 65567 -1 94
Width: 964
GlyphClass: 2
Flags: W
LayerCount: 2
Fore
SplineSet
933 977 m 1,0,-1
 820 54 l 2,1,2
 809 -34 809 -34 772 -108 c 128,-1,3
 735 -182 735 -182 676 -235.5 c 128,-1,4
 617 -289 617 -289 536.5 -319 c 128,-1,5
 456 -349 456 -349 359 -349 c 0,6,7
 304 -349 304 -349 258.5 -340 c 128,-1,8
 213 -331 213 -331 176 -314.5 c 128,-1,9
 139 -298 139 -298 109.5 -276 c 128,-1,10
 80 -254 80 -254 57 -228 c 1,11,-1
 106 -163 l 2,12,13
 115 -151 115 -151 125.5 -144.5 c 128,-1,14
 136 -138 136 -138 153 -138 c 256,15,16
 170 -138 170 -138 186 -152 c 128,-1,17
 202 -166 202 -166 225 -182.5 c 128,-1,18
 248 -199 248 -199 282.5 -212.5 c 128,-1,19
 317 -226 317 -226 370 -226 c 0,20,21
 431 -226 431 -226 480 -205.5 c 128,-1,22
 529 -185 529 -185 564 -148.5 c 128,-1,23
 599 -112 599 -112 620.5 -62.5 c 128,-1,24
 642 -13 642 -13 649 45 c 2,25,-1
 662 155 l 1,26,27
 630 119 630 119 598 92 c 128,-1,28
 566 65 566 65 532 47 c 128,-1,29
 498 29 498 29 460.5 20 c 128,-1,30
 423 11 423 11 379 11 c 0,31,32
 310 11 310 11 256.5 37.5 c 128,-1,33
 203 64 203 64 166 113.5 c 128,-1,34
 129 163 129 163 110 235 c 128,-1,35
 91 307 91 307 91 398 c 0,36,37
 91 525 91 525 123.5 634.5 c 128,-1,38
 156 744 156 744 214.5 823.5 c 128,-1,39
 273 903 273 903 354.5 948.5 c 128,-1,40
 436 994 436 994 534 994 c 0,41,42
 618 994 618 994 671 960.5 c 128,-1,43
 724 927 724 927 762 867 c 1,44,-1
 784 942 l 2,45,46
 794 977 794 977 831 977 c 2,47,-1
 933 977 l 1,0,-1
441 147 m 0,48,49
 511 147 511 147 568 185 c 128,-1,50
 625 223 625 223 679 293 c 1,51,-1
 735 747 l 1,52,53
 703 810 703 810 658.5 836.5 c 128,-1,54
 614 863 614 863 556 863 c 0,55,56
 489 863 489 863 435.5 832 c 128,-1,57
 382 801 382 801 344.5 742.5 c 128,-1,58
 307 684 307 684 286.5 599.5 c 128,-1,59
 266 515 266 515 266 407 c 0,60,61
 266 274 266 274 311 210.5 c 128,-1,62
 356 147 356 147 441 147 c 0,48,49
EndSplineSet
EndChar

StartChar: h
Encoding: 104 104 95
Width: 1053
GlyphClass: 2
Flags: W
LayerCount: 2
Fore
SplineSet
80 0 m 1,0,-1
 251 1422 l 1,1,-1
 426 1422 l 1,2,-1
 346 759 l 1,3,4
 424 874 424 874 520 933 c 128,-1,5
 616 992 616 992 716 992 c 0,6,7
 780 992 780 992 829 967.5 c 128,-1,8
 878 943 878 943 908.5 896 c 128,-1,9
 939 849 939 849 950 780 c 128,-1,10
 961 711 961 711 950 623 c 2,11,-1
 877 0 l 1,12,-1
 702 0 l 1,13,-1
 775 623 l 2,14,15
 789 738 789 738 760 793 c 128,-1,16
 731 848 731 848 652 848 c 0,17,18
 607 848 607 848 559.5 824.5 c 128,-1,19
 512 801 512 801 468 758 c 128,-1,20
 424 715 424 715 384.5 653.5 c 128,-1,21
 345 592 345 592 317 517 c 1,22,-1
 255 0 l 1,23,-1
 80 0 l 1,0,-1
EndSplineSet
Substitution2: "sous-table 'ordn' Ordinaux dans Latin lookup 39" h.superior
Substitution2: "sous-table 'sups' Exposant lookups25" h.superior
EndChar

StartChar: hcircumflex
Encoding: 293 293 96
Width: 1053
GlyphClass: 2
Flags: W
LayerCount: 2
Fore
SplineSet
80 0 m 1,0,-1
 251 1422 l 1,1,-1
 426 1422 l 1,2,-1
 346 759 l 1,3,4
 424 874 424 874 520 933 c 128,-1,5
 616 992 616 992 716 992 c 0,6,7
 780 992 780 992 829 967.5 c 128,-1,8
 878 943 878 943 908.5 896 c 128,-1,9
 939 849 939 849 950 780 c 128,-1,10
 961 711 961 711 950 623 c 2,11,-1
 877 0 l 1,12,-1
 702 0 l 1,13,-1
 775 623 l 2,14,15
 789 738 789 738 760 793 c 128,-1,16
 731 848 731 848 652 848 c 0,17,18
 607 848 607 848 559.5 824.5 c 128,-1,19
 512 801 512 801 468 758 c 128,-1,20
 424 715 424 715 384.5 653.5 c 128,-1,21
 345 592 345 592 317 517 c 1,22,-1
 255 0 l 1,23,-1
 80 0 l 1,0,-1
638 1492 m 1,24,-1
 508 1492 l 2,25,26
 497 1492 497 1492 485 1495.5 c 128,-1,27
 473 1499 473 1499 466 1505 c 2,28,-1
 360 1596 l 1,29,-1
 350 1605 l 1,30,-1
 338 1596 l 1,31,-1
 209 1505 l 2,32,33
 200 1498 200 1498 187 1495 c 128,-1,34
 174 1492 174 1492 162 1492 c 2,35,-1
 34 1492 l 1,36,-1
 277 1694 l 1,37,-1
 443 1694 l 1,38,-1
 638 1492 l 1,24,-1
EndSplineSet
EndChar

StartChar: hbar
Encoding: 295 295 97
Width: 1066
GlyphClass: 2
Flags: W
LayerCount: 2
Fore
SplineSet
73 1214 m 1,0,-1
 227 1214 l 1,1,-1
 253 1422 l 1,2,-1
 428 1422 l 1,3,-1
 403 1214 l 1,4,-1
 652 1214 l 1,5,-1
 642 1150 l 2,6,7
 638 1127 638 1127 623 1114.5 c 128,-1,8
 608 1102 608 1102 582 1102 c 2,9,-1
 389 1102 l 1,10,-1
 345 737 l 1,11,12
 424 852 424 852 521.5 911.5 c 128,-1,13
 619 971 619 971 722 971 c 0,14,15
 787 971 787 971 836.5 946.5 c 128,-1,16
 886 922 886 922 916.5 874.5 c 128,-1,17
 947 827 947 827 958.5 758.5 c 128,-1,18
 970 690 970 690 959 602 c 2,19,-1
 887 0 l 1,20,-1
 712 0 l 1,21,-1
 784 602 l 2,22,23
 798 716 798 716 768.5 771.5 c 128,-1,24
 739 827 739 827 658 827 c 0,25,26
 611 827 611 827 562.5 803 c 128,-1,27
 514 779 514 779 468.5 734.5 c 128,-1,28
 423 690 423 690 383 627.5 c 128,-1,29
 343 565 343 565 315 488 c 1,30,-1
 256 0 l 1,31,-1
 80 0 l 1,32,-1
 214 1102 l 1,33,-1
 59 1102 l 1,34,-1
 73 1214 l 1,0,-1
EndSplineSet
EndChar

StartChar: i
Encoding: 105 105 98
Width: 470
GlyphClass: 2
Flags: W
LayerCount: 2
Fore
SplineSet
381 978 m 1,0,-1
 263 0 l 1,1,-1
 90 0 l 1,2,-1
 208 978 l 1,3,-1
 381 978 l 1,0,-1
446 1284 m 0,4,5
 446 1259 446 1259 435.5 1237 c 128,-1,6
 425 1215 425 1215 408 1198 c 128,-1,7
 391 1181 391 1181 369 1171 c 128,-1,8
 347 1161 347 1161 324 1161 c 256,9,10
 301 1161 301 1161 280 1171 c 128,-1,11
 259 1181 259 1181 242.5 1198 c 128,-1,12
 226 1215 226 1215 216 1237 c 128,-1,13
 206 1259 206 1259 206 1284 c 256,14,15
 206 1309 206 1309 216 1332 c 128,-1,16
 226 1355 226 1355 242.5 1372 c 128,-1,17
 259 1389 259 1389 280.5 1399 c 128,-1,18
 302 1409 302 1409 325 1409 c 256,19,20
 348 1409 348 1409 370 1399 c 128,-1,21
 392 1389 392 1389 409 1372 c 128,-1,22
 426 1355 426 1355 436 1332.5 c 128,-1,23
 446 1310 446 1310 446 1284 c 0,4,5
EndSplineSet
Substitution2: "sous-table 'ordn' Ordinaux dans Latin lookup 39" i.superior
Substitution2: "sous-table 'sups' Exposant lookups25" i.superior
Substitution2: "sous-table Substitution simple lookups1" dotlessi
EndChar

StartChar: iogonek
Encoding: 303 303 99
Width: 470
GlyphClass: 2
Flags: W
LayerCount: 2
Fore
SplineSet
273 -205 m 0,0,1
 287 -205 287 -205 290 -217 c 2,2,-1
 308 -280 l 1,3,4
 278 -302 278 -302 235 -316 c 128,-1,5
 192 -330 192 -330 146 -330 c 0,6,7
 72 -330 72 -330 32 -296.5 c 128,-1,8
 -8 -263 -8 -263 -8 -207 c 0,9,10
 -8 -145 -8 -145 33.5 -92 c 128,-1,11
 75 -39 75 -39 139 0 c 1,12,-1
 90 0 l 1,13,-1
 208 978 l 1,14,-1
 381 978 l 1,15,-1
 263 0 l 1,16,-1
 246 0 l 1,17,18
 226 -11 226 -11 204.5 -27 c 128,-1,19
 183 -43 183 -43 165 -63.5 c 128,-1,20
 147 -84 147 -84 135.5 -108 c 128,-1,21
 124 -132 124 -132 124 -160 c 0,22,23
 124 -191 124 -191 142.5 -209.5 c 128,-1,24
 161 -228 161 -228 192 -228 c 0,25,26
 212 -228 212 -228 226 -224.5 c 128,-1,27
 240 -221 240 -221 249 -216.5 c 128,-1,28
 258 -212 258 -212 263.5 -208.5 c 128,-1,29
 269 -205 269 -205 273 -205 c 0,0,1
446 1284 m 0,30,31
 446 1259 446 1259 435.5 1237 c 128,-1,32
 425 1215 425 1215 408 1198 c 128,-1,33
 391 1181 391 1181 369 1171 c 128,-1,34
 347 1161 347 1161 324 1161 c 256,35,36
 301 1161 301 1161 280 1171 c 128,-1,37
 259 1181 259 1181 242.5 1198 c 128,-1,38
 226 1215 226 1215 216 1237 c 128,-1,39
 206 1259 206 1259 206 1284 c 256,40,41
 206 1309 206 1309 216 1332 c 128,-1,42
 226 1355 226 1355 242.5 1372 c 128,-1,43
 259 1389 259 1389 280.5 1399 c 128,-1,44
 302 1409 302 1409 325 1409 c 256,45,46
 348 1409 348 1409 370 1399 c 128,-1,47
 392 1389 392 1389 409 1372 c 128,-1,48
 426 1355 426 1355 436 1332.5 c 128,-1,49
 446 1310 446 1310 446 1284 c 0,30,31
EndSplineSet
Substitution2: "sous-table Substitution simple lookups1" glyph498
EndChar

StartChar: dotlessi
Encoding: 305 305 100
Width: 470
GlyphClass: 2
Flags: W
LayerCount: 2
Fore
SplineSet
381 978 m 1,0,-1
 263 0 l 1,1,-1
 90 0 l 1,2,-1
 208 978 l 1,3,-1
 381 978 l 1,0,-1
EndSplineSet
EndChar

StartChar: ij.salt
Encoding: 65568 -1 101
Width: 1051
GlyphClass: 2
Flags: W
LayerCount: 2
Fore
SplineSet
390 977 m 1,0,-1
 314 354 l 2,1,2
 300 243 300 243 342.5 181.5 c 128,-1,3
 385 120 385 120 493 120 c 0,4,5
 531 120 531 120 561 126 c 128,-1,6
 591 132 591 132 617.5 145.5 c 128,-1,7
 644 159 644 159 669 181 c 128,-1,8
 694 203 694 203 721 236 c 1,9,-1
 812 977 l 1,10,-1
 982 977 l 1,11,-1
 862 2 l 2,12,13
 852 -77 852 -77 822.5 -141.5 c 128,-1,14
 793 -206 793 -206 742 -252.5 c 128,-1,15
 691 -299 691 -299 618.5 -324.5 c 128,-1,16
 546 -350 546 -350 451 -350 c 0,17,18
 419 -350 419 -350 386 -345.5 c 128,-1,19
 353 -341 353 -341 327 -331 c 1,20,-1
 351 -240 l 2,21,22
 354 -231 354 -231 358.5 -227 c 128,-1,23
 363 -223 363 -223 372 -222 c 128,-1,24
 381 -221 381 -221 395 -221.5 c 128,-1,25
 409 -222 409 -222 430 -222 c 0,26,27
 547 -222 547 -222 612 -169 c 128,-1,28
 677 -116 677 -116 692 2 c 2,29,-1
 704 103 l 1,30,31
 644 44 644 44 579.5 15 c 128,-1,32
 515 -14 515 -14 427 -14 c 0,33,34
 343 -14 343 -14 284.5 12.5 c 128,-1,35
 226 39 226 39 191.5 87 c 128,-1,36
 157 135 157 135 145.5 203 c 128,-1,37
 134 271 134 271 144 354 c 2,38,-1
 219 977 l 1,39,-1
 390 977 l 1,0,-1
1061 1297 m 0,40,41
 1061 1270 1061 1270 1049.5 1246 c 128,-1,42
 1038 1222 1038 1222 1018.5 1204 c 128,-1,43
 999 1186 999 1186 974.5 1175.5 c 128,-1,44
 950 1165 950 1165 924 1165 c 0,45,46
 901 1165 901 1165 881 1174 c 128,-1,47
 861 1183 861 1183 846.5 1198 c 128,-1,48
 832 1213 832 1213 823.5 1232.5 c 128,-1,49
 815 1252 815 1252 815 1274 c 0,50,51
 815 1301 815 1301 826 1325.5 c 128,-1,52
 837 1350 837 1350 856 1368.5 c 128,-1,53
 875 1387 875 1387 899.5 1397.5 c 128,-1,54
 924 1408 924 1408 950 1408 c 0,55,56
 974 1408 974 1408 994 1399 c 128,-1,57
 1014 1390 1014 1390 1029 1375 c 128,-1,58
 1044 1360 1044 1360 1052.5 1339.5 c 128,-1,59
 1061 1319 1061 1319 1061 1297 c 0,40,41
472 1297 m 0,60,61
 472 1270 472 1270 460.5 1246 c 128,-1,62
 449 1222 449 1222 429.5 1204 c 128,-1,63
 410 1186 410 1186 385 1175.5 c 128,-1,64
 360 1165 360 1165 333 1165 c 0,65,66
 310 1165 310 1165 290.5 1174 c 128,-1,67
 271 1183 271 1183 256.5 1198 c 128,-1,68
 242 1213 242 1213 234 1232.5 c 128,-1,69
 226 1252 226 1252 226 1274 c 0,70,71
 226 1301 226 1301 237 1325.5 c 128,-1,72
 248 1350 248 1350 267 1368.5 c 128,-1,73
 286 1387 286 1387 310.5 1397.5 c 128,-1,74
 335 1408 335 1408 361 1408 c 0,75,76
 384 1408 384 1408 404 1399 c 128,-1,77
 424 1390 424 1390 439 1375 c 128,-1,78
 454 1360 454 1360 463 1339.5 c 128,-1,79
 472 1319 472 1319 472 1297 c 0,60,61
EndSplineSet
Ligature2: "sous-table 'dlig' Ligatures facultatives  dans Latin lookup 36" i j
EndChar

StartChar: j
Encoding: 106 106 102
Width: 490
GlyphClass: 2
Flags: W
LayerCount: 2
Fore
SplineSet
390 978 m 1,0,-1
 261 -71 l 2,1,2
 254 -130 254 -130 231 -181 c 128,-1,3
 208 -232 208 -232 170 -270 c 128,-1,4
 132 -308 132 -308 78.5 -329.5 c 128,-1,5
 25 -351 25 -351 -43 -351 c 0,6,7
 -78 -351 -78 -351 -104 -346.5 c 128,-1,8
 -130 -342 -130 -342 -154 -332 c 1,9,-1
 -135 -238 l 2,10,11
 -131 -219 -131 -219 -116.5 -219 c 128,-1,12
 -102 -219 -102 -219 -67 -219 c 0,13,14
 7 -219 7 -219 42.5 -184 c 128,-1,15
 78 -149 78 -149 88 -71 c 2,16,-1
 218 978 l 1,17,-1
 390 978 l 1,0,-1
454 1283 m 0,18,19
 454 1259 454 1259 443.5 1236.5 c 128,-1,20
 433 1214 433 1214 416 1197.5 c 128,-1,21
 399 1181 399 1181 377 1171 c 128,-1,22
 355 1161 355 1161 331 1161 c 256,23,24
 307 1161 307 1161 285 1171 c 128,-1,25
 263 1181 263 1181 246 1198 c 128,-1,26
 229 1215 229 1215 219 1237.5 c 128,-1,27
 209 1260 209 1260 209 1285 c 256,28,29
 209 1310 209 1310 219 1332.5 c 128,-1,30
 229 1355 229 1355 245.5 1372 c 128,-1,31
 262 1389 262 1389 284 1399 c 128,-1,32
 306 1409 306 1409 329 1409 c 0,33,34
 353 1409 353 1409 376 1399 c 128,-1,35
 399 1389 399 1389 416 1372 c 128,-1,36
 433 1355 433 1355 443.5 1332 c 128,-1,37
 454 1309 454 1309 454 1283 c 0,18,19
EndSplineSet
Substitution2: "sous-table 'ordn' Ordinaux dans Latin lookup 39" j.superior
Substitution2: "sous-table 'sups' Exposant lookups25" j.superior
Substitution2: "sous-table Substitution simple lookups2" uni0237
EndChar

StartChar: uni0237
Encoding: 567 567 103
Width: 490
GlyphClass: 2
Flags: W
LayerCount: 2
Fore
SplineSet
423 977 m 1,0,-1
 294 -75 l 2,1,2
 287 -133 287 -133 265 -183.5 c 128,-1,3
 243 -234 243 -234 205 -271.5 c 128,-1,4
 167 -309 167 -309 111.5 -330.5 c 128,-1,5
 56 -352 56 -352 -19 -352 c 0,6,7
 -51 -352 -51 -352 -76 -347 c 128,-1,8
 -101 -342 -101 -342 -127 -333 c 1,9,-1
 -109 -242 l 2,10,11
 -106 -233 -106 -233 -102 -229 c 128,-1,12
 -98 -225 -98 -225 -90 -224 c 128,-1,13
 -82 -223 -82 -223 -69.5 -223.5 c 128,-1,14
 -57 -224 -57 -224 -39 -224 c 0,15,16
 39 -224 39 -224 77 -188.5 c 128,-1,17
 115 -153 115 -153 125 -75 c 2,18,-1
 255 977 l 1,19,-1
 423 977 l 1,0,-1
EndSplineSet
EndChar

StartChar: k
Encoding: 107 107 104
Width: 931
GlyphClass: 2
Flags: W
LayerCount: 2
Fore
SplineSet
422 1422 m 1,0,-1
 319 586 l 1,1,-1
 349 586 l 2,2,3
 369 586 369 586 381.5 591.5 c 128,-1,4
 394 597 394 597 409 613 c 2,5,-1
 730 944 l 2,6,7
 745 960 745 960 760 969 c 128,-1,8
 775 978 775 978 798 978 c 2,9,-1
 953 978 l 1,10,-1
 579 594 l 2,11,12
 564 578 564 578 549.5 565.5 c 128,-1,13
 535 553 535 553 518 543 c 1,14,15
 534 532 534 532 546 516.5 c 128,-1,16
 558 501 558 501 569 483 c 2,17,-1
 857 0 l 1,18,-1
 707 0 l 2,19,20
 686 0 686 0 672 7.5 c 128,-1,21
 658 15 658 15 647 33 c 2,22,-1
 402 434 l 2,23,24
 390 454 390 454 377.5 460.5 c 128,-1,25
 365 467 365 467 338 467 c 2,26,-1
 305 467 l 1,27,-1
 248 0 l 1,28,-1
 75 0 l 1,29,-1
 249 1422 l 1,30,-1
 422 1422 l 1,0,-1
EndSplineSet
Substitution2: "sous-table 'ordn' Ordinaux dans Latin lookup 39" k.superior
Substitution2: "sous-table 'sups' Exposant lookups25" k.superior
EndChar

StartChar: kgreenlandic
Encoding: 312 312 105
Width: 931
GlyphClass: 2
Flags: W
LayerCount: 2
Fore
SplineSet
367 978 m 1,0,-1
 318 586 l 1,1,-1
 347 586 l 2,2,3
 364 586 364 586 377 591 c 128,-1,4
 390 596 390 596 406 613 c 2,5,-1
 719 944 l 2,6,7
 734 960 734 960 749 969 c 128,-1,8
 764 978 764 978 787 978 c 2,9,-1
 941 978 l 1,10,-1
 580 593 l 2,11,12
 565 577 565 577 550 564.5 c 128,-1,13
 535 552 535 552 518 543 c 1,14,15
 532 531 532 531 543 516 c 128,-1,16
 554 501 554 501 565 483 c 2,17,-1
 845 0 l 1,18,-1
 696 0 l 2,19,20
 675 0 675 0 661 7.5 c 128,-1,21
 647 15 647 15 636 33 c 2,22,-1
 398 434 l 2,23,24
 387 454 387 454 374.5 460.5 c 128,-1,25
 362 467 362 467 335 467 c 2,26,-1
 304 467 l 1,27,-1
 246 0 l 1,28,-1
 73 0 l 1,29,-1
 194 978 l 1,30,-1
 367 978 l 1,0,-1
EndSplineSet
EndChar

StartChar: lslash
Encoding: 322 322 106
Width: 507
GlyphClass: 2
Flags: W
LayerCount: 2
Fore
SplineSet
74 701 m 2,0,1
 74 728 74 728 97 740 c 2,2,-1
 212 798 l 1,3,-1
 287 1422 l 1,4,-1
 460 1422 l 1,5,-1
 394 875 l 1,6,-1
 533 942 l 1,7,-1
 531 842 l 2,8,9
 531 812 531 812 505 800 c 2,10,-1
 377 735 l 1,11,-1
 288 0 l 1,12,-1
 116 0 l 1,13,-1
 195 657 l 1,14,-1
 72 598 l 1,15,-1
 74 701 l 2,0,1
EndSplineSet
EndChar

StartChar: m
Encoding: 109 109 108
Width: 1620
GlyphClass: 2
Flags: W
LayerCount: 2
Fore
SplineSet
77 0 m 1,0,-1
 194 979 l 1,1,-1
 280 979 l 2,2,3
 310 979 310 979 325.5 964.5 c 128,-1,4
 341 950 341 950 339 920 c 2,5,-1
 326 738 l 1,6,7
 402 863 402 863 496 927.5 c 128,-1,8
 590 992 590 992 694 992 c 0,9,10
 802 992 802 992 852 923.5 c 128,-1,11
 902 855 902 855 902 725 c 1,12,13
 979 862 979 862 1077 927 c 128,-1,14
 1175 992 1175 992 1284 992 c 0,15,16
 1419 992 1419 992 1475 896.5 c 128,-1,17
 1531 801 1531 801 1509 623 c 2,18,-1
 1435 0 l 1,19,-1
 1262 0 l 1,20,-1
 1336 623 l 2,21,22
 1343 680 1343 680 1341.5 722 c 128,-1,23
 1340 764 1340 764 1327.5 792 c 128,-1,24
 1315 820 1315 820 1290 833.5 c 128,-1,25
 1265 847 1265 847 1225 847 c 0,26,27
 1179 847 1179 847 1133.5 826 c 128,-1,28
 1088 805 1088 805 1046 764 c 128,-1,29
 1004 723 1004 723 967.5 662.5 c 128,-1,30
 931 602 931 602 903 523 c 1,31,-1
 842 0 l 1,32,-1
 669 0 l 1,33,-1
 742 623 l 2,34,35
 749 680 749 680 748.5 722 c 128,-1,36
 748 764 748 764 736.5 792 c 128,-1,37
 725 820 725 820 700 833.5 c 128,-1,38
 675 847 675 847 635 847 c 0,39,40
 584 847 584 847 537 823 c 128,-1,41
 490 799 490 799 448.5 754.5 c 128,-1,42
 407 710 407 710 371.5 646 c 128,-1,43
 336 582 336 582 307 501 c 1,44,-1
 248 0 l 1,45,-1
 77 0 l 1,0,-1
EndSplineSet
Substitution2: "sous-table 'ordn' Ordinaux dans Latin lookup 39" m.superior
Substitution2: "sous-table 'sups' Exposant lookups25" m.superior
EndChar

StartChar: n
Encoding: 110 110 109
Width: 1053
GlyphClass: 2
Flags: W
LayerCount: 2
Fore
SplineSet
72 0 m 1,0,-1
 189 979 l 1,1,-1
 276 979 l 2,2,3
 305 979 305 979 320.5 964.5 c 128,-1,4
 336 950 336 950 334 920 c 2,5,-1
 321 728 l 1,6,7
 401 859 401 859 503.5 925.5 c 128,-1,8
 606 992 606 992 714 992 c 0,9,10
 778 992 778 992 827 967.5 c 128,-1,11
 876 943 876 943 906.5 896 c 128,-1,12
 937 849 937 849 948.5 780 c 128,-1,13
 960 711 960 711 949 623 c 2,14,-1
 876 0 l 1,15,-1
 701 0 l 1,16,-1
 774 623 l 2,17,18
 789 738 789 738 759.5 792.5 c 128,-1,19
 730 847 730 847 650 847 c 0,20,21
 602 847 602 847 552 822 c 128,-1,22
 502 797 502 797 455.5 750.5 c 128,-1,23
 409 704 409 704 369 639 c 128,-1,24
 329 574 329 574 302 493 c 1,25,-1
 247 0 l 1,26,-1
 72 0 l 1,0,-1
EndSplineSet
Substitution2: "sous-table 'ordn' Ordinaux dans Latin lookup 39" uni207F
Substitution2: "sous-table 'sups' Exposant lookups25" uni207F
EndChar

StartChar: eng
Encoding: 331 331 110
Width: 1053
GlyphClass: 2
Flags: W
LayerCount: 2
Fore
SplineSet
107 0 m 1,0,-1
 226 977 l 1,1,-1
 327 977 l 2,2,3
 345 977 345 977 356 968.5 c 128,-1,4
 367 960 367 960 366 942 c 2,5,-1
 368 836 l 1,6,7
 439 907 439 907 519.5 950 c 128,-1,8
 600 993 600 993 699 993 c 0,9,10
 777 993 777 993 833 966.5 c 128,-1,11
 889 940 889 940 923 891.5 c 128,-1,12
 957 843 957 843 968.5 774.5 c 128,-1,13
 980 706 980 706 970 623 c 2,14,-1
 894 -2 l 2,15,16
 884 -81 884 -81 857.5 -145.5 c 128,-1,17
 831 -210 831 -210 787 -256 c 128,-1,18
 743 -302 743 -302 681 -327.5 c 128,-1,19
 619 -353 619 -353 538 -353 c 0,20,21
 493 -353 493 -353 457.5 -344.5 c 128,-1,22
 422 -336 422 -336 383 -318 c 1,23,-1
 411 -245 l 2,24,25
 419 -223 419 -223 430.5 -217 c 128,-1,26
 442 -211 442 -211 454 -211 c 0,27,28
 465 -211 465 -211 484 -218 c 128,-1,29
 503 -225 503 -225 538 -225 c 0,30,31
 616 -225 616 -225 662.5 -174.5 c 128,-1,32
 709 -124 709 -124 722 -21 c 2,33,-1
 801 623 l 2,34,35
 815 735 815 735 774.5 796.5 c 128,-1,36
 734 858 734 858 634 858 c 0,37,38
 562 858 562 858 493.5 821 c 128,-1,39
 425 784 425 784 364 720 c 1,40,-1
 277 0 l 1,41,-1
 107 0 l 1,0,-1
EndSplineSet
EndChar

StartChar: o
Encoding: 111 111 111
Width: 1051
GlyphClass: 2
Flags: W
LayerCount: 2
Fore
SplineSet
467 123 m 0,0,1
 545 123 545 123 608 161 c 128,-1,2
 671 199 671 199 715.5 262 c 128,-1,3
 760 325 760 325 784.5 408 c 128,-1,4
 809 491 809 491 809 581 c 0,5,6
 809 718 809 718 748 787 c 128,-1,7
 687 856 687 856 574 856 c 0,8,9
 496 856 496 856 433 818.5 c 128,-1,10
 370 781 370 781 325.5 718 c 128,-1,11
 281 655 281 655 256.5 572.5 c 128,-1,12
 232 490 232 490 232 400 c 0,13,14
 232 263 232 263 292.5 193 c 128,-1,15
 353 123 353 123 467 123 c 0,0,1
452 -14 m 0,16,17
 365 -14 365 -14 292 14 c 128,-1,18
 219 42 219 42 166.5 95 c 128,-1,19
 114 148 114 148 85 224.5 c 128,-1,20
 56 301 56 301 56 399 c 0,21,22
 56 522 56 522 96.5 630 c 128,-1,23
 137 738 137 738 208.5 818.5 c 128,-1,24
 280 899 280 899 377.5 946 c 128,-1,25
 475 993 475 993 588 993 c 0,26,27
 675 993 675 993 748 965 c 128,-1,28
 821 937 821 937 873.5 884.5 c 128,-1,29
 926 832 926 832 955.5 755 c 128,-1,30
 985 678 985 678 985 581 c 0,31,32
 985 459 985 459 944 351 c 128,-1,33
 903 243 903 243 831.5 162 c 128,-1,34
 760 81 760 81 662.5 33.5 c 128,-1,35
 565 -14 565 -14 452 -14 c 0,16,17
EndSplineSet
Substitution2: "sous-table 'ordn' Ordinaux dans Latin lookup 39" o.superior
Substitution2: "sous-table 'sups' Exposant lookups25" o.superior
EndChar

StartChar: oslash
Encoding: 248 248 112
Width: 1084
GlyphClass: 2
Flags: W
LayerCount: 2
Fore
SplineSet
467 -14 m 0,0,1
 328 -14 328 -14 229 50 c 1,2,-1
 188 -1 l 2,3,4
 167 -30 167 -30 138 -42 c 128,-1,5
 109 -54 109 -54 80 -54 c 2,6,-1
 13 -54 l 1,7,-1
 150 118 l 1,8,9
 105 171 105 171 81.5 241.5 c 128,-1,10
 58 312 58 312 58 401 c 0,11,12
 58 523 58 523 99.5 631 c 128,-1,13
 141 739 141 739 213.5 819.5 c 128,-1,14
 286 900 286 900 386 946.5 c 128,-1,15
 486 993 486 993 603 993 c 0,16,17
 672 993 672 993 732 976.5 c 128,-1,18
 792 960 792 960 842 928 c 1,19,-1
 880 976 l 2,20,21
 890 989 890 989 898 998.5 c 128,-1,22
 906 1008 906 1008 915 1014 c 128,-1,23
 924 1020 924 1020 935.5 1022.5 c 128,-1,24
 947 1025 947 1025 964 1025 c 2,25,-1
 1052 1025 l 1,26,-1
 922 857 l 1,27,28
 965 805 965 805 988.5 735.5 c 128,-1,29
 1012 666 1012 666 1012 579 c 0,30,31
 1012 457 1012 457 970.5 349.5 c 128,-1,32
 929 242 929 242 856 161 c 128,-1,33
 783 80 783 80 683.5 33 c 128,-1,34
 584 -14 584 -14 467 -14 c 0,0,1
224 402 m 0,35,36
 224 352 224 352 233.5 310 c 128,-1,37
 243 268 243 268 260 235 c 1,38,-1
 741 823 l 1,39,40
 679 867 679 867 589 867 c 0,41,42
 508 867 508 867 441 831 c 128,-1,43
 374 795 374 795 325.5 732.5 c 128,-1,44
 277 670 277 670 250.5 585 c 128,-1,45
 224 500 224 500 224 402 c 0,35,36
481 112 m 0,46,47
 562 112 562 112 629.5 148 c 128,-1,48
 697 184 697 184 745 247 c 128,-1,49
 793 310 793 310 820 395 c 128,-1,50
 847 480 847 480 847 578 c 0,51,52
 847 626 847 626 837.5 667 c 128,-1,53
 828 708 828 708 811 741 c 1,54,-1
 330 155 l 1,55,56
 389 112 389 112 481 112 c 0,46,47
EndSplineSet
EndChar

StartChar: oe
Encoding: 339 339 113
Width: 1668
GlyphClass: 2
Flags: W
LayerCount: 2
Fore
SplineSet
1312 992 m 0,0,1
 1382 992 1382 992 1438.5 975 c 128,-1,2
 1495 958 1495 958 1535 927 c 128,-1,3
 1575 896 1575 896 1596 853 c 128,-1,4
 1617 810 1617 810 1617 758 c 0,5,6
 1617 698 1617 698 1587.5 646.5 c 128,-1,7
 1558 595 1558 595 1482 553.5 c 128,-1,8
 1406 512 1406 512 1275 480.5 c 128,-1,9
 1144 449 1144 449 940 430 c 1,10,11
 940 276 940 276 1009 200 c 128,-1,12
 1078 124 1078 124 1200 124 c 0,13,14
 1253 124 1253 124 1294.5 133.5 c 128,-1,15
 1336 143 1336 143 1368.5 157 c 128,-1,16
 1401 171 1401 171 1426 187.5 c 128,-1,17
 1451 204 1451 204 1471 218 c 128,-1,18
 1491 232 1491 232 1507.5 241.5 c 128,-1,19
 1524 251 1524 251 1540 251 c 0,20,21
 1560 251 1560 251 1574 234 c 2,22,-1
 1618 181 l 1,23,24
 1565 130 1565 130 1513.5 93.5 c 128,-1,25
 1462 57 1462 57 1408 33 c 128,-1,26
 1354 9 1354 9 1295 -2.5 c 128,-1,27
 1236 -14 1236 -14 1168 -14 c 0,28,29
 1052 -14 1052 -14 964.5 44 c 128,-1,30
 877 102 877 102 835 219 c 1,31,32
 763 108 763 108 652.5 47 c 128,-1,33
 542 -14 542 -14 400 -14 c 0,34,35
 311 -14 311 -14 244.5 15.5 c 128,-1,36
 178 45 178 45 134 94.5 c 128,-1,37
 90 144 90 144 68 210 c 128,-1,38
 46 276 46 276 46 350 c 0,39,40
 46 506 46 506 90.5 625.5 c 128,-1,41
 135 745 135 745 210.5 826.5 c 128,-1,42
 286 908 286 908 387 950 c 128,-1,43
 488 992 488 992 601 992 c 0,44,45
 719 992 719 992 798 940 c 128,-1,46
 877 888 877 888 914 795 c 1,47,48
 980 887 980 887 1080.5 939.5 c 128,-1,49
 1181 992 1181 992 1312 992 c 0,0,1
440 119 m 0,50,51
 526 119 526 119 591.5 152.5 c 128,-1,52
 657 186 657 186 702 246.5 c 128,-1,53
 747 307 747 307 772.5 391.5 c 128,-1,54
 798 476 798 476 804 578 c 0,55,56
 808 642 808 642 796.5 694 c 128,-1,57
 785 746 785 746 758.5 783 c 128,-1,58
 732 820 732 820 689 840 c 128,-1,59
 646 860 646 860 587 860 c 0,60,61
 502 860 502 860 433.5 824.5 c 128,-1,62
 365 789 365 789 317 723.5 c 128,-1,63
 269 658 269 658 243.5 565.5 c 128,-1,64
 218 473 218 473 218 360 c 0,65,66
 218 312 218 312 229.5 268.5 c 128,-1,67
 241 225 241 225 267.5 191.5 c 128,-1,68
 294 158 294 158 336 138.5 c 128,-1,69
 378 119 378 119 440 119 c 0,50,51
1287 868 m 0,70,71
 1222 868 1222 868 1165.5 845.5 c 128,-1,72
 1109 823 1109 823 1065 781 c 128,-1,73
 1021 739 1021 739 991 678 c 128,-1,74
 961 617 961 617 948 540 c 1,75,76
 1109 557 1109 557 1211 581 c 128,-1,77
 1313 605 1313 605 1370.5 633 c 128,-1,78
 1428 661 1428 661 1449.5 691.5 c 128,-1,79
 1471 722 1471 722 1471 754 c 0,80,81
 1471 776 1471 776 1460 797 c 128,-1,82
 1449 818 1449 818 1426.5 833.5 c 128,-1,83
 1404 849 1404 849 1369 858.5 c 128,-1,84
 1334 868 1334 868 1287 868 c 0,70,71
EndSplineSet
EndChar

StartChar: p
Encoding: 112 112 114
Width: 1053
GlyphClass: 2
Flags: W
LayerCount: 2
Fore
SplineSet
33 -330 m 1,0,-1
 192 979 l 1,1,-1
 280 979 l 2,2,3
 309 979 309 979 324.5 964.5 c 128,-1,4
 340 950 340 950 338 920 c 2,5,-1
 322 709 l 1,6,7
 361 773 361 773 406.5 825.5 c 128,-1,8
 452 878 452 878 502.5 915 c 128,-1,9
 553 952 553 952 608 972 c 128,-1,10
 663 992 663 992 720 992 c 0,11,12
 854 992 854 992 927 900.5 c 128,-1,13
 1000 809 1000 809 1000 632 c 0,14,15
 1000 553 1000 553 983 474 c 128,-1,16
 966 395 966 395 934.5 323.5 c 128,-1,17
 903 252 903 252 858 190 c 128,-1,18
 813 128 813 128 758 83 c 128,-1,19
 703 38 703 38 638.5 12 c 128,-1,20
 574 -14 574 -14 503 -14 c 0,21,22
 427 -14 427 -14 363.5 15 c 128,-1,23
 300 44 300 44 256 97 c 1,24,-1
 204 -330 l 1,25,-1
 33 -330 l 1,0,-1
655 852 m 0,26,27
 605 852 605 852 554.5 823 c 128,-1,28
 504 794 504 794 457 742 c 128,-1,29
 410 690 410 690 369.5 618.5 c 128,-1,30
 329 547 329 547 300 462 c 1,31,-1
 270 217 l 1,32,33
 310 164 310 164 365 143 c 128,-1,34
 420 122 420 122 477 122 c 0,35,36
 558 122 558 122 622.5 167 c 128,-1,37
 687 212 687 212 732 283.5 c 128,-1,38
 777 355 777 355 801.5 442.5 c 128,-1,39
 826 530 826 530 826 616 c 0,40,41
 826 732 826 732 781.5 792 c 128,-1,42
 737 852 737 852 655 852 c 0,26,27
EndSplineSet
Substitution2: "sous-table 'ordn' Ordinaux dans Latin lookup 39" p.superior
Substitution2: "sous-table 'sups' Exposant lookups25" p.superior
EndChar

StartChar: thorn
Encoding: 254 254 115
Width: 1053
GlyphClass: 2
Flags: W
LayerCount: 2
Fore
SplineSet
40 -330 m 1,0,-1
 253 1422 l 1,1,-1
 426 1422 l 1,2,-1
 340 727 l 1,3,4
 378 787 378 787 422.5 836 c 128,-1,5
 467 885 467 885 515.5 919.5 c 128,-1,6
 564 954 564 954 616.5 973 c 128,-1,7
 669 992 669 992 724 992 c 0,8,9
 856 992 856 992 928.5 901 c 128,-1,10
 1001 810 1001 810 1001 633 c 0,11,12
 1001 553 1001 553 984 474.5 c 128,-1,13
 967 396 967 396 936 324 c 128,-1,14
 905 252 905 252 860.5 190 c 128,-1,15
 816 128 816 128 761 83 c 128,-1,16
 706 38 706 38 642 12 c 128,-1,17
 578 -14 578 -14 508 -14 c 0,18,19
 432 -14 432 -14 369 15 c 128,-1,20
 306 44 306 44 263 97 c 1,21,-1
 218 -268 l 2,22,23
 215 -293 215 -293 196 -311.5 c 128,-1,24
 177 -330 177 -330 147 -330 c 2,25,-1
 40 -330 l 1,0,-1
658 852 m 0,26,27
 609 852 609 852 559.5 823 c 128,-1,28
 510 794 510 794 463.5 743 c 128,-1,29
 417 692 417 692 377 621 c 128,-1,30
 337 550 337 550 308 466 c 1,31,-1
 278 217 l 1,32,33
 317 165 317 165 371 143.5 c 128,-1,34
 425 122 425 122 481 122 c 0,35,36
 561 122 561 122 625 167 c 128,-1,37
 689 212 689 212 734 283.5 c 128,-1,38
 779 355 779 355 803 442.5 c 128,-1,39
 827 530 827 530 827 616 c 0,40,41
 827 732 827 732 783 792 c 128,-1,42
 739 852 739 852 658 852 c 0,26,27
EndSplineSet
EndChar

StartChar: q
Encoding: 113 113 116
Width: 1053
GlyphClass: 2
Flags: W
LayerCount: 2
Fore
SplineSet
806 -330 m 1,0,-1
 696 -330 l 2,1,2
 660 -330 660 -330 647.5 -307.5 c 128,-1,3
 635 -285 635 -285 639 -257 c 2,4,-1
 703 245 l 1,5,6
 667 186 667 186 624.5 138 c 128,-1,7
 582 90 582 90 535 56.5 c 128,-1,8
 488 23 488 23 436 4.5 c 128,-1,9
 384 -14 384 -14 328 -14 c 0,10,11
 264 -14 264 -14 212.5 9 c 128,-1,12
 161 32 161 32 124.5 76.5 c 128,-1,13
 88 121 88 121 68.5 186.5 c 128,-1,14
 49 252 49 252 49 337 c 0,15,16
 49 423 49 423 72.5 505 c 128,-1,17
 96 587 96 587 138.5 659.5 c 128,-1,18
 181 732 181 732 241 793 c 128,-1,19
 301 854 301 854 374 898 c 128,-1,20
 447 942 447 942 532 966.5 c 128,-1,21
 617 991 617 991 709 991 c 0,22,23
 775 991 775 991 839 981.5 c 128,-1,24
 903 972 903 972 963 946 c 1,25,-1
 806 -330 l 1,0,-1
393 132 m 0,26,27
 445 132 445 132 494.5 161.5 c 128,-1,28
 544 191 544 191 588.5 243 c 128,-1,29
 633 295 633 295 671.5 367 c 128,-1,30
 710 439 710 439 739 524 c 1,31,-1
 781 856 l 1,32,33
 758 860 758 860 733.5 862 c 128,-1,34
 709 864 709 864 686 864 c 0,35,36
 591 864 591 864 507 823.5 c 128,-1,37
 423 783 423 783 360 714.5 c 128,-1,38
 297 646 297 646 260.5 556 c 128,-1,39
 224 466 224 466 224 367 c 0,40,41
 224 132 224 132 393 132 c 0,26,27
EndSplineSet
Substitution2: "sous-table 'ordn' Ordinaux dans Latin lookup 39" q.superior
Substitution2: "sous-table 'sups' Exposant lookups25" q.superior
EndChar

StartChar: r
Encoding: 114 114 117
Width: 702
GlyphClass: 2
Flags: W
LayerCount: 2
Fore
SplineSet
72 0 m 1,0,-1
 190 979 l 1,1,-1
 277 979 l 2,2,3
 306 979 306 979 321.5 964.5 c 128,-1,4
 337 950 337 950 335 920 c 2,5,-1
 320 699 l 1,6,7
 360 783 360 783 406 844.5 c 128,-1,8
 452 906 452 906 503 941 c 128,-1,9
 554 976 554 976 609 984 c 128,-1,10
 664 992 664 992 720 969 c 1,11,-1
 689 800 l 1,12,13
 558 851 558 851 459 764 c 128,-1,14
 360 677 360 677 297 447 c 1,15,-1
 244 0 l 1,16,-1
 72 0 l 1,0,-1
EndSplineSet
Substitution2: "sous-table 'ordn' Ordinaux dans Latin lookup 39" r.superior
Substitution2: "sous-table 'sups' Exposant lookups25" r.superior
EndChar

StartChar: s
Encoding: 115 115 118
Width: 797
GlyphClass: 2
Flags: W
LayerCount: 2
Fore
SplineSet
734 820 m 2,0,1
 726 809 726 809 718 803.5 c 128,-1,2
 710 798 710 798 697 798 c 0,3,4
 683 798 683 798 666.5 809 c 128,-1,5
 650 820 650 820 625.5 832.5 c 128,-1,6
 601 845 601 845 566.5 856 c 128,-1,7
 532 867 532 867 482 867 c 0,8,9
 435 867 435 867 396.5 855 c 128,-1,10
 358 843 358 843 330.5 822 c 128,-1,11
 303 801 303 801 287.5 773 c 128,-1,12
 272 745 272 745 272 714 c 0,13,14
 272 680 272 680 290.5 654.5 c 128,-1,15
 309 629 309 629 340 608 c 128,-1,16
 371 587 371 587 410 569.5 c 128,-1,17
 449 552 449 552 490 534.5 c 128,-1,18
 531 517 531 517 570 497.5 c 128,-1,19
 609 478 609 478 640 453.5 c 128,-1,20
 671 429 671 429 689.5 397.5 c 128,-1,21
 708 366 708 366 708 324 c 0,22,23
 708 257 708 257 680 195.5 c 128,-1,24
 652 134 652 134 600.5 87.5 c 128,-1,25
 549 41 549 41 475 13 c 128,-1,26
 401 -15 401 -15 310 -15 c 0,27,28
 211 -15 211 -15 135.5 18 c 128,-1,29
 60 51 60 51 12 104 c 1,30,-1
 54 170 l 2,31,32
 71 197 71 197 100 197 c 0,33,34
 116 197 116 197 132.5 183 c 128,-1,35
 149 169 149 169 174 152.5 c 128,-1,36
 199 136 199 136 236.5 122.5 c 128,-1,37
 274 109 274 109 332 109 c 0,38,39
 383 109 383 109 424 123 c 128,-1,40
 465 137 465 137 493.5 161 c 128,-1,41
 522 185 522 185 537 216.5 c 128,-1,42
 552 248 552 248 552 284 c 0,43,44
 552 334 552 334 520 365 c 128,-1,45
 488 396 488 396 439.5 418.5 c 128,-1,46
 391 441 391 441 334.5 461 c 128,-1,47
 278 481 278 481 229.5 507.5 c 128,-1,48
 181 534 181 534 149 573.5 c 128,-1,49
 117 613 117 613 117 675 c 0,50,51
 117 736 117 736 143 793.5 c 128,-1,52
 169 851 169 851 217.5 895 c 128,-1,53
 266 939 266 939 335.5 965.5 c 128,-1,54
 405 992 405 992 491 992 c 0,55,56
 585 992 585 992 655.5 963 c 128,-1,57
 726 934 726 934 777 883 c 1,58,-1
 734 820 l 2,0,1
EndSplineSet
Substitution2: "sous-table 'ordn' Ordinaux dans Latin lookup 39" s.superior
Substitution2: "sous-table 'sups' Exposant lookups25" s.superior
EndChar

StartChar: scedilla
Encoding: 351 351 119
Width: 797
GlyphClass: 2
Flags: W
LayerCount: 2
Fore
SplineSet
172 -240 m 0,0,1
 178 -240 178 -240 184.5 -243.5 c 128,-1,2
 191 -247 191 -247 200 -251.5 c 128,-1,3
 209 -256 209 -256 222 -259.5 c 128,-1,4
 235 -263 235 -263 253 -263 c 0,5,6
 291 -263 291 -263 312 -244 c 128,-1,7
 333 -225 333 -225 333 -197 c 0,8,9
 333 -164 333 -164 299 -150 c 128,-1,10
 265 -136 265 -136 201 -127 c 1,11,-1
 247 -11 l 1,12,13
 171 -1 171 -1 111.5 29 c 128,-1,14
 52 59 52 59 12 104 c 1,15,-1
 54 170 l 2,16,17
 71 197 71 197 100 197 c 0,18,19
 116 197 116 197 132.5 183 c 128,-1,20
 149 169 149 169 174 152.5 c 128,-1,21
 199 136 199 136 236.5 122.5 c 128,-1,22
 274 109 274 109 332 109 c 0,23,24
 383 109 383 109 424 123 c 128,-1,25
 465 137 465 137 493.5 161 c 128,-1,26
 522 185 522 185 537 216.5 c 128,-1,27
 552 248 552 248 552 284 c 0,28,29
 552 334 552 334 520 365 c 128,-1,30
 488 396 488 396 439.5 418.5 c 128,-1,31
 391 441 391 441 334.5 461 c 128,-1,32
 278 481 278 481 229.5 507.5 c 128,-1,33
 181 534 181 534 149 573.5 c 128,-1,34
 117 613 117 613 117 675 c 0,35,36
 117 736 117 736 143 793.5 c 128,-1,37
 169 851 169 851 217.5 895 c 128,-1,38
 266 939 266 939 335.5 965.5 c 128,-1,39
 405 992 405 992 491 992 c 0,40,41
 585 992 585 992 655.5 963 c 128,-1,42
 726 934 726 934 777 883 c 1,43,-1
 734 820 l 2,44,45
 726 809 726 809 718 803.5 c 128,-1,46
 710 798 710 798 697 798 c 0,47,48
 683 798 683 798 666.5 809 c 128,-1,49
 650 820 650 820 625.5 832.5 c 128,-1,50
 601 845 601 845 566.5 856 c 128,-1,51
 532 867 532 867 482 867 c 0,52,53
 435 867 435 867 396.5 855 c 128,-1,54
 358 843 358 843 330.5 822 c 128,-1,55
 303 801 303 801 287.5 773 c 128,-1,56
 272 745 272 745 272 714 c 0,57,58
 272 680 272 680 290.5 654.5 c 128,-1,59
 309 629 309 629 340 608 c 128,-1,60
 371 587 371 587 410 569.5 c 128,-1,61
 449 552 449 552 490 534.5 c 128,-1,62
 531 517 531 517 570 497.5 c 128,-1,63
 609 478 609 478 640 453.5 c 128,-1,64
 671 429 671 429 689.5 397.5 c 128,-1,65
 708 366 708 366 708 324 c 0,66,67
 708 261 708 261 683.5 203 c 128,-1,68
 659 145 659 145 613 99 c 128,-1,69
 567 53 567 53 501.5 23 c 128,-1,70
 436 -7 436 -7 354 -13 c 1,71,-1
 332 -69 l 1,72,73
 402 -86 402 -86 434.5 -116 c 128,-1,74
 467 -146 467 -146 467 -191 c 0,75,76
 467 -226 467 -226 451 -253 c 128,-1,77
 435 -280 435 -280 406.5 -299.5 c 128,-1,78
 378 -319 378 -319 338.5 -329 c 128,-1,79
 299 -339 299 -339 253 -339 c 0,80,81
 217 -339 217 -339 184.5 -330.5 c 128,-1,82
 152 -322 152 -322 126 -308 c 1,83,-1
 149 -256 l 2,84,85
 153 -248 153 -248 158 -244 c 128,-1,86
 163 -240 163 -240 172 -240 c 0,0,1
EndSplineSet
Substitution2: "sous-table 'salt' Alternatives stylistiques dans Latin lookup 8" uni0219
EndChar

StartChar: s_t.dlig
Encoding: 65569 -1 120
Width: 1445
GlyphClass: 3
Flags: W
LayerCount: 2
Fore
SplineSet
725 820 m 2,0,1
 717 809 717 809 709 803.5 c 128,-1,2
 701 798 701 798 688 798 c 0,3,4
 674 798 674 798 657.5 809 c 128,-1,5
 641 820 641 820 616.5 832.5 c 128,-1,6
 592 845 592 845 557.5 856 c 128,-1,7
 523 867 523 867 473 867 c 0,8,9
 426 867 426 867 387.5 855 c 128,-1,10
 349 843 349 843 321.5 822 c 128,-1,11
 294 801 294 801 278.5 773 c 128,-1,12
 263 745 263 745 263 714 c 0,13,14
 263 680 263 680 281.5 654.5 c 128,-1,15
 300 629 300 629 331 608 c 128,-1,16
 362 587 362 587 401 569.5 c 128,-1,17
 440 552 440 552 481 534.5 c 128,-1,18
 522 517 522 517 561 497.5 c 128,-1,19
 600 478 600 478 631 453.5 c 128,-1,20
 662 429 662 429 680.5 397.5 c 128,-1,21
 699 366 699 366 699 324 c 0,22,23
 699 257 699 257 671 195.5 c 128,-1,24
 643 134 643 134 591.5 87.5 c 128,-1,25
 540 41 540 41 466 13 c 128,-1,26
 392 -15 392 -15 301 -15 c 0,27,28
 202 -15 202 -15 126.5 18 c 128,-1,29
 51 51 51 51 3 104 c 1,30,-1
 45 170 l 2,31,32
 62 197 62 197 91 197 c 0,33,34
 107 197 107 197 123.5 183 c 128,-1,35
 140 169 140 169 165 152.5 c 128,-1,36
 190 136 190 136 227.5 122.5 c 128,-1,37
 265 109 265 109 323 109 c 0,38,39
 374 109 374 109 415 123 c 128,-1,40
 456 137 456 137 484.5 161 c 128,-1,41
 513 185 513 185 528 216.5 c 128,-1,42
 543 248 543 248 543 284 c 0,43,44
 543 334 543 334 511 365 c 128,-1,45
 479 396 479 396 430.5 418.5 c 128,-1,46
 382 441 382 441 325.5 461 c 128,-1,47
 269 481 269 481 220.5 507.5 c 128,-1,48
 172 534 172 534 140 573.5 c 128,-1,49
 108 613 108 613 108 675 c 0,50,51
 108 736 108 736 134 793.5 c 128,-1,52
 160 851 160 851 208.5 895 c 128,-1,53
 257 939 257 939 326.5 965.5 c 128,-1,54
 396 992 396 992 482 992 c 0,55,56
 536 992 536 992 579 982 c 1,57,58
 556 1040 556 1040 552 1101.5 c 128,-1,59
 548 1163 548 1163 562 1221 c 128,-1,60
 576 1279 576 1279 607.5 1331.5 c 128,-1,61
 639 1384 639 1384 686.5 1423 c 128,-1,62
 734 1462 734 1462 797.5 1485 c 128,-1,63
 861 1508 861 1508 940 1508 c 0,64,65
 1022 1508 1022 1508 1079 1482.5 c 128,-1,66
 1136 1457 1136 1457 1169.5 1414.5 c 128,-1,67
 1203 1372 1203 1372 1215 1315.5 c 128,-1,68
 1227 1259 1227 1259 1220 1196 c 2,69,-1
 1188 943 l 1,70,-1
 1444 943 l 1,71,-1
 1430 820 l 1,72,-1
 1173 820 l 1,73,-1
 1103 245 l 2,74,75
 1095 184 1095 184 1118 153 c 128,-1,76
 1141 122 1141 122 1183 122 c 0,77,78
 1208 122 1208 122 1227 129.5 c 128,-1,79
 1246 137 1246 137 1259.5 146.5 c 128,-1,80
 1273 156 1273 156 1283 163.5 c 128,-1,81
 1293 171 1293 171 1300 171 c 0,82,83
 1308 171 1308 171 1312.5 166.5 c 128,-1,84
 1317 162 1317 162 1321 154 c 2,85,-1
 1362 73 l 1,86,87
 1314 31 1314 31 1252.5 8 c 128,-1,88
 1191 -15 1191 -15 1128 -15 c 0,89,90
 1020 -15 1020 -15 968.5 49 c 128,-1,91
 917 113 917 113 932 234 c 2,92,-1
 1003 820 l 1,93,-1
 898 820 l 2,94,95
 884 820 884 820 874.5 829 c 128,-1,96
 865 838 865 838 867 857 c 2,97,-1
 874 924 l 1,98,-1
 1024 943 l 1,99,-1
 1091 1161 l 2,100,101
 1111 1226 1111 1226 1109 1277 c 128,-1,102
 1107 1328 1107 1328 1086 1363.5 c 128,-1,103
 1065 1399 1065 1399 1025.5 1417.5 c 128,-1,104
 986 1436 986 1436 932 1436 c 0,105,106
 866 1436 866 1436 813 1414 c 128,-1,107
 760 1392 760 1392 722 1354 c 128,-1,108
 684 1316 684 1316 661.5 1266 c 128,-1,109
 639 1216 639 1216 635 1161 c 128,-1,110
 631 1106 631 1106 646 1048 c 128,-1,111
 661 990 661 990 698 937 c 1,112,113
 718 926 718 926 735 912 c 128,-1,114
 752 898 752 898 768 883 c 1,115,-1
 725 820 l 2,0,1
EndSplineSet
Ligature2: "sous-table 'dlig' Ligatures facultatives  dans Latin lookup 36" s t
EndChar

StartChar: glyph121
Encoding: 65570 -1 121
Width: 1445
GlyphClass: 3
Flags: W
LayerCount: 2
Fore
SplineSet
179 -240 m 0,0,1
 185 -240 185 -240 191.5 -243.5 c 128,-1,2
 198 -247 198 -247 207 -251.5 c 128,-1,3
 216 -256 216 -256 229 -259.5 c 128,-1,4
 242 -263 242 -263 260 -263 c 0,5,6
 298 -263 298 -263 319 -244 c 128,-1,7
 340 -225 340 -225 340 -197 c 0,8,9
 340 -164 340 -164 306 -150 c 128,-1,10
 272 -136 272 -136 208 -127 c 1,11,-1
 253 -13 l 1,12,13
 171 -5 171 -5 107 26 c 128,-1,14
 43 57 43 57 1 104 c 1,15,-1
 43 170 l 2,16,17
 60 197 60 197 89 197 c 0,18,19
 105 197 105 197 121.5 183 c 128,-1,20
 138 169 138 169 163 152.5 c 128,-1,21
 188 136 188 136 225.5 122.5 c 128,-1,22
 263 109 263 109 321 109 c 0,23,24
 372 109 372 109 413 123 c 128,-1,25
 454 137 454 137 482.5 161 c 128,-1,26
 511 185 511 185 526 216.5 c 128,-1,27
 541 248 541 248 541 284 c 0,28,29
 541 334 541 334 509 365 c 128,-1,30
 477 396 477 396 428.5 418.5 c 128,-1,31
 380 441 380 441 323.5 461 c 128,-1,32
 267 481 267 481 218.5 507.5 c 128,-1,33
 170 534 170 534 138 573.5 c 128,-1,34
 106 613 106 613 106 675 c 0,35,36
 106 736 106 736 132 793.5 c 128,-1,37
 158 851 158 851 206.5 895 c 128,-1,38
 255 939 255 939 324.5 965.5 c 128,-1,39
 394 992 394 992 480 992 c 0,40,41
 529 992 529 992 573 983 c 1,42,43
 549 1050 549 1050 549 1122 c 0,44,45
 549 1198 549 1198 572.5 1268.5 c 128,-1,46
 596 1339 596 1339 643.5 1392 c 128,-1,47
 691 1445 691 1445 762.5 1477 c 128,-1,48
 834 1509 834 1509 930 1509 c 0,49,50
 1014 1509 1014 1509 1072 1482 c 128,-1,51
 1130 1455 1130 1455 1164.5 1410 c 128,-1,52
 1199 1365 1199 1365 1210.5 1308 c 128,-1,53
 1222 1251 1222 1251 1215 1191 c 2,54,-1
 1186 958 l 1,55,-1
 1442 958 l 1,56,-1
 1426 835 l 1,57,-1
 1171 835 l 1,58,-1
 1099 245 l 2,59,60
 1091 183 1091 183 1113.5 153 c 128,-1,61
 1136 123 1136 123 1177 123 c 0,62,63
 1201 123 1201 123 1219.5 130.5 c 128,-1,64
 1238 138 1238 138 1251.5 146.5 c 128,-1,65
 1265 155 1265 155 1275 162.5 c 128,-1,66
 1285 170 1285 170 1292 170 c 0,67,68
 1306 170 1306 170 1313 154 c 2,69,-1
 1354 73 l 1,70,71
 1306 31 1306 31 1245.5 8 c 128,-1,72
 1185 -15 1185 -15 1122 -15 c 0,73,74
 1014 -15 1014 -15 963.5 49 c 128,-1,75
 913 113 913 113 928 234 c 2,76,-1
 1001 835 l 1,77,-1
 897 835 l 2,78,79
 882 835 882 835 873 845 c 128,-1,80
 864 855 864 855 866 873 c 2,81,-1
 874 940 l 1,82,-1
 1028 960 l 1,83,84
 1039 988 1039 988 1050.5 1020 c 128,-1,85
 1062 1052 1062 1052 1072 1085 c 128,-1,86
 1082 1118 1082 1118 1089.5 1150.5 c 128,-1,87
 1097 1183 1097 1183 1101 1213 c 0,88,89
 1107 1261 1107 1261 1100 1301.5 c 128,-1,90
 1093 1342 1093 1342 1071.5 1372 c 128,-1,91
 1050 1402 1050 1402 1013 1419 c 128,-1,92
 976 1436 976 1436 921 1436 c 0,93,94
 850 1436 850 1436 796 1411 c 128,-1,95
 742 1386 742 1386 705 1344 c 128,-1,96
 668 1302 668 1302 649.5 1247.5 c 128,-1,97
 631 1193 631 1193 631 1133 c 0,98,99
 631 1083 631 1083 646.5 1034 c 128,-1,100
 662 985 662 985 691 940 c 1,101,102
 712 928 712 928 730.5 914 c 128,-1,103
 749 900 749 900 766 883 c 1,104,-1
 723 820 l 2,105,106
 715 809 715 809 707 803.5 c 128,-1,107
 699 798 699 798 686 798 c 0,108,109
 672 798 672 798 655.5 809 c 128,-1,110
 639 820 639 820 614.5 832.5 c 128,-1,111
 590 845 590 845 555.5 856 c 128,-1,112
 521 867 521 867 471 867 c 0,113,114
 424 867 424 867 385.5 855 c 128,-1,115
 347 843 347 843 319.5 822 c 128,-1,116
 292 801 292 801 276.5 773 c 128,-1,117
 261 745 261 745 261 714 c 0,118,119
 261 680 261 680 279.5 654.5 c 128,-1,120
 298 629 298 629 329 608 c 128,-1,121
 360 587 360 587 399 569.5 c 128,-1,122
 438 552 438 552 479 534.5 c 128,-1,123
 520 517 520 517 559 497.5 c 128,-1,124
 598 478 598 478 629 453.5 c 128,-1,125
 660 429 660 429 678.5 397.5 c 128,-1,126
 697 366 697 366 697 324 c 0,127,128
 697 263 697 263 674 206.5 c 128,-1,129
 651 150 651 150 607.5 104.5 c 128,-1,130
 564 59 564 59 502 28.5 c 128,-1,131
 440 -2 440 -2 362 -11 c 1,132,-1
 339 -69 l 1,133,134
 409 -86 409 -86 441.5 -116 c 128,-1,135
 474 -146 474 -146 474 -191 c 0,136,137
 474 -226 474 -226 458 -253 c 128,-1,138
 442 -280 442 -280 413.5 -299.5 c 128,-1,139
 385 -319 385 -319 345.5 -329 c 128,-1,140
 306 -339 306 -339 260 -339 c 0,141,142
 224 -339 224 -339 191.5 -330.5 c 128,-1,143
 159 -322 159 -322 133 -308 c 1,144,-1
 156 -256 l 2,145,146
 160 -248 160 -248 165 -244 c 128,-1,147
 170 -240 170 -240 179 -240 c 0,0,1
EndSplineSet
EndChar

StartChar: germandbls
Encoding: 223 223 122
Width: 1080
GlyphClass: 2
Flags: W
LayerCount: 2
Fore
SplineSet
713 1403 m 0,0,1
 801 1403 801 1403 863.5 1377 c 128,-1,2
 926 1351 926 1351 966 1310.5 c 128,-1,3
 1006 1270 1006 1270 1024.5 1221 c 128,-1,4
 1043 1172 1043 1172 1043 1126 c 0,5,6
 1043 1061 1043 1061 1020 1014.5 c 128,-1,7
 997 968 997 968 963 934 c 128,-1,8
 929 900 929 900 888.5 874 c 128,-1,9
 848 848 848 848 814 823.5 c 128,-1,10
 780 799 780 799 757 772 c 128,-1,11
 734 745 734 745 734 709 c 0,12,13
 734 675 734 675 755 654.5 c 128,-1,14
 776 634 776 634 808 616.5 c 128,-1,15
 840 599 840 599 877 580 c 128,-1,16
 914 561 914 561 946 531 c 128,-1,17
 978 501 978 501 999 456 c 128,-1,18
 1020 411 1020 411 1020 341 c 0,19,20
 1020 258 1020 258 989.5 192 c 128,-1,21
 959 126 959 126 907 80 c 128,-1,22
 855 34 855 34 786 9.5 c 128,-1,23
 717 -15 717 -15 640 -15 c 0,24,25
 552 -15 552 -15 484 18 c 128,-1,26
 416 51 416 51 368 103 c 1,27,-1
 416 168 l 2,28,29
 433 193 433 193 464 193 c 0,30,31
 480 193 480 193 496.5 179 c 128,-1,32
 513 165 513 165 535.5 148.5 c 128,-1,33
 558 132 558 132 590 118.5 c 128,-1,34
 622 105 622 105 669 105 c 0,35,36
 711 105 711 105 745.5 120 c 128,-1,37
 780 135 780 135 805 161 c 128,-1,38
 830 187 830 187 844 221.5 c 128,-1,39
 858 256 858 256 858 296 c 0,40,41
 858 342 858 342 835.5 370 c 128,-1,42
 813 398 813 398 779 417.5 c 128,-1,43
 745 437 745 437 705 454 c 128,-1,44
 665 471 665 471 631 496.5 c 128,-1,45
 597 522 597 522 574.5 560 c 128,-1,46
 552 598 552 598 552 661 c 0,47,48
 552 721 552 721 576 763.5 c 128,-1,49
 600 806 600 806 636.5 839 c 128,-1,50
 673 872 673 872 715.5 899.5 c 128,-1,51
 758 927 758 927 794.5 958 c 128,-1,52
 831 989 831 989 855 1027.5 c 128,-1,53
 879 1066 879 1066 879 1120 c 0,54,55
 879 1148 879 1148 869 1176 c 128,-1,56
 859 1204 859 1204 836.5 1226.5 c 128,-1,57
 814 1249 814 1249 778 1263.5 c 128,-1,58
 742 1278 742 1278 690 1278 c 0,59,60
 629 1278 629 1278 575.5 1245.5 c 128,-1,61
 522 1213 522 1213 480.5 1157.5 c 128,-1,62
 439 1102 439 1102 411 1028.5 c 128,-1,63
 383 955 383 955 373 873 c 2,64,-1
 269 32 l 1,65,-1
 222 -166 l 2,66,67
 214 -202 214 -202 192.5 -221 c 128,-1,68
 171 -240 171 -240 133 -240 c 2,69,-1
 64 -240 l 1,70,-1
 195 831 l 1,71,-1
 88 845 l 2,72,73
 68 848 68 848 56.5 858.5 c 128,-1,74
 45 869 45 869 48 888 c 2,75,-1
 56 958 l 1,76,-1
 216 958 l 1,77,78
 239 1046 239 1046 285.5 1127 c 128,-1,79
 332 1208 332 1208 396.5 1269 c 128,-1,80
 461 1330 461 1330 541.5 1366.5 c 128,-1,81
 622 1403 622 1403 713 1403 c 0,0,1
EndSplineSet
EndChar

StartChar: longs
Encoding: 383 383 123
Width: 497
GlyphClass: 2
Flags: W
LayerCount: 2
Fore
SplineSet
269 32 m 1,0,-1
 222 -166 l 2,1,2
 214 -202 214 -202 192.5 -221 c 128,-1,3
 171 -240 171 -240 133 -240 c 2,4,-1
 65 -240 l 1,5,-1
 196 831 l 1,6,-1
 88 845 l 2,7,8
 68 848 68 848 56.5 858.5 c 128,-1,9
 45 869 45 869 48 888 c 2,10,-1
 56 958 l 1,11,-1
 211 958 l 1,12,-1
 223 1053 l 2,13,14
 233 1137 233 1137 263.5 1202 c 128,-1,15
 294 1267 294 1267 341 1312 c 128,-1,16
 388 1357 388 1357 450 1380 c 128,-1,17
 512 1403 512 1403 586 1403 c 0,18,19
 618 1403 618 1403 645.5 1397.5 c 128,-1,20
 673 1392 673 1392 698 1383 c 1,21,-1
 682 1296 l 2,22,23
 680 1286 680 1286 673 1282 c 128,-1,24
 666 1278 666 1278 655.5 1277 c 128,-1,25
 645 1276 645 1276 630.5 1277 c 128,-1,26
 616 1278 616 1278 599 1278 c 0,27,28
 557 1278 557 1278 523 1265.5 c 128,-1,29
 489 1253 489 1253 463 1226 c 128,-1,30
 437 1199 437 1199 419.5 1155 c 128,-1,31
 402 1111 402 1111 394 1048 c 2,32,-1
 269 32 l 1,0,-1
EndSplineSet
EndChar

StartChar: t
Encoding: 116 116 124
Width: 686
GlyphClass: 2
Flags: W
LayerCount: 2
Fore
SplineSet
161 192 m 0,0,1
 161 198 161 198 161.5 208.5 c 128,-1,2
 162 219 162 219 163.5 237 c 128,-1,3
 165 255 165 255 167.5 281.5 c 128,-1,4
 170 308 170 308 175 346 c 2,5,-1
 235 832 l 1,6,-1
 122 832 l 2,7,8
 108 832 108 832 99 842 c 128,-1,9
 90 852 90 852 92 871 c 2,10,-1
 100 941 l 1,11,-1
 256 962 l 1,12,-1
 330 1262 l 2,13,14
 335 1277 335 1277 345 1286 c 128,-1,15
 355 1295 355 1295 371 1295 c 2,16,-1
 464 1295 l 1,17,-1
 423 960 l 1,18,-1
 689 960 l 1,19,-1
 674 832 l 1,20,-1
 407 832 l 1,21,-1
 348 355 l 2,22,23
 343 316 343 316 340 291.5 c 128,-1,24
 337 267 337 267 335.5 253 c 128,-1,25
 334 239 334 239 333.5 232.5 c 128,-1,26
 333 226 333 226 333 223 c 0,27,28
 333 175 333 175 357 151.5 c 128,-1,29
 381 128 381 128 423 128 c 0,30,31
 450 128 450 128 469.5 135 c 128,-1,32
 489 142 489 142 504 151 c 128,-1,33
 519 160 519 160 529 167 c 128,-1,34
 539 174 539 174 546 174 c 0,35,36
 560 174 560 174 567 157 c 2,37,-1
 605 73 l 1,38,39
 557 31 557 31 495 8 c 128,-1,40
 433 -15 433 -15 370 -15 c 0,41,42
 273 -15 273 -15 217 37 c 128,-1,43
 161 89 161 89 161 192 c 0,0,1
EndSplineSet
Substitution2: "sous-table 'ordn' Ordinaux dans Latin lookup 39" t.superior
Substitution2: "sous-table 'sups' Exposant lookups25" t.superior
EndChar

StartChar: tbar
Encoding: 359 359 126
Width: 700
GlyphClass: 2
Flags: W
LayerCount: 2
Fore
SplineSet
56 668 m 1,0,-1
 198 668 l 1,1,-1
 219 832 l 1,2,-1
 106 832 l 2,3,4
 92 832 92 832 83 842 c 128,-1,5
 74 852 74 852 76 871 c 2,6,-1
 84 941 l 1,7,-1
 240 962 l 1,8,-1
 314 1262 l 2,9,10
 319 1277 319 1277 329 1286 c 128,-1,11
 339 1295 339 1295 355 1295 c 2,12,-1
 448 1295 l 1,13,-1
 407 960 l 1,14,-1
 673 960 l 1,15,-1
 658 832 l 1,16,-1
 391 832 l 1,17,-1
 370 668 l 1,18,-1
 653 668 l 1,19,-1
 640 557 l 1,20,-1
 357 557 l 1,21,-1
 332 355 l 2,22,23
 327 316 327 316 324 291.5 c 128,-1,24
 321 267 321 267 319.5 253 c 128,-1,25
 318 239 318 239 317.5 232.5 c 128,-1,26
 317 226 317 226 317 223 c 0,27,28
 317 175 317 175 341 151.5 c 128,-1,29
 365 128 365 128 407 128 c 0,30,31
 434 128 434 128 453.5 135 c 128,-1,32
 473 142 473 142 488 151 c 128,-1,33
 503 160 503 160 513 167 c 128,-1,34
 523 174 523 174 530 174 c 0,35,36
 544 174 544 174 551 157 c 2,37,-1
 589 73 l 1,38,39
 541 31 541 31 479 8 c 128,-1,40
 417 -15 417 -15 354 -15 c 0,41,42
 257 -15 257 -15 201 37 c 128,-1,43
 145 89 145 89 145 192 c 0,44,45
 145 198 145 198 145.5 208.5 c 128,-1,46
 146 219 146 219 147.5 237 c 128,-1,47
 149 255 149 255 151.5 281.5 c 128,-1,48
 154 308 154 308 159 346 c 2,49,-1
 185 557 l 1,50,-1
 83 557 l 2,51,52
 66 557 66 557 56 567 c 128,-1,53
 46 577 46 577 48 597 c 2,54,-1
 56 668 l 1,0,-1
EndSplineSet
EndChar

StartChar: t_f.liga
Encoding: 65571 -1 127
Width: 1254
GlyphClass: 3
Flags: W
LayerCount: 2
Fore
SplineSet
773 0 m 1,0,-1
 875 835 l 1,1,-1
 421 835 l 1,2,-1
 349 245 l 2,3,4
 341 183 341 183 365.5 153 c 128,-1,5
 390 123 390 123 434 123 c 0,6,7
 459 123 459 123 478.5 130.5 c 128,-1,8
 498 138 498 138 512 146.5 c 128,-1,9
 526 155 526 155 536 162.5 c 128,-1,10
 546 170 546 170 554 170 c 256,11,12
 562 170 562 170 566.5 166 c 128,-1,13
 571 162 571 162 576 154 c 2,14,-1
 617 73 l 1,15,16
 569 31 569 31 505.5 8 c 128,-1,17
 442 -15 442 -15 378 -15 c 0,18,19
 268 -15 268 -15 215.5 49 c 128,-1,20
 163 113 163 113 178 234 c 2,21,-1
 251 835 l 1,22,-1
 142 835 l 2,23,24
 127 835 127 835 118 845 c 128,-1,25
 109 855 109 855 111 873 c 2,26,-1
 119 940 l 1,27,-1
 272 959 l 1,28,-1
 350 1263 l 2,29,30
 354 1277 354 1277 365 1286 c 128,-1,31
 376 1295 376 1295 392 1295 c 2,32,-1
 478 1295 l 1,33,-1
 436 958 l 1,34,-1
 890 958 l 1,35,-1
 902 1054 l 2,36,37
 912 1138 912 1138 942.5 1203 c 128,-1,38
 973 1268 973 1268 1020.5 1312.5 c 128,-1,39
 1068 1357 1068 1357 1130 1380 c 128,-1,40
 1192 1403 1192 1403 1266 1403 c 0,41,42
 1297 1403 1297 1403 1325.5 1398 c 128,-1,43
 1354 1393 1354 1393 1380 1384 c 1,44,-1
 1365 1299 l 2,45,46
 1361 1276 1361 1276 1338.5 1274.5 c 128,-1,47
 1316 1273 1316 1273 1278 1273 c 0,48,49
 1236 1273 1236 1273 1200.5 1261.5 c 128,-1,50
 1165 1250 1165 1250 1138 1223.5 c 128,-1,51
 1111 1197 1111 1197 1092.5 1154 c 128,-1,52
 1074 1111 1074 1111 1066 1048 c 2,53,-1
 1054 958 l 1,54,-1
 1320 958 l 1,55,-1
 1305 835 l 1,56,-1
 1045 835 l 1,57,-1
 942 0 l 1,58,-1
 773 0 l 1,0,-1
EndSplineSet
Ligature2: "sous-table 'liga' Ligatures standard dans Latin lookup 37" t f
EndChar

StartChar: t_iogonek.liga
Encoding: 65572 -1 128
Width: 1141
GlyphClass: 3
Flags: W
LayerCount: 2
Fore
SplineSet
978 -205 m 0,0,1
 991 -205 991 -205 994 -217 c 2,2,-1
 1014 -279 l 1,3,4
 982 -302 982 -302 937.5 -315.5 c 128,-1,5
 893 -329 893 -329 846 -329 c 0,6,7
 771 -329 771 -329 729.5 -296 c 128,-1,8
 688 -263 688 -263 688 -207 c 0,9,10
 688 -145 688 -145 731 -92 c 128,-1,11
 774 -39 774 -39 840 0 c 1,12,-1
 791 0 l 1,13,-1
 894 835 l 1,14,-1
 421 835 l 1,15,-1
 349 245 l 2,16,17
 341 182 341 182 365 152.5 c 128,-1,18
 389 123 389 123 433 123 c 0,19,20
 458 123 458 123 477.5 130.5 c 128,-1,21
 497 138 497 138 511 146.5 c 128,-1,22
 525 155 525 155 535 162.5 c 128,-1,23
 545 170 545 170 553 170 c 256,24,25
 561 170 561 170 565.5 166 c 128,-1,26
 570 162 570 162 575 154 c 2,27,-1
 615 73 l 1,28,29
 567 31 567 31 504 8 c 128,-1,30
 441 -15 441 -15 377 -15 c 0,31,32
 268 -15 268 -15 215.5 49 c 128,-1,33
 163 113 163 113 177 234 c 2,34,-1
 251 835 l 1,35,-1
 141 835 l 2,36,37
 127 835 127 835 118 845 c 128,-1,38
 109 855 109 855 111 873 c 2,39,-1
 119 940 l 1,40,-1
 272 959 l 1,41,-1
 350 1263 l 2,42,43
 354 1277 354 1277 365 1286 c 128,-1,44
 376 1295 376 1295 392 1295 c 2,45,-1
 478 1295 l 1,46,-1
 436 958 l 1,47,-1
 1079 958 l 1,48,-1
 1064 835 l 1,49,-1
 962 0 l 1,50,-1
 947 0 l 1,51,52
 926 -11 926 -11 904 -27.5 c 128,-1,53
 882 -44 882 -44 863.5 -64 c 128,-1,54
 845 -84 845 -84 833 -108.5 c 128,-1,55
 821 -133 821 -133 821 -160 c 0,56,57
 821 -192 821 -192 840.5 -210 c 128,-1,58
 860 -228 860 -228 894 -228 c 0,59,60
 914 -228 914 -228 928 -224.5 c 128,-1,61
 942 -221 942 -221 951.5 -216.5 c 128,-1,62
 961 -212 961 -212 967 -208.5 c 128,-1,63
 973 -205 973 -205 978 -205 c 0,0,1
1154 1298 m 0,64,65
 1154 1271 1154 1271 1142.5 1247 c 128,-1,66
 1131 1223 1131 1223 1112 1204.5 c 128,-1,67
 1093 1186 1093 1186 1068.5 1175.5 c 128,-1,68
 1044 1165 1044 1165 1018 1165 c 0,69,70
 996 1165 996 1165 977 1173.5 c 128,-1,71
 958 1182 958 1182 944 1197 c 128,-1,72
 930 1212 930 1212 922 1231.5 c 128,-1,73
 914 1251 914 1251 914 1273 c 0,74,75
 914 1300 914 1300 925 1324.5 c 128,-1,76
 936 1349 936 1349 955 1367.5 c 128,-1,77
 974 1386 974 1386 998 1397 c 128,-1,78
 1022 1408 1022 1408 1048 1408 c 0,79,80
 1070 1408 1070 1408 1089.5 1399 c 128,-1,81
 1109 1390 1109 1390 1123 1375 c 128,-1,82
 1137 1360 1137 1360 1145.5 1340 c 128,-1,83
 1154 1320 1154 1320 1154 1298 c 0,64,65
EndSplineSet
Ligature2: "sous-table 'liga' Ligatures standard dans Latin lookup 37" t iogonek
EndChar

StartChar: t_dotlessi.liga
Encoding: 65573 -1 129
Width: 1141
GlyphClass: 3
Flags: W
LayerCount: 2
Fore
SplineSet
1079 958 m 1,0,-1
 1064 835 l 1,1,-1
 962 0 l 1,2,-1
 791 0 l 1,3,-1
 894 835 l 1,4,-1
 421 835 l 1,5,-1
 349 245 l 2,6,7
 341 182 341 182 365 152.5 c 128,-1,8
 389 123 389 123 433 123 c 0,9,10
 458 123 458 123 477.5 130.5 c 128,-1,11
 497 138 497 138 511 146.5 c 128,-1,12
 525 155 525 155 535 162.5 c 128,-1,13
 545 170 545 170 553 170 c 256,14,15
 561 170 561 170 565.5 166 c 128,-1,16
 570 162 570 162 575 154 c 2,17,-1
 615 73 l 1,18,19
 567 31 567 31 504 8 c 128,-1,20
 441 -15 441 -15 377 -15 c 0,21,22
 268 -15 268 -15 215.5 49 c 128,-1,23
 163 113 163 113 177 234 c 2,24,-1
 251 835 l 1,25,-1
 141 835 l 2,26,27
 127 835 127 835 118 845 c 128,-1,28
 109 855 109 855 111 873 c 2,29,-1
 119 940 l 1,30,-1
 272 959 l 1,31,-1
 350 1263 l 2,32,33
 354 1277 354 1277 365 1286 c 128,-1,34
 376 1295 376 1295 392 1295 c 2,35,-1
 478 1295 l 1,36,-1
 436 958 l 1,37,-1
 1079 958 l 1,0,-1
EndSplineSet
Ligature2: "sous-table 'liga' Ligatures standard dans Latin lookup 37" t dotlessi
EndChar

StartChar: t_t.liga
Encoding: 65574 -1 130
Width: 1299
GlyphClass: 3
Flags: W
LayerCount: 2
Fore
SplineSet
387 -15 m 0,0,1
 275 -15 275 -15 221.5 49 c 128,-1,2
 168 113 168 113 183 234 c 2,3,-1
 256 835 l 1,4,-1
 143 835 l 2,5,6
 129 835 129 835 119.5 845 c 128,-1,7
 110 855 110 855 112 873 c 2,8,-1
 120 940 l 1,9,-1
 278 959 l 1,10,-1
 356 1263 l 2,11,12
 360 1277 360 1277 371 1286 c 128,-1,13
 382 1295 382 1295 398 1295 c 2,14,-1
 483 1295 l 1,15,-1
 441 958 l 1,16,-1
 889 958 l 1,17,-1
 966 1263 l 2,18,19
 970 1278 970 1278 981.5 1286.5 c 128,-1,20
 993 1295 993 1295 1009 1295 c 2,21,-1
 1095 1295 l 1,22,-1
 1053 958 l 1,23,-1
 1327 958 l 1,24,-1
 1313 835 l 1,25,-1
 1038 835 l 1,26,-1
 965 245 l 2,27,28
 957 183 957 183 982.5 153 c 128,-1,29
 1008 123 1008 123 1053 123 c 0,30,31
 1080 123 1080 123 1100 130.5 c 128,-1,32
 1120 138 1120 138 1135 146.5 c 128,-1,33
 1150 155 1150 155 1160.5 162.5 c 128,-1,34
 1171 170 1171 170 1179 170 c 256,35,36
 1187 170 1187 170 1191 166 c 128,-1,37
 1195 162 1195 162 1200 154 c 2,38,-1
 1242 73 l 1,39,40
 1193 31 1193 31 1129 8 c 128,-1,41
 1065 -15 1065 -15 999 -15 c 0,42,43
 886 -15 886 -15 832.5 49 c 128,-1,44
 779 113 779 113 794 234 c 2,45,-1
 868 835 l 1,46,-1
 426 835 l 1,47,-1
 354 245 l 2,48,49
 346 182 346 182 371.5 152.5 c 128,-1,50
 397 123 397 123 442 123 c 0,51,52
 469 123 469 123 489 130.5 c 128,-1,53
 509 138 509 138 524 146.5 c 128,-1,54
 539 155 539 155 549.5 162.5 c 128,-1,55
 560 170 560 170 568 170 c 256,56,57
 576 170 576 170 580.5 166 c 128,-1,58
 585 162 585 162 590 154 c 2,59,-1
 630 73 l 1,60,61
 581 31 581 31 517 8 c 128,-1,62
 453 -15 453 -15 387 -15 c 0,0,1
EndSplineSet
Ligature2: "sous-table 'liga' Ligatures standard dans Latin lookup 37" t t
EndChar

StartChar: t_t_f.liga
Encoding: 65575 -1 131
Width: 1867
GlyphClass: 3
Flags: W
LayerCount: 2
Fore
SplineSet
1382 0 m 1,0,-1
 1484 835 l 1,1,-1
 1025 835 l 1,2,-1
 953 245 l 2,3,4
 945 183 945 183 969 153 c 128,-1,5
 993 123 993 123 1038 123 c 0,6,7
 1064 123 1064 123 1084 130.5 c 128,-1,8
 1104 138 1104 138 1118.5 146.5 c 128,-1,9
 1133 155 1133 155 1143 162.5 c 128,-1,10
 1153 170 1153 170 1161 170 c 256,11,12
 1169 170 1169 170 1173 166 c 128,-1,13
 1177 162 1177 162 1182 154 c 2,14,-1
 1224 73 l 1,15,16
 1175 31 1175 31 1111.5 8 c 128,-1,17
 1048 -15 1048 -15 984 -15 c 0,18,19
 872 -15 872 -15 819.5 49 c 128,-1,20
 767 113 767 113 782 234 c 2,21,-1
 855 835 l 1,22,-1
 423 835 l 1,23,-1
 351 245 l 2,24,25
 343 182 343 182 367.5 152.5 c 128,-1,26
 392 123 392 123 437 123 c 0,27,28
 463 123 463 123 482.5 130.5 c 128,-1,29
 502 138 502 138 516 146.5 c 128,-1,30
 530 155 530 155 540.5 162.5 c 128,-1,31
 551 170 551 170 559 170 c 256,32,33
 567 170 567 170 571.5 166 c 128,-1,34
 576 162 576 162 581 154 c 2,35,-1
 622 73 l 1,36,37
 573 31 573 31 509.5 8 c 128,-1,38
 446 -15 446 -15 382 -15 c 0,39,40
 271 -15 271 -15 218 49 c 128,-1,41
 165 113 165 113 180 234 c 2,42,-1
 253 835 l 1,43,-1
 142 835 l 2,44,45
 128 835 128 835 119 845 c 128,-1,46
 110 855 110 855 112 873 c 2,47,-1
 119 940 l 1,48,-1
 274 959 l 1,49,-1
 352 1263 l 2,50,51
 356 1277 356 1277 367 1286 c 128,-1,52
 378 1295 378 1295 394 1295 c 2,53,-1
 480 1295 l 1,54,-1
 438 958 l 1,55,-1
 876 958 l 1,56,-1
 953 1263 l 2,57,58
 957 1278 957 1278 968.5 1286.5 c 128,-1,59
 980 1295 980 1295 997 1295 c 2,60,-1
 1082 1295 l 1,61,-1
 1040 958 l 1,62,-1
 1499 958 l 1,63,-1
 1511 1054 l 2,64,65
 1521 1138 1521 1138 1551.5 1203 c 128,-1,66
 1582 1268 1582 1268 1629.5 1312.5 c 128,-1,67
 1677 1357 1677 1357 1740 1380 c 128,-1,68
 1803 1403 1803 1403 1877 1403 c 0,69,70
 1909 1403 1909 1403 1937 1398 c 128,-1,71
 1965 1393 1965 1393 1991 1384 c 1,72,-1
 1977 1299 l 2,73,74
 1972 1276 1972 1276 1950 1274.5 c 128,-1,75
 1928 1273 1928 1273 1890 1273 c 0,76,77
 1848 1273 1848 1273 1812 1261.5 c 128,-1,78
 1776 1250 1776 1250 1748 1223.5 c 128,-1,79
 1720 1197 1720 1197 1701.5 1154 c 128,-1,80
 1683 1111 1683 1111 1675 1048 c 2,81,-1
 1663 958 l 1,82,-1
 1931 958 l 1,83,-1
 1917 835 l 1,84,-1
 1654 835 l 1,85,-1
 1551 0 l 1,86,-1
 1382 0 l 1,0,-1
EndSplineSet
Ligature2: "sous-table 'liga' Ligatures standard dans Latin lookup 37" t t f
EndChar

StartChar: t_t_iogonek.liga
Encoding: 65576 -1 132
Width: 1753
GlyphClass: 3
Flags: W
LayerCount: 2
Fore
SplineSet
1571 -205 m 0,0,1
 1585 -205 1585 -205 1588 -217 c 2,2,-1
 1606 -280 l 1,3,4
 1576 -302 1576 -302 1533 -316 c 128,-1,5
 1490 -330 1490 -330 1444 -330 c 0,6,7
 1370 -330 1370 -330 1330 -296.5 c 128,-1,8
 1290 -263 1290 -263 1290 -207 c 0,9,10
 1290 -145 1290 -145 1331.5 -92 c 128,-1,11
 1373 -39 1373 -39 1437 0 c 1,12,-1
 1399 0 l 1,13,-1
 1500 835 l 1,14,-1
 1033 835 l 1,15,-1
 961 245 l 2,16,17
 953 183 953 183 977.5 153 c 128,-1,18
 1002 123 1002 123 1047 123 c 0,19,20
 1074 123 1074 123 1094 130.5 c 128,-1,21
 1114 138 1114 138 1129 146.5 c 128,-1,22
 1144 155 1144 155 1154.5 162.5 c 128,-1,23
 1165 170 1165 170 1173 170 c 256,24,25
 1181 170 1181 170 1185 166 c 128,-1,26
 1189 162 1189 162 1194 154 c 2,27,-1
 1235 73 l 1,28,29
 1187 31 1187 31 1123 8 c 128,-1,30
 1059 -15 1059 -15 993 -15 c 0,31,32
 881 -15 881 -15 828 49 c 128,-1,33
 775 113 775 113 790 234 c 2,34,-1
 863 835 l 1,35,-1
 425 835 l 1,36,-1
 353 245 l 2,37,38
 345 182 345 182 370 152.5 c 128,-1,39
 395 123 395 123 440 123 c 0,40,41
 467 123 467 123 486.5 130.5 c 128,-1,42
 506 138 506 138 521 146.5 c 128,-1,43
 536 155 536 155 546 162.5 c 128,-1,44
 556 170 556 170 564 170 c 0,45,46
 573 170 573 170 577.5 166 c 128,-1,47
 582 162 582 162 587 154 c 2,48,-1
 627 73 l 1,49,50
 578 31 578 31 514.5 8 c 128,-1,51
 451 -15 451 -15 385 -15 c 0,52,53
 273 -15 273 -15 220 49 c 128,-1,54
 167 113 167 113 182 234 c 2,55,-1
 255 835 l 1,56,-1
 142 835 l 2,57,58
 128 835 128 835 119 845 c 128,-1,59
 110 855 110 855 112 873 c 2,60,-1
 119 940 l 1,61,-1
 277 959 l 1,62,-1
 355 1263 l 2,63,64
 358 1277 358 1277 369 1286 c 128,-1,65
 380 1295 380 1295 397 1295 c 2,66,-1
 482 1295 l 1,67,-1
 440 958 l 1,68,-1
 884 958 l 1,69,-1
 962 1263 l 2,70,71
 965 1278 965 1278 977 1286.5 c 128,-1,72
 989 1295 989 1295 1005 1295 c 2,73,-1
 1090 1295 l 1,74,-1
 1048 958 l 1,75,-1
 1685 958 l 1,76,-1
 1671 835 l 1,77,-1
 1670 835 l 1,78,-1
 1568 0 l 1,79,-1
 1544 0 l 1,80,81
 1524 -11 1524 -11 1502.5 -27 c 128,-1,82
 1481 -43 1481 -43 1463 -63.5 c 128,-1,83
 1445 -84 1445 -84 1433.5 -108 c 128,-1,84
 1422 -132 1422 -132 1422 -160 c 0,85,86
 1422 -191 1422 -191 1440.5 -209.5 c 128,-1,87
 1459 -228 1459 -228 1490 -228 c 0,88,89
 1510 -228 1510 -228 1524 -224.5 c 128,-1,90
 1538 -221 1538 -221 1547 -216.5 c 128,-1,91
 1556 -212 1556 -212 1561.5 -208.5 c 128,-1,92
 1567 -205 1567 -205 1571 -205 c 0,0,1
1762 1297 m 0,93,94
 1762 1270 1762 1270 1750.5 1246 c 128,-1,95
 1739 1222 1739 1222 1720 1204 c 128,-1,96
 1701 1186 1701 1186 1676 1175.5 c 128,-1,97
 1651 1165 1651 1165 1625 1165 c 0,98,99
 1603 1165 1603 1165 1584 1173.5 c 128,-1,100
 1565 1182 1565 1182 1551 1197 c 128,-1,101
 1537 1212 1537 1212 1529 1232 c 128,-1,102
 1521 1252 1521 1252 1521 1274 c 0,103,104
 1521 1301 1521 1301 1532 1325.5 c 128,-1,105
 1543 1350 1543 1350 1561.5 1368 c 128,-1,106
 1580 1386 1580 1386 1604 1397 c 128,-1,107
 1628 1408 1628 1408 1654 1408 c 0,108,109
 1676 1408 1676 1408 1696 1399 c 128,-1,110
 1716 1390 1716 1390 1730.5 1375 c 128,-1,111
 1745 1360 1745 1360 1753.5 1340 c 128,-1,112
 1762 1320 1762 1320 1762 1297 c 0,93,94
EndSplineSet
Ligature2: "sous-table 'liga' Ligatures standard dans Latin lookup 37" t t iogonek
EndChar

StartChar: t_t_dotlessi.liga
Encoding: 65577 -1 133
Width: 1753
GlyphClass: 3
Flags: W
LayerCount: 2
Fore
SplineSet
1685 958 m 1,0,-1
 1671 835 l 1,1,-1
 1670 835 l 1,2,-1
 1568 0 l 1,3,-1
 1399 0 l 1,4,-1
 1500 835 l 1,5,-1
 1033 835 l 1,6,-1
 961 245 l 2,7,8
 953 183 953 183 977.5 153 c 128,-1,9
 1002 123 1002 123 1047 123 c 0,10,11
 1074 123 1074 123 1094 130.5 c 128,-1,12
 1114 138 1114 138 1129 146.5 c 128,-1,13
 1144 155 1144 155 1154.5 162.5 c 128,-1,14
 1165 170 1165 170 1173 170 c 256,15,16
 1181 170 1181 170 1185 166 c 128,-1,17
 1189 162 1189 162 1194 154 c 2,18,-1
 1235 73 l 1,19,20
 1187 31 1187 31 1123 8 c 128,-1,21
 1059 -15 1059 -15 994 -15 c 0,22,23
 882 -15 882 -15 828.5 49 c 128,-1,24
 775 113 775 113 790 234 c 2,25,-1
 863 835 l 1,26,-1
 425 835 l 1,27,-1
 353 245 l 2,28,29
 345 182 345 182 370 152.5 c 128,-1,30
 395 123 395 123 440 123 c 0,31,32
 467 123 467 123 486.5 130.5 c 128,-1,33
 506 138 506 138 521 146.5 c 128,-1,34
 536 155 536 155 546.5 162.5 c 128,-1,35
 557 170 557 170 565 170 c 256,36,37
 573 170 573 170 577.5 166 c 128,-1,38
 582 162 582 162 587 154 c 2,39,-1
 627 73 l 1,40,41
 579 31 579 31 515 8 c 128,-1,42
 451 -15 451 -15 385 -15 c 0,43,44
 273 -15 273 -15 220 49 c 128,-1,45
 167 113 167 113 182 234 c 2,46,-1
 255 835 l 1,47,-1
 142 835 l 2,48,49
 128 835 128 835 119 845 c 128,-1,50
 110 855 110 855 112 873 c 2,51,-1
 119 940 l 1,52,-1
 277 959 l 1,53,-1
 355 1263 l 2,54,55
 358 1277 358 1277 369 1286 c 128,-1,56
 380 1295 380 1295 397 1295 c 2,57,-1
 482 1295 l 1,58,-1
 440 958 l 1,59,-1
 884 958 l 1,60,-1
 962 1263 l 2,61,62
 965 1278 965 1278 977 1286.5 c 128,-1,63
 989 1295 989 1295 1005 1295 c 2,64,-1
 1090 1295 l 1,65,-1
 1048 958 l 1,66,-1
 1685 958 l 1,0,-1
EndSplineSet
Ligature2: "sous-table 'liga' Ligatures standard dans Latin lookup 37" t t dotlessi
EndChar

StartChar: u
Encoding: 117 117 134
Width: 1053
GlyphClass: 2
Flags: W
LayerCount: 2
Fore
SplineSet
348 978 m 1,0,-1
 274 356 l 2,1,2
 260 242 260 242 290 187 c 128,-1,3
 320 132 320 132 399 132 c 0,4,5
 446 132 446 132 495 156 c 128,-1,6
 544 180 544 180 590 224.5 c 128,-1,7
 636 269 636 269 675.5 332 c 128,-1,8
 715 395 715 395 743 473 c 1,9,-1
 803 978 l 1,10,-1
 978 978 l 1,11,-1
 860 0 l 1,12,-1
 773 0 l 2,13,14
 706 0 706 0 711 63 c 2,15,-1
 724 242 l 1,16,17
 644 115 644 115 543 50.5 c 128,-1,18
 442 -14 442 -14 335 -14 c 0,19,20
 271 -14 271 -14 222 11 c 128,-1,21
 173 36 173 36 142.5 83 c 128,-1,22
 112 130 112 130 100.5 199 c 128,-1,23
 89 268 89 268 100 356 c 2,24,-1
 173 978 l 1,25,-1
 348 978 l 1,0,-1
EndSplineSet
Substitution2: "sous-table 'ordn' Ordinaux dans Latin lookup 39" u.superior
Substitution2: "sous-table 'sups' Exposant lookups25" u.superior
EndChar

